<?xml version="1.0" encoding="UTF-8"?>
<svg version="1.1" xmlns="http://www.w3.org/2000/svg" viewBox="162.56 89 174.44 171" width="500" height="350">
<path d="M0 0 C6.27 0 12.54 0 19 0 C18.98952637 1.64291016 18.97905273 3.28582031 18.96826172 4.97851562 C18.93173382 11.14369479 18.90898149 17.30886463 18.89013672 23.47412109 C18.88129491 26.129476 18.86656225 28.78460755 18.84912109 31.43994141 C17.115977 56.98087625 17.115977 56.98087625 25.16796875 80.234375 C30.89931997 85.75798002 38.44482562 88.84441851 46.37109375 89.06640625 C53.77712855 88.68512833 60.67767657 86.48020243 65.890625 81.01953125 C71.32199539 73.57117137 72.7791381 65.43000122 71.53125 56.3828125 C69.90441216 49.0859663 66.21864378 44.09894179 60 40 C53.76072576 36.42892511 47.03517818 36.25298511 40 37 C37.23095662 37.82262165 34.67801404 38.90010138 32 40 C28.22866378 39.53396035 26.46356541 37.87326713 24.10546875 34.8984375 C22.138211 31.52003727 21.57002886 27.82855201 21 24 C32.88310049 17.50026654 44.30941998 14.84331559 57.75 18.25 C70.55016872 22.24204117 80.59411249 30.01155222 87 42 C92.7247687 54.31469536 93.76888164 65.8246152 89.3203125 78.828125 C83.74460322 92.22302422 75.12111197 100.06226076 62.015625 105.87109375 C50.30425937 110.25527078 37.267391 108.91602728 26 104 C24.02 103.01 24.02 103.01 22 102 C22 111.24 22 120.48 22 130 C15.73 130 9.46 130 3 130 C2.9906543 128.50742676 2.98130859 127.01485352 2.97167969 125.47705078 C2.93160815 119.90432619 2.86580123 114.33214372 2.79248047 108.75976562 C2.76437023 106.35456338 2.74310658 103.94927047 2.72900391 101.54394531 C2.70743692 98.07309886 2.66071413 94.60333127 2.609375 91.1328125 C2.60814636 90.06886261 2.60691772 89.00491272 2.60565186 87.90872192 C2.44490237 79.59104422 1.06003617 71.68458172 -5.0625 65.625 C-11.26982448 60.94624579 -19.02386992 58.25243744 -26.8125 58.68359375 C-34.19793135 59.75184364 -40.03532354 62.32608405 -45 68 C-50.1627294 75.1556371 -50.72152624 83.73063208 -49.375 92.25 C-47.78781364 98.8389118 -44.7508007 103.0619662 -39.125 106.8125 C-33.11413607 110.23441504 -26.93569234 111.89740936 -20 111 C-18.42456324 110.5197161 -16.86140547 109.99746914 -15.3125 109.4375 C-9.48007069 107.35663328 -9.48007069 107.35663328 -6 109 C-1.45226692 113.33621061 -0.16043392 116.8813484 1 123 C-8.72968977 130.23489752 -20.07644766 131.96496161 -32 130.4375 C-44.23901267 128.00887085 -54.75578325 121.24295597 -62.0703125 111.140625 C-69.00547771 99.93989793 -72.19090259 87.95189651 -69.30859375 74.859375 C-65.16455197 61.33488717 -57.86763479 51.24396698 -45.52734375 44.28515625 C-34.54439446 38.70031805 -22.85817465 37.76595237 -11 41 C-6.05 42.98 -6.05 42.98 -1 45 C-0.67 30.15 -0.34 15.3 0 0 Z " fill="black" transform="translate(239,89)"/>
<path d="M0 0 C2 2 2 2 2.22705078 4.61376953 C2.21657715 5.69255371 2.20610352 6.77133789 2.1953125 7.8828125 C2.18886719 9.04941406 2.18242187 10.21601563 2.17578125 11.41796875 C2.15064453 13.25294922 2.15064453 13.25294922 2.125 15.125 C2.11597656 16.35605469 2.10695313 17.58710938 2.09765625 18.85546875 C2.07402548 21.90383815 2.04108054 24.95182382 2 28 C1.37762451 27.20996582 0.75524902 26.41993164 0.11401367 25.60595703 C-5.4070893 18.80006107 -12.55945127 14.80367333 -21.25390625 13.71875 C-28.50441959 13.41611988 -35.06405745 15.18925178 -40.8125 19.6875 C-46.63616747 25.20039172 -48.59328901 31.29011659 -49.03125 39.1953125 C-48.9462489 46.82416134 -47.55628183 53.49984223 -42 59 C-35.79060928 63.90489687 -29.12038569 66.42891526 -21.11328125 66.2734375 C-18.68858014 65.95970538 -16.60995703 65.26808977 -14.3125 64.4375 C-8.48007069 62.35663328 -8.48007069 62.35663328 -5 64 C-0.45226692 68.33621061 0.83956608 71.8813484 2 78 C-7.72968977 85.23489752 -19.07644766 86.96496161 -31 85.4375 C-43.23901267 83.00887085 -53.75578325 76.24295597 -61.0703125 66.140625 C-68.00547771 54.93989793 -71.19090259 42.95189651 -68.30859375 29.859375 C-64.1590086 16.31679586 -56.86552043 6.30120845 -44.5546875 -0.71484375 C-29.95529831 -8.05918479 -14.55904606 -7.1678739 0 0 Z " fill="black" transform="translate(238,134)"/>
<path d="M0 0 C6.27 0 12.54 0 19 0 C19 22.44 19 44.88 19 68 C16.92943749 65.23924999 15.19827791 62.67236572 13.4375 59.75 C10.97080855 55.84895805 8.84325186 54.34709848 4.82421875 52.203125 C1.95292784 49.96480238 0.28598455 48.26435967 -0.52993774 44.65710449 C-1.28064462 37.45194424 -0.90687435 30.2234291 -0.625 23 C-0.57480323 20.7722348 -0.52918218 18.5443615 -0.48828125 16.31640625 C-0.37844058 10.87492538 -0.20610559 5.43865092 0 0 Z " fill="black" transform="translate(239,89)"/>
<path d="M0 0 C3 4 3 4 4.25390625 5.82421875 C7.18135365 9.9925543 10.06583814 12.80428735 14.17578125 15.828125 C17.3820117 18.67378257 18.82061613 20.23881892 19.81176758 24.44458008 C19.98258659 28.3607642 19.875611 32.15104057 19.625 36.0625 C19.57473744 37.41845408 19.52912785 38.774589 19.48828125 40.13085938 C19.37114055 43.42251309 19.19179092 46.71185122 19 50 C12.73 50 6.46 50 0 50 C0 33.5 0 17 0 0 Z " fill="black" transform="translate(242,169)"/>
<path d="M0 0 C9.4440366 4.61727402 15.84435118 12.62918966 19.41552734 22.50244141 C20.67951273 27.9036822 20.30100929 33.48752297 20.1875 39 C20.16719727 40.87751953 20.16719727 40.87751953 20.14648438 42.79296875 C20.11133786 45.86243116 20.06213226 48.93098509 20 52 C11.31738747 46.89904329 3.60122859 39.06470871 0.43554688 29.25 C-0.12270623 26.36610951 -0.11151272 23.64069605 -0.09765625 20.703125 C-0.09443359 19.49785156 -0.09121094 18.29257813 -0.08789062 17.05078125 C-0.07951172 15.79652344 -0.07113281 14.54226562 -0.0625 13.25 C-0.05798828 11.98027344 -0.05347656 10.71054688 -0.04882812 9.40234375 C-0.03704556 6.26818164 -0.02059416 3.13411459 0 0 Z " fill="black" transform="translate(240,137)"/>
<path d="M0 0 C1.32 0.33 2.64 0.66 4 1 C4.33 0.67 4.66 0.34 5 0 C8.48497993 -0.38721999 10.37636806 -0.39387281 13.375 1.5 C15.80664499 5.24099229 15.49174842 7.57426418 15 12 C13.45367457 14.52295202 12.35818212 14.88060596 9.5625 15.8125 C6.68335622 16.02316906 5.41021064 15.51754003 3 14 C3 15.65 3 17.3 3 19 C2.01 19 1.02 19 0 19 C0 12.73 0 6.46 0 0 Z M5 3 C2.74837398 5.75471394 2.74837398 5.75471394 3.0625 8.5625 C3.79974599 11.1919108 3.79974599 11.1919108 6.3125 12.5 C9.04922956 13.31486338 9.04922956 13.31486338 11.3125 11.625 C11.869375 11.08875 12.42625 10.5525 13 10 C12.72459296 6.18186553 12.72459296 6.18186553 11 3 C8.04195427 2.66659529 8.04195427 2.66659529 5 3 Z " fill="black" transform="translate(191,241)"/>
<path d="M0 0 C3.87333137 2.82648506 4.01217034 4.0608517 5 9 C-0.94 9.495 -0.94 9.495 -7 10 C-5.90368631 11.32131818 -5.90368631 11.32131818 -3.1875 11.125 C-0.57164058 11.02241728 1.5193362 10.76328117 4 10 C2.25 13.875 2.25 13.875 0 15 C-4.03191305 15.53758841 -5.5619036 15.3075996 -8.9375 12.9375 C-11 10 -11 10 -11.0625 6.375 C-10 3 -10 3 -8.3125 1.0625 C-5.26397123 -0.33817538 -3.32073048 -0.4842732 0 0 Z M-6 3 C-6.99 4.485 -6.99 4.485 -8 6 C-4.7 6 -1.4 6 2 6 C1.34 5.01 0.68 4.02 0 3 C-3 2.5 -3 2.5 -6 3 Z " fill="black" transform="translate(324,241)"/>
<path d="M0 0 C0.99 0 1.98 0 3 0 C3 6.27 3 12.54 3 19 C-5 20 -5 20 -7.875 18.75 C-10 17 -10 17 -12 14 C-11.78206897 7.89793103 -11.78206897 7.89793103 -9.3125 5.0625 C-6.40913094 3.72851962 -4.15869424 3.78463448 -1 4 C-0.67 2.68 -0.34 1.36 0 0 Z M-9 9 C-9.36796448 11.87012296 -9.37509409 13.40774618 -7.8125 15.875 C-5.98054156 17.26547392 -5.98054156 17.26547392 -3.375 16.75 C-1.0687593 16.22254355 -1.0687593 16.22254355 0 15 C0.25005386 12.04182893 0.25005386 12.04182893 0 9 C-1.82703227 6.7508092 -1.82703227 6.7508092 -4.5 6.75 C-7.17296773 6.7508092 -7.17296773 6.7508092 -9 9 Z " fill="black" transform="translate(307,237)"/>
<path d="M0 0 C0.99 0 1.98 0 3 0 C3 1.65 3 3.3 3 5 C4.0725 4.773125 5.145 4.54625 6.25 4.3125 C10 4 10 4 12.375 5.0625 C14.61574088 7.73415259 14.93058104 9.52905199 15 13 C13.6294927 16.54719535 12.61503187 17.69931775 9.1875 19.375 C6 20 6 20 0 19 C0 12.73 0 6.46 0 0 Z M3 8 C2.74984127 11.41642759 2.74984127 11.41642759 3 15 C5.69155201 17.264384 5.69155201 17.264384 8.0625 16.75 C10.19476975 16.07467282 10.19476975 16.07467282 12 14 C11.81242938 10.17435335 11.81242938 10.17435335 10 7 C6.36805359 6.80850919 6.36805359 6.80850919 3 8 Z " fill="black" transform="translate(250,237)"/>
<path d="M0 0 C0 4.95 0 9.9 0 15 C-8.77236842 16.48684211 -8.77236842 16.48684211 -13 14 C-15.34549674 10.48175489 -15.57991403 9.14224306 -15 5 C-10.97742702 -1.16794523 -6.73631271 -0.44908751 0 0 Z M-12 5 C-11.67673447 8.59679066 -11.67673447 8.59679066 -11 12 C-8.64632287 12.6878236 -8.64632287 12.6878236 -6 13 C-5.01 12.34 -4.02 11.68 -3 11 C-2.58333333 8 -2.58333333 8 -3 5 C-4.82703227 2.7508092 -4.82703227 2.7508092 -7.5 2.75 C-10.17296773 2.7508092 -10.17296773 2.7508092 -12 5 Z " fill="black" transform="translate(244,241)"/>
<path d="M0 0 C0.66 0 1.32 0 2 0 C2 1.65 2 3.3 2 5 C3.6396875 4.6596875 3.6396875 4.6596875 5.3125 4.3125 C9 4 9 4 10.71875 5.09375 C12.55756764 7.82955185 12.29261279 9.92900366 12.1875 13.1875 C12.16042969 14.27417969 12.13335937 15.36085937 12.10546875 16.48046875 C12.07066406 17.31191406 12.03585938 18.14335937 12 19 C11.01 19 10.02 19 9 19 C8.67 15.37 8.34 11.74 8 8 C6.35 8.33 4.7 8.66 3 9 C2.67 12.3 2.34 15.6 2 19 C1.01 19 0.02 19 -1 19 C-1.02683987 16.02077407 -1.04676037 13.04178705 -1.0625 10.0625 C-1.07087891 9.21236328 -1.07925781 8.36222656 -1.08789062 7.48632812 C-1.09111328 6.67744141 -1.09433594 5.86855469 -1.09765625 5.03515625 C-1.10289307 4.2862915 -1.10812988 3.53742676 -1.11352539 2.76586914 C-1 1 -1 1 0 0 Z " fill="black" transform="translate(212,237)"/>
<path d="M0 0 C1.32 0 2.64 0 4 0 C4 4.95 4 9.9 4 15 C-6.46641791 15.36940299 -6.46641791 15.36940299 -8.828125 13.734375 C-10.85428664 10.73565577 -10.61394887 7.42845604 -10 4 C-7.23200844 -0.25844856 -4.86985534 -0.40582128 0 0 Z M-6 3 C-7.30514736 5.21776622 -7.30514736 5.21776622 -8 8 C-6.73666727 10.80167287 -6.73666727 10.80167287 -5 13 C-2.56282742 12.72965366 -2.56282742 12.72965366 0 12 C2.31543207 9.23011924 2.31543207 9.23011924 1.6875 6.375 C1.2258486 4.06498035 1.2258486 4.06498035 0 3 C-1.99958364 2.95919217 -4.00045254 2.95745644 -6 3 Z " fill="black" transform="translate(173,241)"/>
<path d="M0 0 C2.9375 2.0625 2.9375 2.0625 5 5 C5 8.57186665 4.74592267 10.88111599 2.75 13.875 C0.3462973 15.42023745 -1.11632369 15.93293776 -4 16 C-7.80744242 14.16949883 -9.60732212 13.08563885 -11.0625 9.0625 C-10.98887635 5.45494101 -10.18573664 3.83336232 -8 1 C-5.11138291 -0.44430855 -3.20352299 -0.37688506 0 0 Z M-6 3 C-8.25162602 5.75471394 -8.25162602 5.75471394 -7.9375 8.5625 C-7.20025401 11.1919108 -7.20025401 11.1919108 -4.6875 12.5 C-1.99699948 13.26779486 -1.99699948 13.26779486 0.3125 11.9375 C2.22148113 10.09822611 2.22148113 10.09822611 2.375 7.4375 C2.21896136 4.82471891 2.21896136 4.82471891 0 3 C-3 2.58333333 -3 2.58333333 -6 3 Z " fill="black" transform="translate(288,241)"/>
<path d="M0 0 C0.99 0 1.98 0 3 0 C3 6.27 3 12.54 3 19 C2.01 19 1.02 19 0 19 C0 12.73 0 6.46 0 0 Z " fill="black" transform="translate(183,237)"/>
<path d="M0 0 C1.98 0 3.96 0 6 0 C6 0.99 6 1.98 6 3 C5.01 3.495 5.01 3.495 4 4 C3.5316735 6.58605332 3.5316735 6.58605332 3.375 9.5625 C3.30023438 10.57441406 3.22546875 11.58632812 3.1484375 12.62890625 C3.09945313 13.41136719 3.05046875 14.19382813 3 15 C2.01 15 1.02 15 0 15 C0 10.05 0 5.1 0 0 Z " fill="black" transform="translate(270,241)"/>
<path d="M0 0 C1.2065625 0.0309375 1.2065625 0.0309375 2.4375 0.0625 C2.4375 1.0525 2.4375 2.0425 2.4375 3.0625 C1.7775 3.0625 1.1175 3.0625 0.4375 3.0625 C0.1075 7.0225 -0.2225 10.9825 -0.5625 15.0625 C-1.5525 14.7325 -2.5425 14.4025 -3.5625 14.0625 C-3.58935938 11.91673363 -3.60883088 9.77087355 -3.625 7.625 C-3.63660156 6.43003906 -3.64820313 5.23507813 -3.66015625 4.00390625 C-3.53008299 0.08609959 -3.53008299 0.08609959 0 0 Z " fill="black" transform="translate(334.5625,240.9375)"/>
</svg>
