<?xml version="1.0" encoding="UTF-8"?>
<svg version="1.1" xmlns="http://www.w3.org/2000/svg" viewBox="-0.05 0 300.17 246.42" width="300" height="246">
<path d="M0 0 C2.23046875 2.33984375 2.23046875 2.33984375 4.1875 4.9375 C7.66069142 9.37843536 11.27401707 13.57020978 15.125 17.6875 C16.15898602 18.79675211 17.192844 19.90612359 18.2265625 21.015625 C18.70899414 21.53318359 19.19142578 22.05074219 19.68847656 22.58398438 C23.49062013 26.68905376 27.10879896 30.95381885 30.73828125 35.2109375 C31.76283092 36.41162041 32.78757646 37.61213621 33.8125 38.8125 C34.32981689 39.41868164 34.84713379 40.02486328 35.38012695 40.64941406 C38.58502229 44.3907082 41.85209278 48.06115383 45.1875 51.6875 C49.22313487 56.08415013 53.00959987 60.63246698 56.75 65.28125 C59.81343204 68.98289705 63.06487058 72.4966566 66.34765625 76.00390625 C68 78 68 78 68 80 C53.02163988 80.16430192 38.04335018 80.28733968 23.06427765 80.3626852 C16.10748476 80.39861636 9.15125522 80.44750656 2.19482422 80.52807617 C-4.52908484 80.60591486 -11.25229041 80.64608801 -17.97666931 80.6641407 C-20.5313381 80.67699176 -23.08597801 80.70208548 -25.64039612 80.7401104 C-46.89756747 81.04371899 -62.33746248 77.9690077 -78.30859375 62.80859375 C-85.72247822 54.98660555 -89.37755997 46.55232436 -89.21484375 35.72265625 C-88.10262149 21.62776694 -83.36610227 10.6386565 -73 1 C-51.74219778 -14.89038372 -21.90078352 -14.33505831 0 0 Z " fill="#000000" transform="translate(229,87)"/>
<path d="M0 0 C3.76495877 1.7452436 5.91161524 3.82189343 8.6875 6.9375 C9.12537842 7.42694092 9.56325684 7.91638184 10.0144043 8.4206543 C12.87480859 11.64448119 15.61137526 14.95353677 18.3125 18.3125 C22.38748445 23.36836567 26.75231994 28.08187223 31.20019531 32.80566406 C35.24239798 37.12191437 38.995808 41.60485366 42.69140625 46.22265625 C45.35283968 49.42448226 48.15521794 52.46173174 51 55.5 C66 71.57535447 66 71.57535447 66 76 C65.19163696 75.78065796 65.19163696 75.78065796 64.36694336 75.55688477 C61.89159364 74.88782112 59.41458103 74.22512374 56.9375 73.5625 C56.08994141 73.33240234 55.24238281 73.10230469 54.36914062 72.86523438 C35.96050591 67.9610035 15.46706267 68.37289572 -3 73 C-3.66692871 73.16097168 -4.33385742 73.32194336 -5.02099609 73.48779297 C-42.87885967 82.85997751 -77.07213097 105.48609166 -106 131 C-106.53141602 131.46825195 -107.06283203 131.93650391 -107.61035156 132.41894531 C-113.14933941 137.32873091 -118.52108843 142.28448326 -123.28515625 147.96875 C-125.33370431 150.39527618 -127.47858142 152.7222341 -129.625 155.0625 C-132.278384 157.96730448 -134.59635405 160.79664872 -136.6875 164.125 C-139 167 -139 167 -142.3125 167.4375 C-143.199375 167.293125 -144.08625 167.14875 -145 167 C-143.29770523 162.87598826 -140.39910618 159.75612443 -137.5 156.4375 C-136.96463623 155.81834717 -136.42927246 155.19919434 -135.87768555 154.5612793 C-131.78164327 149.84357594 -127.57743723 145.23432054 -123.3515625 140.6328125 C-121.04114825 138.04606963 -118.85677495 135.39317748 -116.6875 132.6875 C-112.61251555 127.63163433 -108.24768006 122.91812777 -103.79980469 118.19433594 C-99.75760202 113.87808563 -96.004192 109.39514634 -92.30859375 104.77734375 C-89.64720542 101.57557201 -86.84537754 98.53765082 -84 95.5 C-80.35111551 91.60423719 -76.84301562 87.66665716 -73.5 83.5 C-69.16072656 78.09563218 -64.49603585 73.05044877 -59.7734375 67.984375 C-55.46894486 63.36646239 -51.35687595 58.59238393 -47.26171875 53.7890625 C-46.23716908 52.58837959 -45.21242354 51.38786379 -44.1875 50.1875 C-43.67018311 49.58131836 -43.15286621 48.97513672 -42.61987305 48.35058594 C-39.41497771 44.6092918 -36.14790722 40.93884617 -32.8125 37.3125 C-29.64169258 33.85984304 -26.61964969 30.34469034 -23.6875 26.6875 C-19.57427628 21.58622432 -15.18830514 16.79565832 -10.69213867 12.03393555 C-7.00429224 8.12254871 -3.46450571 4.11056196 0 0 Z " fill="black" transform="translate(150,0)"/>
<path d="M0 0 C2.6860879 -0.15921926 4.45785491 -0.0590195 6.99755859 0.88378906 C10.16192071 4.23246792 12.20415993 8.09158487 14.37255859 12.13378906 C15.56690304 14.24371233 16.76217981 16.35310819 17.95849609 18.46191406 C18.47202637 19.40454102 18.98555664 20.34716797 19.51464844 21.31835938 C20.9302017 23.8931103 20.9302017 23.8931103 22.6875 26.09765625 C23.99755859 27.88378906 23.99755859 27.88378906 23.99755859 29.88378906 C21.18505859 30.19628906 21.18505859 30.19628906 17.99755859 29.88378906 C17.55565186 29.06692627 17.11374512 28.25006348 16.65844727 27.40844727 C15.23730846 24.62776808 15.23730846 24.62776808 12.36206055 24.22436523 C11.33040771 24.20865479 10.29875488 24.19294434 9.23583984 24.17675781 C8.11757813 24.14775391 6.99931641 24.11875 5.84716797 24.08886719 C4.67992188 24.08306641 3.51267578 24.07726562 2.31005859 24.07128906 C0.54178711 24.03358398 0.54178711 24.03358398 -1.26220703 23.99511719 C-4.17595341 23.93613447 -7.08819369 23.89993536 -10.00244141 23.88378906 C-10.31181641 24.68816406 -10.62119141 25.49253906 -10.93994141 26.32128906 C-12.00244141 28.88378906 -12.00244141 28.88378906 -13.00244141 29.88378906 C-14.66861256 29.92442738 -16.33632235 29.92651006 -18.00244141 29.88378906 C-17.35440106 26.58386229 -16.13035115 24.15786795 -14.38525391 21.29394531 C-13.86060547 20.42705078 -13.33595703 19.56015625 -12.79541016 18.66699219 C-12.24498047 17.76916016 -11.69455078 16.87132812 -11.12744141 15.94628906 C-10.31339844 14.6053418 -10.31339844 14.6053418 -9.48291016 13.23730469 C-8.46719709 11.56473072 -7.44936891 9.89343798 -6.42871094 8.22387695 C-5.42010614 6.56905378 -4.47829964 4.87264731 -3.58642578 3.15209961 C-2.00244141 0.88378906 -2.00244141 0.88378906 0 0 Z " fill="black" transform="translate(19.00244140625,188.1162109375)"/>
<path d="M0 0 C2.79358599 0.21332838 3.93653438 0.63821835 5.9765625 2.5859375 C7.91915586 5.28347235 9.58170763 8.0607866 11.25 10.9375 C12.13474768 12.39833101 13.02160905 13.85788317 13.91015625 15.31640625 C15.7254613 18.32672872 17.5345597 21.34014198 19.30859375 24.375 C19.68298584 25.01308594 20.05737793 25.65117187 20.44311523 26.30859375 C21.25 27.9375 21.25 27.9375 21.25 29.9375 C18.9375 30.1875 18.9375 30.1875 16.25 29.9375 C14.27389614 27.89325462 13.25 26.8198175 13.25 23.9375 C9.14459549 23.96024586 5.04199441 24.03747934 0.9375 24.125 C-0.22974609 24.13080078 -1.39699219 24.13660156 -2.59960938 24.14257812 C-3.71787109 24.17158203 -4.83613281 24.20058594 -5.98828125 24.23046875 C-7.01993408 24.2461792 -8.05158691 24.26188965 -9.11450195 24.27807617 C-11.98974987 24.68147902 -11.98974987 24.68147902 -13.41088867 27.4621582 C-13.85279541 28.279021 -14.29470215 29.09588379 -14.75 29.9375 C-17.9375 30.25 -17.9375 30.25 -20.75 29.9375 C-19.47344032 26.52333156 -18.0012571 23.53523796 -16.03515625 20.46875 C-15.51373047 19.65019531 -14.99230469 18.83164063 -14.45507812 17.98828125 C-13.91302734 17.14652344 -13.37097656 16.30476562 -12.8125 15.4375 C-11.74043103 13.7607071 -10.66880332 12.08363197 -9.59765625 10.40625 C-8.84427979 9.23848022 -8.84427979 9.23848022 -8.07568359 8.04711914 C-7.02208173 6.37047573 -6.04882335 4.64340438 -5.10546875 2.90234375 C-3.75 0.9375 -3.75 0.9375 0 0 Z " fill="black" transform="translate(276.75,188.0625)"/>
<path d="M0 0 C1.28003906 -0.02449219 2.56007813 -0.04898438 3.87890625 -0.07421875 C5.11253906 -0.07808594 6.34617187 -0.08195313 7.6171875 -0.0859375 C8.74495605 -0.09415527 9.87272461 -0.10237305 11.03466797 -0.11083984 C14.80979113 0.48265795 16.48050334 1.65349696 19.125 4.375 C19.4375 7.625 19.4375 7.625 19.125 10.375 C17.475 10.375 15.825 10.375 14.125 10.375 C13.9703125 9.4159375 13.9703125 9.4159375 13.8125 8.4375 C13.585625 7.756875 13.35875 7.07625 13.125 6.375 C10.06580612 5.35526871 8.00081975 5.25966398 4.80078125 5.27734375 C3.25874023 5.28217773 3.25874023 5.28217773 1.68554688 5.28710938 C0.07776367 5.29967773 0.07776367 5.29967773 -1.5625 5.3125 C-3.18768555 5.31926758 -3.18768555 5.31926758 -4.84570312 5.32617188 C-7.52219085 5.33796257 -10.19856777 5.35441937 -12.875 5.375 C-12.90217692 7.43742617 -12.9214758 9.49995703 -12.9375 11.5625 C-12.94910156 12.71105469 -12.96070312 13.85960937 -12.97265625 15.04296875 C-12.95906102 18.67968375 -12.95906102 18.67968375 -11.875 23.375 C-3.295 23.375 5.285 23.375 14.125 23.375 C14.125 21.725 14.125 20.075 14.125 18.375 C8.845 18.375 3.565 18.375 -1.875 18.375 C-1.875 16.725 -1.875 15.075 -1.875 13.375 C5.055 13.375 11.985 13.375 19.125 13.375 C20.0187061 16.9498244 20.23436137 18.47468681 19.625 21.9375 C19.5115625 22.70191406 19.398125 23.46632812 19.28125 24.25390625 C17.82443738 26.92636994 16.14108951 27.79180442 13.32714844 28.84106445 C8.92639154 29.90807724 4.50244258 29.76244079 0 29.6875 C-0.97582031 29.69072266 -1.95164062 29.69394531 -2.95703125 29.69726562 C-7.76889231 29.66116026 -11.47535546 29.51330677 -15.875 27.375 C-19.19225699 23.38561905 -19.25347786 19.95021965 -19.1875 14.875 C-19.18363281 13.5859375 -19.17976563 12.296875 -19.17578125 10.96875 C-18.89317556 7.59216254 -18.47950088 5.33715547 -16.875 2.375 C-11.82743243 -0.99004504 -5.92794001 0.00593387 0 0 Z " fill="black" transform="translate(110.875,188.625)"/>
<path d="M0 0 C1.56911133 -0.04350586 1.56911133 -0.04350586 3.16992188 -0.08789062 C10.88079652 -0.15169799 10.88079652 -0.15169799 14.8984375 2.16015625 C16.6875 4.3125 16.6875 4.3125 17 7.0625 C16.896875 7.805 16.79375 8.5475 16.6875 9.3125 C15.0375 9.3125 13.3875 9.3125 11.6875 9.3125 C11.3575 8.3225 11.0275 7.3325 10.6875 6.3125 C8.28690183 5.11220092 6.79389351 5.19790257 4.1171875 5.21484375 C2.77333984 5.21967773 2.77333984 5.21967773 1.40234375 5.22460938 C0.46519531 5.23298828 -0.47195312 5.24136719 -1.4375 5.25 C-2.85482422 5.25676758 -2.85482422 5.25676758 -4.30078125 5.26367188 C-6.63808387 5.27547643 -8.97526061 5.29194241 -11.3125 5.3125 C-11.3125 7.2925 -11.3125 9.2725 -11.3125 11.3125 C-10.61165283 11.3218457 -9.91080566 11.33119141 -9.1887207 11.34082031 C-6.00010975 11.39464544 -2.81294667 11.47826936 0.375 11.5625 C1.47779297 11.57667969 2.58058594 11.59085938 3.71679688 11.60546875 C11.85754293 11.85141274 11.85754293 11.85141274 15.921875 14.109375 C18.32615434 17.10940497 18.35489723 18.70307683 18.11328125 22.41015625 C17.45231835 25.36326572 16.13240139 26.61465181 13.6875 28.3125 C8.98124417 29.80861105 4.13962429 29.53583538 -0.75 29.5625 C-2.16249023 29.5934375 -2.16249023 29.5934375 -3.60351562 29.625 C-12.60442418 29.6758167 -12.60442418 29.6758167 -16.3125 26.3125 C-17.125 22.625 -17.125 22.625 -17.3125 19.3125 C-15.6625 19.3125 -14.0125 19.3125 -12.3125 19.3125 C-11.9825 20.6325 -11.6525 21.9525 -11.3125 23.3125 C-0.28371426 24.32275932 -0.28371426 24.32275932 10.6875 23.3125 C11.0175 21.6625 11.3475 20.0125 11.6875 18.3125 C9.75197266 18.23902344 9.75197266 18.23902344 7.77734375 18.1640625 C6.05987653 18.08898197 4.34242959 18.01343646 2.625 17.9375 C1.77744141 17.9065625 0.92988281 17.875625 0.05664062 17.84375 C-5.67184442 17.57833757 -11.24295859 17.19383183 -16.25 14.125 C-18.01704606 11.1106273 -17.73006009 8.71263216 -17.3125 5.3125 C-12.47800023 -0.81119971 -7.25917136 0.0663544 0 0 Z " fill="black" transform="translate(201.3125,188.6875)"/>
<path d="M0 0 C1.98 0 3.96 0 6 0 C6.33 7.59 6.66 15.18 7 23 C14.92 23 22.84 23 31 23 C31.33 15.41 31.66 7.82 32 0 C33.98 0 35.96 0 38 0 C38.25815035 23.37694804 38.25815035 23.37694804 35.70703125 26.66796875 C31.04983022 30.30207756 24.14954423 29.22232424 18.5625 29.25 C17.52544922 29.270625 16.48839844 29.29125 15.41992188 29.3125 C5.56056101 29.36315824 5.56056101 29.36315824 2 26 C0.32001062 22.51660705 -0.24255224 19.76800758 -0.1953125 15.91796875 C-0.18886719 14.98662109 -0.18242187 14.05527344 -0.17578125 13.09570312 C-0.15902344 12.13599609 -0.14226562 11.17628906 -0.125 10.1875 C-0.11597656 9.20845703 -0.10695312 8.22941406 -0.09765625 7.22070312 C-0.07417182 4.81354939 -0.0413284 2.40690257 0 0 Z " fill="black" transform="translate(138,189)"/>
<path d="M0 0 C1.65 0 3.3 0 5 0 C5.33 7.59 5.66 15.18 6 23 C13.92 23 21.84 23 30 23 C31.20270964 20.59458071 31.20316663 18.89633409 31.31640625 16.2109375 C31.35830078 15.26992187 31.40019531 14.32890625 31.44335938 13.359375 C31.48267578 12.37453125 31.52199219 11.3896875 31.5625 10.375 C31.60568359 9.38242188 31.64886719 8.38984375 31.69335938 7.3671875 C31.79961069 4.91160162 31.90164964 2.45591297 32 0 C33.65 0 35.3 0 37 0 C37.05811773 3.74993479 37.09363593 7.49975352 37.125 11.25 C37.14175781 12.31347656 37.15851563 13.37695312 37.17578125 14.47265625 C37.18544922 16.00986328 37.18544922 16.00986328 37.1953125 17.578125 C37.21102295 18.99206543 37.21102295 18.99206543 37.22705078 20.43457031 C36.98711037 23.14563892 36.48642123 24.73327926 35 27 C29.63694777 29.72026405 23.80692867 29.29649052 17.9375 29.25 C16.46700195 29.26160156 16.46700195 29.26160156 14.96679688 29.2734375 C14.01740234 29.27085937 13.06800781 29.26828125 12.08984375 29.265625 C11.23253662 29.26336914 10.37522949 29.26111328 9.49194336 29.25878906 C6.64347407 28.96297468 4.5524732 28.29555101 2 27 C-0.26598448 23.60102327 -0.23742654 22.43680827 -0.1953125 18.45703125 C-0.18886719 17.38388672 -0.18242188 16.31074219 -0.17578125 15.20507812 C-0.15064453 13.52575195 -0.15064453 13.52575195 -0.125 11.8125 C-0.11597656 10.68134766 -0.10695312 9.55019531 -0.09765625 8.38476562 C-0.07406862 5.58963172 -0.041153 2.79492155 0 0 Z " fill="black" transform="translate(47,189)"/>
<path d="M0 0 C11.88 0 23.76 0 36 0 C36 1.32 36 2.64 36 4 C31.05 4 26.1 4 21 4 C21 12.25 21 20.5 21 29 C19.35 29 17.7 29 16 29 C16 20.75 16 12.5 16 4 C10.72 4 5.44 4 0 4 C0 2.68 0 1.36 0 0 Z " fill="black" transform="translate(224,189)"/>
<path d="M0 0 C2.475 0.495 2.475 0.495 5 1 C5.33 2.65 5.66 4.3 6 6 C6.66 4.02 7.32 2.04 8 0 C9.65 0.33 11.3 0.66 13 1 C13.33 2.32 13.66 3.64 14 5 C14.66 3.35 15.32 1.7 16 0 C17.32 0 18.64 0 20 0 C19.48517081 5.852795 18.54642808 11.3297637 17 17 C15.35 17 13.7 17 12 17 C11.34 15.02 10.68 13.04 10 11 C9.34 12.98 8.68 14.96 8 17 C6.35 16.67 4.7 16.34 3 16 C2.49193553 14.27318563 1.99389533 12.54342021 1.5 10.8125 C1.08234375 9.36810547 1.08234375 9.36810547 0.65625 7.89453125 C0.03322392 5.14654124 -0.12302812 2.80401584 0 0 Z " fill="black" transform="translate(187,229)"/>
<path d="M0 0 C3.5 0.5625 3.5 0.5625 5.9375 2 C8.25587974 5.80214277 8.27201236 9.22490478 7.5 13.5625 C5.9375 16.125 5.9375 16.125 3.5 17.5625 C0 18.125 0 18.125 -3.5 17.5625 C-6.69688909 14.85744 -7.40802205 13.20634566 -8 9.0625 C-7.21014765 3.53353357 -5.66832524 0.91098084 0 0 Z " fill="black" transform="translate(69.5,228.4375)"/>
<path d="M0 0 C1.5675 -0.061875 3.135 -0.12375 4.75 -0.1875 C6.07257813 -0.23970703 6.07257813 -0.23970703 7.421875 -0.29296875 C10.44671583 0.05076316 11.75583602 1.00227459 14 3 C13.125 8.75 13.125 8.75 12 11 C12.60578253 13.01927511 13.26919734 15.02253397 14 17 C11.625 17.1875 11.625 17.1875 9 17 C7 14 7 14 7 11 C6.34 11 5.68 11 5 11 C5 12.98 5 14.96 5 17 C3.35 17 1.7 17 0 17 C0 11.39 0 5.78 0 0 Z " fill="black" transform="translate(94,229)"/>
<path d="M0 0 C9.625 -0.25 9.625 -0.25 13 2 C13.29071481 5.41589896 13.08719244 7.73842267 12 11 C12.27571139 13.00875442 12.60235737 15.01178687 13 17 C11.35 17 9.7 17 8 17 C7.67 15.02 7.34 13.04 7 11 C6.01 11 5.02 11 4 11 C4 12.98 4 14.96 4 17 C2.68 17 1.36 17 0 17 C0 11.39 0 5.78 0 0 Z " fill="black" transform="translate(287,229)"/>
<path d="M0 0 C2.73255991 0.06447056 3.77132266 0.11231558 6.0625 1.6875 C7.0625 3.3125 7.0625 3.3125 7.0625 5.3125 C6.0725 5.9725 5.0825 6.6325 4.0625 7.3125 C5.0525 7.9725 6.0425 8.6325 7.0625 9.3125 C6.80688677 11.6556213 6.46979228 13.99093403 6.0625 16.3125 C2.88387696 17.90181152 -0.47661302 17.71591627 -3.9375 17.3125 C-5.9375 16 -5.9375 16 -6.9375 14.3125 C-6.9375 13.3225 -6.9375 12.3325 -6.9375 11.3125 C-3.91330475 11.90053797 -0.91991547 12.53928118 2.0625 13.3125 C2.0625 12.6525 2.0625 11.9925 2.0625 11.3125 C1.134375 11.209375 0.20625 11.10625 -0.75 11 C-3.9375 10.3125 -3.9375 10.3125 -5.875 9.0625 C-6.9375 7.3125 -6.9375 7.3125 -6.75 4.75 C-5.36351118 0.59053353 -4.41600087 0.35047626 0 0 Z M-1.9375 4.3125 C-1.6075 4.9725 -1.2775 5.6325 -0.9375 6.3125 C0.0525 6.3125 1.0425 6.3125 2.0625 6.3125 C2.0625 5.6525 2.0625 4.9925 2.0625 4.3125 C0.7425 4.3125 -0.5775 4.3125 -1.9375 4.3125 Z " fill="black" transform="translate(161.9375,228.6875)"/>
<path d="M0 0 C1.828125 0.06640625 1.828125 0.06640625 4 1 C5.921875 3.65234375 5.921875 3.65234375 7.75 6.9375 C8.36359375 8.01902344 8.9771875 9.10054687 9.609375 10.21484375 C11 13 11 13 11 15 C4.4 15 -2.2 15 -9 15 C-7.700625 12.710625 -6.40125 10.42125 -5.0625 8.0625 C-4.65394775 7.34070557 -4.24539551 6.61891113 -3.82446289 5.87524414 C-1.11111111 1.11111111 -1.11111111 1.11111111 0 0 Z " fill="lightgray" transform="translate(276,193)"/>
<path d="M0 0 C4.29 0 8.58 0 13 0 C13 1.32 13 2.64 13 4 C10.36 4 7.72 4 5 4 C5 4.66 5 5.32 5 6 C6.98 6 8.96 6 11 6 C11 7.32 11 8.64 11 10 C9.02 10 7.04 10 5 10 C5 10.99 5 11.98 5 13 C7.64 13 10.28 13 13 13 C13 14.32 13 15.64 13 17 C8.71 17 4.42 17 0 17 C0 11.39 0 5.78 0 0 Z " fill="black" transform="translate(226,229)"/>
<path d="M0 0 C0.99 0.66 1.98 1.32 3 2 C3 2.99 3 3.98 3 5 C2.34 5.66 1.68 6.32 1 7 C1.515625 7.391875 2.03125 7.78375 2.5625 8.1875 C4 10 4 10 3.8125 12.5625 C3 15 3 15 1 17 C-6.30434783 17.46376812 -6.30434783 17.46376812 -10 15 C-10 13.68 -10 12.36 -10 11 C-8.68 11 -7.36 11 -6 11 C-6 11.66 -6 12.32 -6 13 C-4.68 12.67 -3.36 12.34 -2 12 C-3.134375 11.62875 -4.26875 11.2575 -5.4375 10.875 C-7.36328125 10.0546875 -7.36328125 10.0546875 -9 9 C-10.125 6 -10.125 6 -10 3 C-7.82784818 -1.07278466 -4.15124957 -0.37064728 0 0 Z M-5 4 C-5 4.66 -5 5.32 -5 6 C-3.68 6 -2.36 6 -1 6 C-1 5.34 -1 4.68 -1 4 C-2.32 4 -3.64 4 -5 4 Z " fill="black" transform="translate(10,229)"/>
<path d="M0 0 C1.734375 0.09375 1.734375 0.09375 4 1 C5.58865224 3.15685633 6.92719926 5.19244761 8.25 7.5 C8.61351563 8.10714844 8.97703125 8.71429688 9.3515625 9.33984375 C12 13.8103266 12 13.8103266 12 15 C5.4 15 -1.2 15 -8 15 C-6.47489648 11.18724121 -4.99242873 8.13982945 -2.875 4.6875 C-2.33617187 3.80449219 -1.79734375 2.92148438 -1.2421875 2.01171875 C-0.83226562 1.34785156 -0.42234375 0.68398437 0 0 Z " fill="lightgray" transform="translate(20,193)"/>
<path d="M0 0 C1.588125 -0.061875 3.17625 -0.12375 4.8125 -0.1875 C6.15248047 -0.23970703 6.15248047 -0.23970703 7.51953125 -0.29296875 C10 0 10 0 11.84375 1.28125 C13 3 13 3 12.6875 6.6875 C12.460625 7.780625 12.23375 8.87375 12 10 C9.69 10.33 7.38 10.66 5 11 C5 12.98 5 14.96 5 17 C3.35 17 1.7 17 0 17 C0 11.39 0 5.78 0 0 Z " fill="black" transform="translate(32,229)"/>
<path d="M0 0 C1.65 0 3.3 0 5 0 C7.45417612 5.673142 9.46246904 10.81839396 10 17 C8.35 17 6.7 17 5 17 C4.67 16.01 4.34 15.02 4 14 C3.01 14 2.02 14 1 14 C0.67 14.99 0.34 15.98 0 17 C-1.65 17 -3.3 17 -5 17 C-3.35 11.39 -1.7 5.78 0 0 Z " fill="black" transform="translate(259,229)"/>
<path d="M0 0 C3.96 0 7.92 0 12 0 C12 1.32 12 2.64 12 4 C11.01 4 10.02 4 9 4 C9 8.29 9 12.58 9 17 C7.35 17 5.7 17 4 17 C4 12.71 4 8.42 4 4 C2.68 4 1.36 4 0 4 C0 2.68 0 1.36 0 0 Z " fill="black" transform="translate(125,229)"/>
<path d="M0 0 C3.69230769 0.69230769 3.69230769 0.69230769 5 2 C5.1875 5.4375 5.1875 5.4375 5 9 C4.34 9.66 3.68 10.32 3 11 C0.875 10.625 0.875 10.625 -1 10 C-1.02689216 8.52093108 -1.04634621 7.04172517 -1.0625 5.5625 C-1.07410156 4.73878906 -1.08570312 3.91507813 -1.09765625 3.06640625 C-1 1 -1 1 0 0 Z " fill="lightgray" transform="translate(68,232)"/>
<path d="M0 0 C2.475 0.495 2.475 0.495 5 1 C4.67 2.32 4.34 3.64 4 5 C2.68 5 1.36 5 0 5 C0 3.35 0 1.7 0 0 Z " fill="lightgray" transform="translate(291,232)"/>
<path d="M0 0 C2.475 0.495 2.475 0.495 5 1 C4.67 2.32 4.34 3.64 4 5 C2.68 5 1.36 5 0 5 C0 3.35 0 1.7 0 0 Z " fill="lightgray" transform="translate(98,232)"/>
<path d="M0 0 C1.65 0 3.3 0 5 0 C4.67 1.32 4.34 2.64 4 4 C2.68 4 1.36 4 0 4 C0 2.68 0 1.36 0 0 Z " fill="lightgray" transform="translate(36,233)"/>
</svg>
