<?xml version="1.0" encoding="UTF-8"?>
<svg version="1.1" xmlns="http://www.w3.org/2000/svg" width="512" height="512">
<path d="M0 0 C168.96 0 337.92 0 512 0 C512 9.9 512 19.8 512 30 C491.87 30 471.74 30 451 30 C451 39.9 451 49.8 451 60 C471.13 60 491.26 60 512 60 C512 159 512 258 512 360 C343.04 360 174.08 360 0 360 C0 261 0 162 0 60 C20.13 60 40.26 60 61 60 C61 50.1 61 40.2 61 30 C40.87 30 20.74 30 0 30 C0 20.1 0 10.2 0 0 Z M91 30 C91 39.9 91 49.8 91 60 C120.7 60 150.4 60 181 60 C181 50.1 181 40.2 181 30 C151.3 30 121.6 30 91 30 Z M211 30 C211 39.9 211 49.8 211 60 C240.7 60 270.4 60 301 60 C301 50.1 301 40.2 301 30 C271.3 30 241.6 30 211 30 Z M331 30 C331 39.9 331 49.8 331 60 C360.7 60 390.4 60 421 60 C421 50.1 421 40.2 421 30 C391.3 30 361.6 30 331 30 Z M30 90 C30 169.2 30 248.4 30 330 C179.16 330 328.32 330 482 330 C482 250.8 482 171.6 482 90 C332.84 90 183.68 90 30 90 Z " fill="#000000" transform="translate(0,76)"/>
<path d="M0 0 C3.11678887 2.64613511 4.69536682 5.97424995 6.47380066 9.57337952 C6.81121523 10.24423425 7.1486298 10.91508898 7.49626905 11.60627264 C8.62588109 13.85586902 9.74686132 16.1096558 10.86791992 18.36352539 C11.6757302 19.9767182 12.48405692 21.58965249 13.29286194 23.2023468 C15.48824646 27.58370249 17.67607461 31.96879175 19.86236739 36.35468984 C22.14875276 40.93876414 24.44129692 45.51975682 26.73298645 50.10118103 C30.57966124 57.79364747 34.4215412 65.48849372 38.26049805 73.18481445 C42.70398443 82.09297012 47.15453706 90.99756688 51.60899276 99.90024191 C55.88905791 108.45468587 60.16459336 117.01138556 64.43789101 125.56921196 C66.25906497 129.21621399 68.08175345 132.86245321 69.90563011 136.50810432 C72.05077089 140.79650793 74.19192557 145.08687818 76.32996178 149.37882805 C77.11710957 150.95738064 77.90563044 152.53524936 78.69559097 154.11239624 C79.76981516 156.2576427 80.83912191 158.40526798 81.90715027 160.55360413 C82.22416167 161.1838476 82.54117307 161.81409108 82.86779088 162.46343285 C85 166.77167057 85 166.77167057 85 169 C14.38 169 -56.24 169 -129 169 C-127.58382624 164.75147872 -126.22846071 161.20890445 -124.25387573 157.26724243 C-123.69579224 156.14832611 -123.13770874 155.02940979 -122.56271362 153.87658691 C-121.94666874 152.65157386 -121.33054679 151.42659956 -120.71435547 150.20166016 C-120.06347859 148.90047101 -119.41295471 147.59910523 -118.76275635 146.2975769 C-117.00204583 142.77558329 -115.23642163 139.25607389 -113.46989202 135.73699617 C-111.62257741 132.05489012 -109.77980942 128.37051008 -107.93655396 124.68637085 C-104.44781293 117.71509889 -100.95499918 110.74587588 -97.46071064 103.77738321 C-93.48176039 95.84185633 -89.50736635 87.90405074 -85.53334975 79.96605229 C-77.36062674 63.64149762 -69.18219821 47.3198074 -61 31 C-60.01 31 -59.02 31 -58 31 C-55.14611007 36.65719444 -52.29841902 42.31747674 -49.45507812 47.97998047 C-48.48646254 49.90713544 -47.51641418 51.83357095 -46.54492188 53.75927734 C-45.15119859 56.52254709 -43.76259769 59.28833774 -42.375 62.0546875 C-41.93752441 62.9193161 -41.50004883 63.7839447 -41.04931641 64.67477417 C-40.64890137 65.47545319 -40.24848633 66.2761322 -39.8359375 67.10107422 C-39.30299072 68.16030594 -39.30299072 68.16030594 -38.75927734 69.24093628 C-38 71 -38 71 -38 73 C-37.34 73 -36.68 73 -36 73 C-35.73683487 72.14867996 -35.47366974 71.29735992 -35.20252991 70.42024231 C-33.95548104 66.87337891 -32.44231485 63.63756659 -30.75952148 60.27612305 C-30.2786911 59.31161476 -30.2786911 59.31161476 -29.78814697 58.32762146 C-28.73635162 56.22035056 -27.6788589 54.11599853 -26.62109375 52.01171875 C-25.88618768 50.54309958 -25.15157804 49.07433204 -24.41725159 47.60542297 C-22.88228637 44.53705238 -21.34465249 41.47003961 -19.80493164 38.40405273 C-17.82797188 34.4671883 -15.85634156 30.52768476 -13.88650417 26.58725262 C-12.37229561 23.55910675 -10.85600851 20.53200579 -9.33900642 17.50525856 C-8.61086996 16.05217393 -7.8832221 14.59884436 -7.15606499 13.14526939 C-6.14308318 11.12146389 -5.12748334 9.09899511 -4.11108398 7.0769043 C-3.53309555 5.92473923 -2.95510712 4.77257416 -2.35960388 3.585495 C-1 1 -1 1 0 0 Z M0 69 C-2.74478597 74.29158488 -5.46823356 79.59340943 -8.17260742 84.90576172 C-9.0952247 86.71080498 -10.02356985 88.51293259 -10.95776367 90.31201172 C-12.30088404 92.90103884 -13.6229444 95.49990949 -14.94140625 98.1015625 C-15.36216934 98.9017984 -15.78293243 99.7020343 -16.21644592 100.52651978 C-18.49862401 105.08725149 -19.67544329 107.93178404 -18 113 C-17.09484234 115.12482928 -16.10773944 117.21588964 -15.05859375 119.2734375 C-14.27053345 120.83457275 -14.27053345 120.83457275 -13.46655273 122.42724609 C-12.46217163 124.38138428 -12.46217163 124.38138428 -11.4375 126.375 C-9.313125 130.54125 -7.18875 134.7075 -5 139 C8.2 139 21.4 139 35 139 C33.49051382 134.47154145 31.95385075 130.66397038 29.83544922 126.44384766 C29.52304291 125.81874298 29.2106366 125.19363831 28.88876343 124.54959106 C27.86452293 122.50249333 26.83465997 120.45828139 25.8046875 118.4140625 C25.08974814 116.98791747 24.37516393 115.56159435 23.66091919 114.13510132 C21.78704685 110.39496499 19.90838064 106.65725703 18.02868652 102.92004395 C16.10865619 99.10050207 14.19319619 95.27866992 12.27734375 91.45703125 C8.52268404 83.96911237 4.7629539 76.48375416 1 69 C0.67 69 0.34 69 0 69 Z M-60 99 C-62.71097513 104.37261841 -65.41674929 109.74781116 -68.11767578 115.12548828 C-69.03778854 116.95563839 -69.9593341 118.78506886 -70.88232422 120.61376953 C-72.20655035 123.23804151 -73.5256508 125.86483392 -74.84375 128.4921875 C-75.25935181 129.31306854 -75.67495361 130.13394958 -76.10314941 130.97970581 C-76.4835437 131.74034332 -76.86393799 132.50098083 -77.25585938 133.28466797 C-77.59339233 133.95529266 -77.93092529 134.62591736 -78.27868652 135.31686401 C-79.13130174 137.00118613 -79.13130174 137.00118613 -79 139 C-66.13 139 -53.26 139 -40 139 C-41.66869466 133.94027848 -41.66869466 133.94027848 -43.78759766 129.19775391 C-44.29790024 128.17737534 -44.29790024 128.17737534 -44.81851196 127.13638306 C-45.18004364 126.42364227 -45.54157532 125.71090149 -45.9140625 124.9765625 C-46.28856537 124.23038666 -46.66306824 123.48421082 -47.04891968 122.71542358 C-48.23717966 120.35003203 -49.43099382 117.9874953 -50.625 115.625 C-51.43526526 114.01450873 -52.24516498 112.40383349 -53.0546875 110.79296875 C-55.03223454 106.85983766 -57.01476516 102.92925592 -59 99 C-59.33 99 -59.66 99 -60 99 Z " fill="#000000" transform="translate(188,207)"/>
<path d="M0 0 C49.5 0 99 0 150 0 C150 9.9 150 19.8 150 30 C100.5 30 51 30 0 30 C0 20.1 0 10.2 0 0 Z " fill="#000000" transform="translate(301,346)"/>
<path d="M0 0 C49.5 0 99 0 150 0 C150 9.9 150 19.8 150 30 C100.5 30 51 30 0 30 C0 20.1 0 10.2 0 0 Z " fill="#000000" transform="translate(301,286)"/>
<path d="M0 0 C49.5 0 99 0 150 0 C150 9.9 150 19.8 150 30 C100.5 30 51 30 0 30 C0 20.1 0 10.2 0 0 Z " fill="#000000" transform="translate(301,226)"/>
</svg>
