<?xml version="1.0" encoding="UTF-8"?>
<svg version="1.1" xmlns="http://www.w3.org/2000/svg" width="512" height="512">
<path d="M0 0 C9.23176502 0.54715843 18.15748819 2.24059789 27.1875 4.125 C27.93266876 4.27928467 28.67783752 4.43356934 29.44558716 4.5925293 C42.84569246 7.38282353 55.98787 10.72638455 69 15 C70.26021973 15.40919678 70.26021973 15.40919678 71.54589844 15.82666016 C91.87017833 22.53599575 115.32552157 32.155962 126.0546875 51.9453125 C130.3435645 61.3808419 129.56322247 70.46669913 126 80 C113.63584506 103.91943993 83.41617117 113.658294 60.0625 123.125 C38.44737923 130.98547014 38.44737923 130.98547014 21.86328125 145.953125 C20.51146453 149.1583375 20.57830364 151.56618682 21 155 C30.32544009 167.33364656 49.50724667 173.46645694 63.4375 178.75 C64.78140394 179.26592431 66.12523358 179.78204221 67.46899414 180.29833984 C76.90191391 183.90478036 86.40517401 187.29216985 95.9375 190.625 C163.48340516 214.25656222 163.48340516 214.25656222 174.99609375 236.75 C178.37130052 244.31466576 178.79457483 251.39311596 176.24609375 259.35546875 C163.24840185 290.95236832 122.09348636 307.7519581 93 320 C37.14505788 342.87024735 -27.76619998 362.74325 -88.65234375 363.23828125 C-89.63255997 363.246353 -90.61277618 363.25442474 -91.62269592 363.26274109 C-93.68570243 363.27647092 -95.7487306 363.28724183 -97.81176758 363.29516602 C-99.87954581 363.30663304 -101.9472957 363.32700004 -104.01489258 363.35668945 C-143.95383644 363.92756472 -143.95383644 363.92756472 -156.8515625 352.3359375 C-160.64878234 348.25077682 -162.96082973 344.36864295 -163.02734375 338.6484375 C-162.63882789 332.0536299 -161.1607924 326.82458204 -156.14086914 322.33862305 C-149.91413392 317.45104606 -143.39717735 313.78927839 -136.37304688 310.18359375 C-130.54122827 307.0990698 -125.77103053 303.557303 -121 299 C-129.5524321 298.79789243 -137.68506656 299.24640242 -146.125 300.625 C-147.22956543 300.8003125 -148.33413086 300.975625 -149.47216797 301.15625 C-163.78882158 303.51243591 -178.01180016 306.61348194 -192.04296875 310.30859375 C-192.77821777 310.50130859 -193.5134668 310.69402344 -194.27099609 310.89257812 C-196.13916433 311.39123293 -198.00157435 311.91133274 -199.86328125 312.43359375 C-203.27711475 313.0500394 -205.65340838 312.86178325 -209 312 C-212.02706748 309.84918889 -212.87395791 308.74049726 -213.5 305.0625 C-212.87225713 301.21757495 -211.70782274 299.78079636 -209 297 C-206.02099609 295.77734375 -206.02099609 295.77734375 -202.5234375 294.9375 C-201.57206406 294.70185837 -201.57206406 294.70185837 -200.60147095 294.4614563 C-198.5301605 293.9546346 -196.4534803 293.47648697 -194.375 293 C-192.93077697 292.6556757 -191.48676827 292.31045128 -190.04296875 291.96435547 C-177.11121192 288.89855811 -164.1057738 286.21109681 -151 284 C-150.22817383 283.86867676 -149.45634766 283.73735352 -148.66113281 283.60205078 C-140.64496629 282.28692728 -132.67237854 281.79858401 -124.5625 281.6875 C-123.74539551 281.66969482 -122.92829102 281.65188965 -122.08642578 281.63354492 C-115.34311697 281.64248101 -108.81446549 282.67806597 -103.5 287.0625 C-101.05114188 290.22560841 -100.58447843 292.63263087 -100.671875 296.66015625 C-101.78175236 304.57463882 -106.65591746 310.53252984 -112.578125 315.56640625 C-119.43544859 320.69214781 -127.21625938 324.5832164 -134.70507812 328.68994141 C-136.71218608 329.83570112 -138.61473409 331.04385402 -140.515625 332.35546875 C-143 334 -143 334 -145 334 C-145.33 335.65 -145.66 337.3 -146 339 C-132.61875007 347.08450516 -116.24779559 346.50752499 -101.125 346.375 C-100.1778009 346.37034729 -99.23060181 346.36569458 -98.25469971 346.36090088 C-82.98810542 346.27320429 -68.08344762 345.48441263 -53 343 C-51.79988281 342.81195801 -50.59976563 342.62391602 -49.36328125 342.43017578 C13.36774328 332.4639349 114.04610365 313.16775407 155.9140625 261.64453125 C158.75436462 257.62637873 161.11011708 254.06538562 161 249 C157.00142645 236.55999338 146.18109337 230.67827948 135.21875 224.99609375 C119.17174059 217.01789683 102.0845783 211.17700425 85.24609375 205.12109375 C84.29407578 204.77789093 83.3420578 204.43468811 82.3611908 204.08108521 C77.60619954 202.36722879 72.84863028 200.6615583 68.0847168 198.97265625 C15.47468163 180.17664048 15.47468163 180.17664048 5.12890625 161.54296875 C2.13145568 154.79092612 2.43763694 147.86474942 5 141 C15.81142321 119.30181265 43.01681005 111.20977713 63.97436523 102.58837891 C91.7900001 92.12190007 91.7900001 92.12190007 111.0625 71.0625 C112.52136092 66.37395957 111.93816396 62.46483923 110 58 C97.01004431 36.45866282 58.02903536 29.01145517 35.77929688 23.49975586 C23.60366746 20.5720218 11.32422966 18.20739408 -1 16 C-1.02692484 13.70839681 -1.04636124 11.41670454 -1.0625 9.125 C-1.07410156 7.84882812 -1.08570313 6.57265625 -1.09765625 5.2578125 C-1 2 -1 2 0 0 Z " fill="black" transform="translate(301,93)"/>
<path d="M0 0 C5.60727194 4.12910221 8.87156031 10.31337379 11.04296875 16.8203125 C12.07837021 23.89582084 12.08972906 30.76870596 11.53662109 37.87768555 C11.46959488 38.83210918 11.40256866 39.78653282 11.33351135 40.76987839 C11.10728672 43.95794951 10.86817911 47.14491482 10.62890625 50.33203125 C10.46055027 52.6601121 10.2928982 54.98824394 10.12588501 57.31642151 C9.71309588 63.0377258 9.29147458 68.75833032 8.86563838 74.47867733 C8.5159143 79.17941613 8.17026064 83.88043919 7.82714844 88.58166504 C4.04226305 140.42194467 0.04986324 192.24679784 -3.95703125 244.0703125 C-4.06628355 245.48380517 -4.06628355 245.48380517 -4.17774296 246.92585325 C-5.09483799 258.79087101 -6.01429057 270.65570233 -6.93788528 282.52021599 C-7.19844585 285.8674376 -7.4584109 289.21470459 -7.71784592 292.56201363 C-8.01887113 296.44487137 -8.32139916 300.32760914 -8.62511706 304.21025717 C-8.73496282 305.61732524 -8.84432047 307.02443152 -8.95313191 308.43157995 C-9.27278277 312.56249571 -9.60629957 316.69191998 -9.95703125 320.8203125 C-10.03383118 321.74527275 -10.1106311 322.670233 -10.1897583 323.62322235 C-10.74602523 329.51887533 -10.74602523 329.51887533 -12.70703125 332.3203125 C-15.32627412 334.06647442 -16.79852332 334.74510993 -19.95703125 334.8203125 C-25.59558547 332.54320407 -25.59558547 332.54320407 -26.95703125 329.8203125 C-27.15016093 328.44297005 -27.29251976 327.05833258 -27.40853882 325.67236328 C-27.48427502 324.78981873 -27.56001122 323.90727417 -27.63804245 322.99798584 C-27.75799513 321.52171722 -27.75799513 321.52171722 -27.88037109 320.015625 C-27.96898029 318.96183655 -28.05758949 317.9080481 -28.14888382 316.82232666 C-28.45175297 313.19703955 -28.74765288 309.57122235 -29.04296875 305.9453125 C-29.2051039 303.97761928 -29.3672402 302.00992615 -29.52943981 300.04223824 C-32.82607064 259.9775735 -35.80371958 219.8867801 -38.82827163 179.80089378 C-39.49995478 170.90118609 -40.1745282 162.00169932 -40.84983981 153.10226631 C-41.59624359 143.26517466 -42.34072471 133.42793835 -43.08436203 123.59063721 C-43.39390335 119.49615123 -43.70403881 115.401711 -44.01472855 111.30731201 C-44.86991098 100.03101627 -45.71412594 88.75398819 -46.54108429 77.47558594 C-46.82766746 73.56842413 -47.11819306 69.66157819 -47.41106415 65.75488281 C-47.78984758 60.69331401 -48.15898059 55.631118 -48.52171397 50.56837463 C-48.65976505 48.66111487 -48.80081531 46.75406935 -48.94514966 44.84727478 C-51.06810584 16.71542399 -51.06810584 16.71542399 -42.95703125 4.8203125 C-31.20032289 -7.43529677 -14.36071937 -8.65656138 0 0 Z M-24.39453125 27.9453125 C-26.2057361 30.73256943 -26.2057361 30.73256943 -25.95703125 33.9453125 C-25.14955165 36.84220543 -25.14955165 36.84220543 -23.26953125 38.7578125 C-20.05759191 40.23356841 -18.29228323 39.88475462 -14.95703125 38.8203125 C-12.87847045 37.24335618 -12.87847045 37.24335618 -11.95703125 34.8203125 C-12.08525242 31.67889394 -12.45744165 29.60913818 -14.14453125 26.9453125 C-18.04837952 24.52223426 -21.02426356 25.00713041 -24.39453125 27.9453125 Z " fill="black" transform="translate(274.95703125,65.1796875)"/>
<path d="M0 0 C2.625 2.0625 2.625 2.0625 4 5 C4.07051236 9.01920439 3.76068788 11.11253081 1.125 14.1875 C-5.81565722 18.21308119 -12.92380333 20.99181363 -21 20 C-23.4375 18.875 -23.4375 18.875 -25 17 C-26.09766597 13.63382437 -26.2468512 11.74055361 -25.125 8.375 C-22.00275207 4.88542879 -18.30197 3.66108094 -14 2 C-13.175 1.5875 -12.35 1.175 -11.5 0.75 C-7.64045562 -0.40786331 -3.98033214 -0.71156776 0 0 Z " fill="black" transform="translate(74,398)"/>
</svg>
