<?xml version="1.0" encoding="UTF-8"?>
<svg version="1.1" xmlns="http://www.w3.org/2000/svg" width="512" height="512">
<path d="M0 0 C1.24245483 -0.00574036 1.24245483 -0.00574036 2.51000977 -0.01159668 C4.25831317 -0.01431425 6.00665734 -0.00696381 7.75488281 0.00976562 C10.42865777 0.03117918 13.09974596 0.00996056 15.7734375 -0.015625 C17.47396425 -0.01298169 19.17448934 -0.00785665 20.875 0 C22.07201538 -0.01214539 22.07201538 -0.01214539 23.29321289 -0.02453613 C26.58538473 0.03098977 28.90603098 0.16925556 31.66430664 2.04797363 C34.14687695 5.52470004 33.87568674 8.68456938 33.6875 12.78125 C33.66945313 13.52632812 33.65140625 14.27140625 33.6328125 15.0390625 C33.58585649 16.87034701 33.51411652 18.70096649 33.4375 20.53125 C35.21138958 20.52710193 35.21138958 20.52710193 37.0211153 20.52287006 C65.07613385 20.45793514 93.13114866 20.40844782 121.18622618 20.37805401 C124.63725313 20.37430177 128.08827992 20.37041881 131.53930664 20.36645508 C132.56988834 20.36527468 132.56988834 20.36527468 133.62128987 20.36407044 C144.75464635 20.35100672 155.88795649 20.32734758 167.02128545 20.29979161 C178.44007601 20.27176424 189.8588289 20.25530405 201.27765483 20.24898452 C207.69356536 20.24506501 214.10937068 20.23581902 220.52524757 20.21405983 C226.55881939 20.19376217 232.59224224 20.18740256 238.62584496 20.19192696 C240.84508447 20.19109874 243.06432874 20.1850933 245.28353882 20.17363358 C248.30422712 20.15879471 251.32434662 20.16226491 254.345047 20.17048645 C255.23122658 20.16174793 256.11740616 20.1530094 257.03043967 20.14400607 C262.97663422 20.18800942 262.97663422 20.18800942 265.15882605 21.81324786 C267.41035339 24.83835743 266.90536311 28.58194016 266.90625 32.21484375 C266.91386353 33.06675797 266.92147705 33.91867218 266.92932129 34.79640198 C266.94012397 36.597718 266.9429747 38.39909666 266.93847656 40.20043945 C266.93750462 42.95565355 266.97911229 45.7080791 267.0234375 48.46289062 C267.02864486 50.21353586 267.03133269 51.96419077 267.03125 53.71484375 C267.04764526 54.53786484 267.06404053 55.36088593 267.08093262 56.20884705 C267.03175683 60.28237457 266.97524657 61.93019813 264.17700195 65.05786133 C261.4432061 66.52818108 260.06392573 67.00970829 257.01171875 66.921875 C256.21572266 66.90898438 255.41972656 66.89609375 254.59960938 66.8828125 C253.78298828 66.84929687 252.96636719 66.81578125 252.125 66.78125 C251.28904297 66.76320313 250.45308594 66.74515625 249.59179688 66.7265625 C247.53986772 66.67966126 245.48853244 66.60792411 243.4375 66.53125 C243.46368408 67.26239014 243.48986816 67.99353027 243.5168457 68.74682617 C243.62100144 72.07058082 243.68588621 75.39399194 243.75 78.71875 C243.79189453 79.86923828 243.83378906 81.01972656 243.87695312 82.20507812 C243.89306641 83.31689453 243.90917969 84.42871094 243.92578125 85.57421875 C243.95196533 86.59539795 243.97814941 87.61657715 244.00512695 88.66870117 C243.1854654 92.80226318 241.81991368 94.00865019 238.4375 96.53125 C234.73038863 97.25778695 231.07986595 97.1629143 227.31323242 97.09887695 C225.6296463 97.09997215 225.6296463 97.09997215 223.91204834 97.10108948 C220.20519551 97.09760834 216.49960186 97.05871917 212.79296875 97.01953125 C210.22179348 97.01020508 207.65060933 97.00308804 205.079422 96.99809265 C199.00551197 96.98095801 192.93212096 96.94155949 186.85840636 96.8913452 C179.94192001 96.83540778 173.02541181 96.80795431 166.10875547 96.78286803 C151.88476151 96.73064163 137.6611468 96.64272697 123.4375 96.53125 C123.44638245 97.14655075 123.45526489 97.7618515 123.4644165 98.39579773 C123.55295271 104.80340276 123.61326044 111.21083385 123.65722656 117.61889648 C123.67733418 120.00991881 123.7046243 122.40089201 123.73925781 124.79174805 C123.78781151 128.22977831 123.81047774 131.66715804 123.828125 135.10546875 C123.84877014 136.17335129 123.86941528 137.24123383 123.89068604 138.34147644 C123.89203837 142.82050648 123.87528486 145.72786411 121.7053833 149.70988464 C119.11619111 151.78929718 118.04127606 152.14393923 114.76074219 152.09887695 C113.84008972 152.0984993 112.91943726 152.09812164 111.97088623 152.09773254 C110.98533752 152.07192612 109.99978882 152.04611969 108.984375 152.01953125 C107.96901672 152.01245651 106.95365845 152.00538177 105.90753174 151.99809265 C102.66676947 151.97011958 99.4277394 151.90737355 96.1875 151.84375 C93.9896083 151.81867099 91.79168949 151.79585714 89.59375 151.77539062 C84.20774303 151.72028371 78.82274526 151.63662845 73.4375 151.53125 C73.44638245 152.58503342 73.45526489 153.63881683 73.4644165 154.72453308 C73.54550955 164.65631264 73.60546889 174.58802501 73.64474869 184.52006054 C73.66562179 189.62622566 73.69393456 194.73212348 73.73925781 199.83813477 C73.78272517 204.7659143 73.80663919 209.69343675 73.81700897 214.6213932 C73.82439873 216.5012854 73.83882923 218.38116355 73.86042023 220.26094627 C73.8894662 222.89456948 73.89345553 225.52713101 73.89160156 228.16088867 C73.90598267 228.93772507 73.92036377 229.71456146 73.93518066 230.51493835 C73.90681188 234.24028959 73.55705141 236.34293614 71.54077148 239.5189209 C69.4375 241.53125 69.4375 241.53125 67.33105469 242.09887695 C66.59790039 242.07269287 65.86474609 242.04650879 65.109375 242.01953125 C63.91054688 241.99536133 63.91054688 241.99536133 62.6875 241.97070312 C61.8625 241.92880859 61.0375 241.88691406 60.1875 241.84375 C58.92679687 241.80991211 58.92679687 241.80991211 57.640625 241.77539062 C55.57215036 241.71662714 53.50459512 241.62694885 51.4375 241.53125 C51.27749512 242.20099854 51.11749023 242.87074707 50.95263672 243.56079102 C48.92733566 251.86174145 46.64510123 260.07150825 44.21337891 268.26098633 C43.7763422 269.74340304 43.34609008 271.22783544 42.92236328 272.71411133 C42.29969354 274.89631827 41.65613683 277.07139002 41.0078125 279.24609375 C40.8242923 279.90447739 40.64077209 280.56286102 40.45169067 281.24119568 C38.90272699 286.30463581 37.54356392 287.42518608 33.4375 291.53125 C28.4875 291.53125 23.5375 291.53125 18.4375 291.53125 C18.7675 341.03125 19.0975 390.53125 19.4375 441.53125 C26.3675 429.15625 26.3675 429.15625 33.4375 416.53125 C49.0375 388.93125 49.0375 388.93125 53.4375 384.53125 C56.44497378 384.19169651 58.53642278 383.97511464 61.4375 384.53125 C64.38551416 387.03706204 65.33594653 388.49801499 65.71484375 392.35302734 C65.39180461 396.05489668 64.38277967 398.06701328 62.5 401.2578125 C61.85973877 402.35891357 61.21947754 403.46001465 60.55981445 404.59448242 C59.85250283 405.78181366 59.14506143 406.96906761 58.4375 408.15625 C57.71502236 409.3902322 56.99393365 410.62502855 56.27416992 411.8605957 C54.76935506 414.44133609 53.2585422 417.01842354 51.74365234 419.59326172 C48.37204105 425.33576801 45.07820727 431.12264274 41.78198242 436.90863037 C40.7751209 438.6746874 39.76592098 440.43938486 38.75585938 442.20361328 C35.27390677 448.28984364 31.82586968 454.39243726 28.4375 460.53125 C41.18635836 457.63181549 53.80899294 454.35069622 66.42578125 450.92578125 C68.38723563 450.39555615 70.34875942 449.86558773 72.31034851 449.33586121 C77.41710641 447.95611103 82.52298872 446.57314927 87.62866211 445.18939209 C93.86125297 443.50084015 100.09485061 441.81600942 106.32833385 440.13075542 C111.16946291 438.8218792 116.01043104 437.51241807 120.85090637 436.2011261 C121.7362355 435.9614209 122.62156464 435.7217157 123.53372192 435.4747467 C125.18276717 435.02824337 126.83173394 434.58145002 128.48060608 434.13430786 C130.46545725 433.59706469 132.45140975 433.06389429 134.4375 432.53125 C135.43509228 432.26040856 135.43509228 432.26040856 136.45283794 431.98409557 C140.44507823 431.07317558 144.07712753 430.88686304 147.8125 432.65625 C150.08693318 435.28059598 150.36846951 437.07972562 150.4375 440.53125 C149.14098796 444.0156261 148.02936689 445.22806758 144.71655273 446.92504883 C138.66615655 449.38346906 132.27327655 450.87027414 125.97265625 452.54296875 C124.57006331 452.91937079 123.16759423 453.29623466 121.76524353 453.67353821 C118.09552988 454.65956053 114.42418015 455.63934769 110.75244141 456.61779785 C106.99735411 457.61965645 103.24386587 458.62746912 99.49023438 459.63476562 C92.14086559 461.60605535 84.78975625 463.5707536 77.4375 465.53125 C78.30441656 465.53271656 79.17133312 465.53418312 80.06451988 465.53569412 C101.18148366 465.57278381 122.29828721 465.63182729 143.41512108 465.71515274 C153.62717316 465.75492214 163.83914842 465.78732531 174.05126953 465.80224609 C182.95460541 465.81527347 191.85777209 465.84226591 200.76101267 465.88586307 C205.47302248 465.9084534 210.18482379 465.92416214 214.89689255 465.92313385 C219.33751419 465.9223858 223.77767535 465.94039443 228.2181778 465.97241783 C229.84263889 465.98089453 231.46715176 465.98268198 233.09162521 465.97705269 C242.82686052 465.94782635 251.93969361 466.09952465 259.875 472.49609375 C260.390625 473.14707031 260.90625 473.79804688 261.4375 474.46875 C261.97375 475.11714844 262.51 475.76554687 263.0625 476.43359375 C267.05798586 482.52897984 267.04105886 488.4394334 266.4375 495.53125 C265.10239976 501.20542604 261.60832028 506.44721054 256.7168541 509.6621542 C251.61314489 512.35848894 247.52089422 513.11392143 241.79003906 513.06469727 C240.96624252 513.07331284 240.14244598 513.08192841 239.29368591 513.09080505 C236.59650421 513.11333459 233.90037181 513.10675403 231.203125 513.09765625 C229.31841729 513.10289521 227.43371221 513.10917269 225.54901123 513.11643982 C221.61181232 513.12681806 217.67497548 513.12231604 213.73779297 513.10766602 C208.69124212 513.09042488 203.64582419 513.11405228 198.59939957 513.14915562 C194.71318005 513.17109771 190.82723345 513.16969687 186.94097137 513.1613903 C185.07981874 513.16057013 183.21864621 513.16744611 181.35755157 513.18216133 C178.76011384 513.19956201 176.16473713 513.18510713 173.56738281 513.16235352 C172.7995195 513.17404572 172.03165619 513.18573792 171.24052429 513.19778442 C167.43838903 513.12993881 165.76445852 512.83228865 162.92547607 510.21836853 C160.89510828 506.55175115 161.33232759 504.50987067 162.4375 500.53125 C163.53225708 498.84535217 163.53225708 498.84535217 165.4375 497.53125 C167.99108721 497.23206241 170.30433149 497.11416331 172.85888672 497.13061523 C173.61207184 497.12363617 174.36525696 497.1166571 175.14126587 497.10946655 C177.63335297 497.08945698 180.12502712 497.08998986 182.6171875 497.08984375 C184.34971231 497.07807373 186.08222698 497.06471043 187.81472778 497.04981995 C192.37977313 497.01358881 196.94472857 496.99342157 201.5098877 496.97827148 C208.80996394 496.95347049 216.10984127 496.91374058 223.40973282 496.85637093 C225.95841371 496.8400599 228.50690691 496.8362654 231.05563354 496.83335876 C232.62286704 496.82357944 234.1900976 496.81331567 235.75732422 496.80249023 C236.46399231 496.80504318 237.1706604 496.80759613 237.89874268 496.81022644 C241.84732723 496.76930471 244.87825284 496.26339257 248.4375 494.53125 C249.29137105 491.22557511 249.29137105 491.22557511 249.4375 487.53125 C248.01399076 485.16182648 248.01399076 485.16182648 245.4375 483.53125 C242.69579056 483.14003786 240.35640409 482.99505973 237.61631775 483.03067875 C236.81936513 483.02516458 236.0224125 483.01965042 235.2013098 483.01396915 C232.51402333 483.00030579 229.82765097 483.01530755 227.14038086 483.03004456 C225.20111908 483.02615414 223.26186015 483.02051578 221.32260799 483.01327366 C215.98052739 482.99846381 210.63873988 483.00873303 205.29666853 483.02301037 C199.54062897 483.03408493 193.78463172 483.02218925 188.02859497 483.01316833 C176.74734294 482.99920983 165.46620258 483.00681131 154.18495584 483.02184392 C141.05732163 483.03867342 127.92971549 483.03549763 114.80207384 483.03174984 C90.67662511 483.0256886 66.55123392 483.04149217 42.42580019 483.06693747 C20.39224649 483.09005331 -1.6412416 483.09544107 -23.67480469 483.08520508 C-29.31655372 483.08260316 -34.95830276 483.08001818 -40.60005188 483.07760715 C-41.29457188 483.07730971 -41.98909189 483.07701226 -42.70465795 483.0767058 C-61.1042209 483.06909454 -79.50377783 483.07555891 -97.90333843 483.08630317 C-100.53995959 483.08782907 -103.17658074 483.08934943 -105.8132019 483.09086418 C-107.11059093 483.091622 -108.40797996 483.09237981 -109.7446838 483.09316059 C-118.90304657 483.0979103 -128.06139453 483.09604711 -137.21975708 483.09179878 C-148.37531562 483.08688035 -159.53080621 483.09281967 -170.68634915 483.11269308 C-176.38195461 483.12258851 -182.07745642 483.12764598 -187.77306747 483.11980057 C-192.98151997 483.11277279 -198.18976279 483.11948003 -203.39818752 483.1374042 C-205.28775923 483.14146762 -207.17734988 483.14041736 -209.06691468 483.13388533 C-211.62530343 483.1257946 -214.18297544 483.1359742 -216.74131775 483.15093327 C-217.48370866 483.14419561 -218.22609957 483.13745796 -218.99098718 483.13051614 C-222.0790409 483.16570065 -224.27557728 483.37982585 -227.02788639 484.83236355 C-228.92275689 486.59482369 -228.92275689 486.59482369 -228.9375 490.09375 C-228.91889408 493.59235754 -228.91889408 493.59235754 -226.5625 495.53125 C-223.21521428 496.71650066 -219.96898425 496.65716222 -216.44361115 496.65874195 C-215.18060794 496.6617496 -213.91760474 496.66475725 -212.61632872 496.66785604 C-211.21203317 496.66616847 -209.80773773 496.66439741 -208.40344238 496.66255188 C-206.91378744 496.66425386 -205.42413295 496.66640346 -203.93447924 496.66896313 C-200.69197661 496.67356281 -197.44949308 496.67498048 -194.20698738 496.67399788 C-188.93168003 496.67240622 -183.65639165 496.67760472 -178.38108826 496.68362427 C-170.72276312 496.69173969 -163.06444131 496.69668187 -155.40611267 496.69991493 C-143.30690099 496.70540815 -131.20771755 496.72230145 -119.10852051 496.74125671 C-114.97081761 496.74761346 -110.83311465 496.75392186 -106.69541168 496.76023388 C-105.66135829 496.76181764 -104.6273049 496.7634014 -103.56191656 496.76503316 C-91.78948937 496.78297215 -80.01706019 496.79919823 -68.24462891 496.81420898 C-66.63017788 496.81627279 -66.63017788 496.81627279 -64.98311168 496.81837829 C-47.52968144 496.84032258 -30.07625846 496.85106806 -12.62281686 496.85857973 C5.28579826 496.86664279 23.19435102 496.88990556 41.10293055 496.9265334 C52.15555684 496.94859079 63.20805505 496.95821319 74.26070225 496.95203307 C81.83012999 496.94886531 89.39944809 496.96014325 96.96884191 496.98292748 C101.33996859 496.99563009 105.7108511 497.00172331 110.08198738 496.99051094 C114.08036141 496.98038615 118.07826015 496.98850019 122.07657772 497.0113739 C123.52604134 497.01639223 124.97554719 497.01459481 126.42499059 497.00544123 C128.38950973 496.9940064 130.35413097 497.00938822 132.31861115 497.02623463 C133.95802886 497.02769984 133.95802886 497.02769984 135.63056612 497.02919465 C139.13308883 497.65566479 140.31610303 498.71718148 142.4375 501.53125 C142.9375 505.03125 142.9375 505.03125 142.4375 508.53125 C140.30452337 511.37137903 139.12188105 512.41073001 135.59028459 513.03264666 C134.4782434 513.03329607 133.36620221 513.03394547 132.2204628 513.03461456 C130.93554262 513.04504555 129.65062245 513.05547654 128.3267653 513.06622362 C126.89771189 513.05757501 125.46866072 513.04854837 124.03961182 513.03918457 C122.5239285 513.04379187 121.00824965 513.05014363 119.49258018 513.05809355 C115.32116227 513.07483452 111.15010911 513.06651895 106.97868967 513.05414867 C102.48228862 513.0451196 97.98595146 513.05905744 93.48956299 513.07006836 C84.67748015 513.08788287 75.86553337 513.08400007 67.05344513 513.0724178 C59.8911256 513.06339297 52.72884427 513.06215536 45.56652069 513.06651306 C44.0387989 513.06743246 44.0387989 513.06743246 42.48021404 513.06837043 C40.41129002 513.06964931 38.342366 513.07094616 36.273442 513.0722608 C16.85788467 513.08367577 -2.55759722 513.07053971 -21.97314218 513.04905933 C-38.63284878 513.03119827 -55.29244386 513.03428251 -71.95214844 513.05273438 C-91.2908996 513.07414342 -110.62958452 513.08256572 -129.96834588 513.07028532 C-132.03098312 513.06901111 -134.09362037 513.06775363 -136.15625763 513.06651306 C-137.17114456 513.06589596 -138.18603149 513.06527886 -139.23167257 513.06464306 C-146.38340488 513.06118946 -153.53509518 513.06701895 -160.68682098 513.07643127 C-169.40560914 513.08765347 -178.12425327 513.08460698 -186.84302494 513.0633083 C-191.29160979 513.05279922 -195.73995455 513.04867347 -200.1885376 513.06190491 C-204.26236227 513.07383829 -208.3357247 513.06725082 -212.40950754 513.0459947 C-213.88192509 513.04153248 -215.35438181 513.04378641 -216.82677409 513.05349785 C-225.83585509 513.10835265 -232.52777313 512.87588882 -239.5859375 506.78515625 C-240.03195313 506.22699219 -240.47796875 505.66882813 -240.9375 505.09375 C-241.39898437 504.53816406 -241.86046875 503.98257812 -242.3359375 503.41015625 C-246.54744233 496.95877465 -246.37383332 489.99382626 -245.5625 482.53125 C-243.51826603 476.73621175 -238.80563618 471.68516717 -233.5625 468.53125 C-228.66975492 466.89709376 -224.41433828 466.27560405 -219.26686096 466.2527771 C-218.56667609 466.2469847 -217.86649121 466.2411923 -217.14508861 466.23522437 C-214.81746248 466.21832639 -212.49003585 466.21535676 -210.16235352 466.21240234 C-208.48646057 466.20309711 -206.81057223 466.19292755 -205.13468933 466.18196106 C-200.59806821 466.15471415 -196.06147805 466.1395274 -191.52479672 466.12653303 C-186.77885983 466.11087924 -182.03298594 466.08409619 -177.28709412 466.0585022 C-168.30586167 466.01175421 -159.32461732 465.97499084 -150.34332556 465.94182932 C-140.11599113 465.90357981 -129.88872005 465.85417705 -119.66143906 465.80384517 C-98.62850618 465.70058451 -77.59553317 465.61130503 -56.5625 465.53125 C-57.80824799 465.19965378 -57.80824799 465.19965378 -59.0791626 464.86135864 C-66.9080674 462.77661746 -74.73584825 460.68771833 -82.562397 458.59414864 C-86.58607448 457.51798846 -90.61016728 456.44343728 -94.63525391 455.37255859 C-98.52012121 454.33892204 -102.40383842 453.30106521 -106.28679657 452.26028061 C-107.76794052 451.86407028 -109.24949161 451.46937874 -110.73145294 451.07623672 C-112.80807163 450.52506242 -114.88317323 449.96849143 -116.95800781 449.41064453 C-118.13937317 449.09531769 -119.32073853 448.77999084 -120.53790283 448.45510864 C-126.76862752 446.55194318 -126.76862752 446.55194318 -128.875 443.84375 C-129.89172829 440.42384577 -129.43531149 437.96015226 -128.5625 434.53125 C-126.9375 432.59375 -126.9375 432.59375 -124.5625 431.53125 C-119.056487 431.19246886 -114.46579568 432.09894241 -109.22241211 433.54736328 C-108.4179213 433.76205765 -107.61343048 433.97675201 -106.78456116 434.19795227 C-104.13401401 434.90752856 -101.48700134 435.62945345 -98.83984375 436.3515625 C-96.97461351 436.85360736 -95.10917684 437.35488582 -93.24354553 437.85543823 C-88.32620087 439.17702237 -83.41176908 440.50913814 -78.49786377 441.84344482 C-73.57518274 443.17812209 -68.64977221 444.50264158 -63.72460938 445.828125 C-50.47006246 449.39822363 -37.2164931 452.97225417 -23.98095703 456.61230469 C-22.92944962 456.90120575 -21.8779422 457.19010681 -20.79457092 457.48776245 C-18.9698518 457.99023478 -17.14576096 458.49499787 -15.32249451 459.00271606 C-11.49963536 460.12687098 -11.49963536 460.12687098 -7.5625 460.53125 C-8.17955811 459.45532593 -8.17955811 459.45532593 -8.80908203 458.35766602 C-16.8694955 444.29607696 -24.89978119 430.22066292 -32.77978516 416.05688477 C-33.30749512 415.10998779 -33.83520508 414.16309082 -34.37890625 413.1875 C-35.14811401 411.80691406 -35.14811401 411.80691406 -35.93286133 410.3984375 C-38.27940528 406.26992632 -40.7303117 402.2042859 -43.19042969 398.14257812 C-45.11896041 394.47219297 -45.48717794 392.56620827 -44.5625 388.53125 C-43.0625 386.09375 -43.0625 386.09375 -40.5625 384.53125 C-35.60792177 383.57229938 -35.60792177 383.57229938 -32.5625 384.53125 C-27.02406538 389.80790419 -23.5621215 397.59136829 -19.9375 404.21875 C-18.71172001 406.43402692 -17.48514271 408.64886282 -16.2578125 410.86328125 C-15.64454102 411.97268066 -15.03126953 413.08208008 -14.39941406 414.22509766 C-11.57559118 419.30752847 -8.69913912 424.35930176 -5.8125 429.40625 C-5.31153809 430.28498779 -4.81057617 431.16372559 -4.29443359 432.0690918 C-3.83117676 432.87902588 -3.36791992 433.68895996 -2.890625 434.5234375 C-2.4874707 435.22839355 -2.08431641 435.93334961 -1.66894531 436.65966797 C-0.6888411 438.31754062 0.36919494 439.92879242 1.4375 441.53125 C1.9325 367.28125 1.9325 367.28125 2.4375 291.53125 C-2.5125 291.53125 -7.4625 291.53125 -12.5625 291.53125 C-16.22305797 287.87069203 -17.09407705 286.9292652 -18.4921875 282.375 C-18.80994141 281.36107178 -19.12769531 280.34714355 -19.45507812 279.30249023 C-19.77927734 278.22298096 -20.10347656 277.14347168 -20.4375 276.03125 C-20.95086914 274.37428101 -20.95086914 274.37428101 -21.47460938 272.68383789 C-22.51772074 269.30368117 -23.54234072 265.91839691 -24.5625 262.53125 C-25.17965774 260.49868888 -25.79684362 258.46613631 -26.4140625 256.43359375 C-27.81393134 251.80443622 -29.19424416 247.16984462 -30.5625 242.53125 C-32.33367187 242.47517578 -32.33367187 242.47517578 -34.140625 242.41796875 C-35.69794788 242.35229851 -37.25523814 242.28585153 -38.8125 242.21875 C-39.58980469 242.19619141 -40.36710938 242.17363281 -41.16796875 242.15039062 C-48.54672048 241.80352623 -48.54672048 241.80352623 -51.5625 238.53125 C-52.80416136 234.80626593 -52.69402545 231.35822035 -52.67602539 227.47973633 C-52.67617142 226.65999832 -52.67631744 225.84026031 -52.6764679 224.99568176 C-52.67577096 222.28485472 -52.66798878 219.5740963 -52.66015625 216.86328125 C-52.65829129 214.98426857 -52.65686776 213.1052554 -52.65586853 211.22624207 C-52.65204948 206.27949685 -52.64222438 201.33278098 -52.63116455 196.38604736 C-52.6209373 191.33874915 -52.61636809 186.29144621 -52.61132812 181.24414062 C-52.60060159 171.33983086 -52.58353248 161.43554287 -52.5625 151.53125 C-53.11516037 151.54235306 -53.66782074 151.55345612 -54.23722839 151.56489563 C-59.99595965 151.67562269 -65.75438796 151.75097184 -71.51391602 151.8059082 C-73.66247849 151.83103285 -75.81095565 151.86513861 -77.95922852 151.90844727 C-81.04985612 151.96918792 -84.13935263 151.99748044 -87.23046875 152.01953125 C-88.18898239 152.04533768 -89.14749603 152.0711441 -90.13505554 152.09773254 C-91.48588982 152.09829903 -91.48588982 152.09829903 -92.86401367 152.09887695 C-93.65233078 152.10998001 -94.44064789 152.12108307 -95.25285339 152.13252258 C-99.02583763 151.15029787 -100.31780095 149.72102101 -102.5625 146.53125 C-103.24795343 142.71573797 -103.14419909 138.97114473 -103.05078125 135.10546875 C-103.04016914 133.45137749 -103.04016914 133.45137749 -103.02934265 131.76387024 C-103.00139489 128.24813483 -102.93865165 124.73400257 -102.875 121.21875 C-102.84991781 118.83270532 -102.82710451 116.44663563 -102.80664062 114.06054688 C-102.75156692 108.21690263 -102.66793545 102.37419085 -102.5625 96.53125 C-103.44598806 96.53539807 -103.44598806 96.53539807 -104.34732437 96.53962994 C-118.677403 96.60587688 -133.00746796 96.65552428 -147.33766556 96.68668652 C-154.26764677 96.70215683 -161.19752579 96.72324936 -168.12744141 96.75756836 C-174.81232869 96.79065813 -181.49708774 96.80809208 -188.18206024 96.81588173 C-190.73540674 96.8214346 -193.28874727 96.83227767 -195.84204865 96.84844017 C-199.41208065 96.87014452 -202.98167069 96.87321979 -206.55175781 96.87182617 C-207.61271164 96.882612 -208.67366547 96.89339783 -209.76676941 96.9045105 C-210.73989578 96.90038651 -211.71302216 96.89626251 -212.71563721 96.89201355 C-213.55999958 96.89477893 -214.40436195 96.89754431 -215.27431107 96.90039349 C-218.12317633 96.44079855 -219.47892958 95.50277896 -221.5625 93.53125 C-222.6019775 90.4128175 -222.67744838 88.25649414 -222.66015625 84.98828125 C-222.65693359 83.91513672 -222.65371094 82.84199219 -222.65039062 81.73632812 C-222.64201172 80.61677734 -222.63363281 79.49722656 -222.625 78.34375 C-222.62048828 77.21259766 -222.61597656 76.08144531 -222.61132812 74.91601562 C-222.59953498 72.12104073 -222.5830765 69.3261718 -222.5625 66.53125 C-223.80386719 66.58925781 -225.04523438 66.64726563 -226.32421875 66.70703125 C-227.96610814 66.75394238 -229.60803832 66.79944109 -231.25 66.84375 C-232.06662109 66.88564453 -232.88324219 66.92753906 -233.72460938 66.97070312 C-234.91860352 66.99487305 -234.91860352 66.99487305 -236.13671875 67.01953125 C-237.22859497 67.05880737 -237.22859497 67.05880737 -238.3425293 67.09887695 C-241.93543706 66.18020209 -243.35254137 64.45846753 -245.5625 61.53125 C-246.04956378 58.52087552 -246.24301408 56.09087906 -246.19140625 53.08984375 C-246.19381821 52.28515152 -246.19623016 51.48045929 -246.19871521 50.65138245 C-246.19773872 48.95609593 -246.18439208 47.26077675 -246.15942383 45.56567383 C-246.12505659 42.97301941 -246.13878638 40.38376493 -246.15820312 37.79101562 C-246.15130571 36.14061052 -246.14163426 34.49021419 -246.12890625 32.83984375 C-246.13386612 32.06684433 -246.13882599 31.29384491 -246.14393616 30.49742126 C-246.07295963 27.25107438 -245.7649877 24.88965991 -244.15795898 22.04516602 C-240.07105804 19.66130064 -236.11827433 19.96041869 -231.46875 20 C-230.48507446 19.9961731 -229.50139893 19.99234619 -228.48791504 19.98840332 C-226.41006445 19.98568373 -224.33217965 19.99304818 -222.25439453 20.00976562 C-219.07376789 20.03117416 -215.89540013 20.00996512 -212.71484375 19.984375 C-210.69530751 19.98701827 -208.67577268 19.99214322 -206.65625 20 C-205.70512329 19.99190308 -204.75399658 19.98380615 -203.77404785 19.97546387 C-197.22552854 20.06847501 -197.22552854 20.06847501 -193.96289062 22.34570312 C-191.89412116 25.57436844 -192.02713898 27.78372287 -192.5625 31.53125 C-194.11816406 33.72558594 -194.11816406 33.72558594 -196.5625 35.53125 C-199.24422476 35.88084406 -201.50187958 36.00048774 -204.171875 35.921875 C-205.26208954 35.91338531 -205.26208954 35.91338531 -206.37432861 35.90472412 C-208.68773245 35.88239553 -210.9995672 35.83221048 -213.3125 35.78125 C-214.88409216 35.76118023 -216.45570868 35.74293029 -218.02734375 35.7265625 C-221.87348138 35.68594859 -225.71624213 35.60766572 -229.5625 35.53125 C-229.5625 40.48125 -229.5625 45.43125 -229.5625 50.53125 C-157.9525 50.53125 -86.3425 50.53125 -12.5625 50.53125 C-12.5625 45.58125 -12.5625 40.63125 -12.5625 35.53125 C-14.52274612 35.53791183 -16.48299225 35.54457367 -18.50263977 35.55143738 C-36.94101996 35.61214979 -55.37938001 35.65735516 -73.81783772 35.68668652 C-83.29811423 35.7021677 -92.77831623 35.72328106 -102.25854492 35.75756836 C-110.51971729 35.78743248 -118.7808357 35.8068159 -127.04206055 35.81351548 C-131.41795828 35.81743283 -135.79370161 35.82666495 -140.16954994 35.84844017 C-144.28580775 35.86875822 -148.40184714 35.87509335 -152.51815033 35.87057304 C-154.03109358 35.87140035 -155.54404392 35.87739392 -157.05694389 35.88886642 C-159.11870313 35.9037379 -161.17963185 35.90022399 -163.2414093 35.89201355 C-164.39641591 35.89477893 -165.55142252 35.89754431 -166.74142933 35.90039349 C-169.5625 35.53125 -169.5625 35.53125 -171.40288067 34.18838978 C-173.18346229 31.64387146 -173.4392332 29.61292001 -173.5625 26.53125 C-172.42470128 24.20393444 -171.39409286 22.36284286 -169.5625 20.53125 C-167.53755378 20.43448586 -165.50917458 20.40938014 -163.48191833 20.41099548 C-162.83994619 20.41014106 -162.19797404 20.40928663 -161.5365482 20.40840632 C-159.36995946 20.40674979 -157.20344693 20.41227567 -155.03686523 20.41772461 C-153.48993939 20.41800647 -151.94301341 20.41784877 -150.39608765 20.4172821 C-146.18345968 20.41699408 -141.97085994 20.42289151 -137.75823855 20.42985606 C-133.36064212 20.43608888 -128.96304511 20.43669334 -124.56544495 20.43788147 C-116.23209487 20.440995 -107.89875785 20.44920868 -99.56541353 20.45923096 C-90.08068746 20.47039143 -80.59596078 20.47590238 -71.11122978 20.48092639 C-51.59497911 20.49139127 -32.0787406 20.50899113 -12.5625 20.53125 C-12.60890625 19.42265625 -12.6553125 18.3140625 -12.703125 17.171875 C-12.74065102 15.70836032 -12.77705029 14.24481644 -12.8125 12.78125 C-12.84601563 12.05164062 -12.87953125 11.32203125 -12.9140625 10.5703125 C-12.97828286 7.03819289 -12.86911161 4.96064556 -10.78930664 2.04797363 C-7.39335678 -0.2650774 -3.96645832 -0.04024524 0 0 Z M3.4375 15.53125 C3.4375 36.98125 3.4375 58.43125 3.4375 80.53125 C8.0575 80.53125 12.6775 80.53125 17.4375 80.53125 C17.4375 59.08125 17.4375 37.63125 17.4375 15.53125 C12.8175 15.53125 8.1975 15.53125 3.4375 15.53125 Z M33.4375 35.53125 C33.4375 40.48125 33.4375 45.43125 33.4375 50.53125 C34.92167923 50.53489563 36.40585846 50.53854126 37.93501282 50.54229736 C51.89983039 50.57918647 65.864445 50.63665396 79.82908344 50.71515274 C87.009025 50.75498261 94.18885633 50.78735491 101.36889648 50.80224609 C107.62616144 50.81524231 113.88318425 50.84215447 120.14031285 50.88586307 C123.45429961 50.90852435 126.76792057 50.92208265 130.08199501 50.92313385 C133.77940207 50.92548692 137.4758525 50.95243409 141.1730957 50.98535156 C142.82602379 50.97780602 142.82602379 50.97780602 144.51234436 50.97010803 C145.51775269 50.98402084 146.52316101 50.99793365 147.55903625 51.01226807 C148.87120857 51.01779882 148.87120857 51.01779882 150.20988941 51.02344131 C152.4375 51.53125 152.4375 51.53125 154.22287273 53.37228012 C155.85026243 56.26492499 155.78537889 58.26118841 155.4375 61.53125 C153.4375 64.53125 153.4375 64.53125 150.4375 65.53125 C148.83896874 65.63217109 147.23663276 65.67745158 145.63496399 65.68946838 C144.15209396 65.70415161 144.15209396 65.70415161 142.63926697 65.71913147 C141.0143911 65.72776466 141.0143911 65.72776466 139.35668945 65.73657227 C137.6442807 65.75142166 137.6442807 65.75142166 135.89727783 65.76657104 C132.11513357 65.798217 128.33297673 65.82295581 124.55078125 65.84765625 C121.93189666 65.86822309 119.31301541 65.88921949 116.69413757 65.91062927 C110.50001013 65.96054127 104.30585698 66.00548563 98.11167926 66.04865164 C91.05971819 66.09803678 84.00780357 66.15295017 76.95588744 66.20833123 C62.44980207 66.32212834 47.94366967 66.42877624 33.4375 66.53125 C33.4375 71.15125 33.4375 75.77125 33.4375 80.53125 C97.4575 80.53125 161.4775 80.53125 227.4375 80.53125 C227.4375 75.91125 227.4375 71.29125 227.4375 66.53125 C226.0649707 66.51143066 224.69244141 66.49161133 223.27832031 66.47119141 C218.18666214 66.39512655 213.0952894 66.30641021 208.00390625 66.21386719 C205.80018753 66.17558114 203.59640639 66.14072763 201.39257812 66.109375 C198.22503348 66.0637167 195.05791838 66.00572298 191.890625 65.9453125 C190.90507629 65.93376129 189.91952759 65.92221008 188.90411377 65.91030884 C187.9834613 65.89043915 187.06280884 65.87056946 186.11425781 65.85009766 C185.3059552 65.83677399 184.49765259 65.82345032 183.66485596 65.8097229 C181.1858366 65.49978604 179.5522923 64.8484801 177.4375 63.53125 C176.6875 61.7265625 176.6875 61.7265625 176.4375 59.65625 C176.334375 58.97820313 176.23125 58.30015625 176.125 57.6015625 C176.59805748 54.46755673 177.97702949 53.4708742 180.4375 51.53125 C183.61395264 51.01226807 183.61395264 51.01226807 187.40917969 50.98535156 C188.1022673 50.97501389 188.79535492 50.96467621 189.50944519 50.95402527 C191.79299243 50.92460304 194.07565313 50.92309832 196.359375 50.921875 C197.9455128 50.90689283 199.53163499 50.8901656 201.11773682 50.87176514 C205.28685219 50.82808293 209.45575712 50.80809079 213.62506104 50.79302979 C217.88167773 50.7734617 222.13806706 50.73149141 226.39453125 50.69140625 C234.74215586 50.61609454 243.08961593 50.56788015 251.4375 50.53125 C251.4375 45.58125 251.4375 40.63125 251.4375 35.53125 C179.4975 35.53125 107.5575 35.53125 33.4375 35.53125 Z M-206.5625 66.53125 C-206.5625 71.15125 -206.5625 75.77125 -206.5625 80.53125 C-142.5425 80.53125 -78.5225 80.53125 -12.5625 80.53125 C-12.5625 75.91125 -12.5625 71.29125 -12.5625 66.53125 C-76.5825 66.53125 -140.6025 66.53125 -206.5625 66.53125 Z M-86.5625 96.53125 C-86.5625 109.40125 -86.5625 122.27125 -86.5625 135.53125 C-22.5425 135.53125 41.4775 135.53125 107.4375 135.53125 C107.4375 122.66125 107.4375 109.79125 107.4375 96.53125 C43.4175 96.53125 -20.6025 96.53125 -86.5625 96.53125 Z M-36.5625 151.53125 C-36.5625 175.95125 -36.5625 200.37125 -36.5625 225.53125 C-5.5425 225.53125 25.4775 225.53125 57.4375 225.53125 C57.4375 201.11125 57.4375 176.69125 57.4375 151.53125 C26.4175 151.53125 -4.6025 151.53125 -36.5625 151.53125 Z M-13.5625 241.53125 C-12.469375 245.470625 -11.37625 249.41 -10.25 253.46875 C-9.91186279 254.69198975 -9.57372559 255.91522949 -9.2253418 257.17553711 C-8.94859619 258.1681958 -8.67185059 259.16085449 -8.38671875 260.18359375 C-8.10916748 261.18382568 -7.83161621 262.18405762 -7.5456543 263.21459961 C-6.31933302 267.35156871 -4.92699175 271.43777476 -3.5625 275.53125 C5.6775 275.53125 14.9175 275.53125 24.4375 275.53125 C25.71625 271.591875 26.995 267.6525 28.3125 263.59375 C28.71194824 262.37051025 29.11139648 261.14727051 29.52294922 259.88696289 C29.84279785 258.8943042 30.16264648 257.90164551 30.4921875 256.87890625 C30.81687012 255.87867432 31.14155273 254.87844238 31.47607422 253.84790039 C32.65170532 249.79230147 33.52149869 245.6532559 34.4375 241.53125 C18.5975 241.53125 2.7575 241.53125 -13.5625 241.53125 Z " fill="#000000" transform="translate(245.5625,-0.53125)"/>
<path d="M0 0 C3.0182722 0.05418801 4.04925828 0.22609892 6.6875 1.875 C8.79756839 5.30386114 8.81241523 7.35470351 8.1875 11.3125 C4.5873948 15.41823796 0.3728719 18.59041231 -4 21.8125 C-4.69561035 22.32949463 -5.3912207 22.84648926 -6.10791016 23.37915039 C-13.53146339 28.8794562 -21.02724755 34.2802881 -28.53027344 39.67138672 C-32.29549105 42.37889558 -36.05357525 45.09626544 -39.8125 47.8125 C-40.5432373 48.33996826 -41.27397461 48.86743652 -42.02685547 49.41088867 C-45.97959928 52.26410469 -49.92920187 55.12155969 -53.875 57.984375 C-54.70128906 58.58314453 -55.52757812 59.18191406 -56.37890625 59.79882812 C-57.97091453 60.95258693 -59.56209487 62.10748926 -61.15234375 63.26367188 C-61.86519531 63.77994141 -62.57804687 64.29621094 -63.3125 64.828125 C-63.9415625 65.28477539 -64.570625 65.74142578 -65.21875 66.21191406 C-68.89494533 68.75056121 -72.46465696 68.79361378 -76.8125 68.3125 C-79.55133355 66.72220955 -79.76217699 65.47784703 -80.6875 62.4375 C-80.84599841 58.4750397 -80.20103896 57.48199529 -77.8125 54.3125 C-75.0902797 51.95940727 -72.1833506 49.89302064 -69.25 47.8125 C-68.40445557 47.20156494 -67.55891113 46.59062988 -66.68774414 45.96118164 C-64.92880545 44.691664 -63.16696805 43.42615351 -61.40234375 42.16455078 C-58.99090359 40.44008009 -56.58746598 38.70523359 -54.1875 36.96484375 C-50.47890863 34.27655182 -46.7638432 31.59740212 -43.04638672 28.92138672 C-38.56046443 25.69054214 -34.08061646 22.4512792 -29.59960938 19.21362305 C-25.64000981 16.35318673 -21.67865124 13.49522815 -17.71484375 10.640625 C-16.46864258 9.7424707 -16.46864258 9.7424707 -15.19726562 8.82617188 C-13.59363359 7.67048175 -11.98948548 6.51550731 -10.38476562 5.36132812 C-9.66869141 4.84505859 -8.95261719 4.32878906 -8.21484375 3.796875 C-7.58054443 3.34022461 -6.94624512 2.88357422 -6.29272461 2.41308594 C-3.4248193 0.28072289 -3.4248193 0.28072289 0 0 Z " fill="#000000" transform="translate(399.8125,361.6875)"/>
<path d="M0 0 C5.24284255 0.080426 8.27259302 2.45174243 12.3046875 5.57421875 C13.03373291 6.11377197 13.76277832 6.6533252 14.51391602 7.20922852 C16.05352169 8.34909884 17.58771186 9.49631626 19.11669922 10.65039062 C22.09122744 12.88332758 25.10919542 15.05216402 28.13134766 17.2199707 C30.39037214 18.84085407 32.64325756 20.46993432 34.89453125 22.1015625 C38.65547189 24.82656511 42.41930623 27.54752025 46.18505859 30.26586914 C47.67418008 31.34116581 49.16279227 32.41716816 50.65087891 33.49389648 C54.55280182 36.31622753 58.46313135 39.12581663 62.38671875 41.91796875 C63.19947266 42.49869141 64.01222656 43.07941406 64.84960938 43.67773438 C66.39897008 44.78442059 67.95089827 45.88752472 69.50585938 46.98632812 C79.54383268 54.1720817 79.54383268 54.1720817 81.4296875 58.88671875 C81.4296875 62.20499405 80.41332371 63.76548519 78.4296875 66.38671875 C75.4296875 68.38671875 75.4296875 68.38671875 72.26171875 68.37109375 C67.2973416 67.0958409 64.13753153 64.7273804 60.1171875 61.63671875 C58.51719034 60.44365728 56.91692233 59.25095898 55.31640625 58.05859375 C54.50478027 57.44693359 53.6931543 56.83527344 52.85693359 56.20507812 C49.08555173 53.37976611 45.25696692 50.63554245 41.4296875 47.88671875 C39.92937382 46.80381988 38.42937457 45.72048524 36.9296875 44.63671875 C36.1871875 44.10046875 35.4446875 43.56421875 34.6796875 43.01171875 C32.4296875 41.38671875 30.1796875 39.76171875 27.9296875 38.13671875 C27.185979 37.59966309 26.44227051 37.06260742 25.67602539 36.50927734 C24.18797444 35.43443911 22.70017806 34.35924832 21.21264648 33.28369141 C17.28192665 30.44232154 13.34594254 27.60863021 9.40234375 24.78515625 C8.58056641 24.19541016 7.75878906 23.60566406 6.91210938 22.99804688 C5.33560302 21.8668813 3.75755186 20.73786465 2.17773438 19.61132812 C1.46810547 19.10150391 0.75847656 18.59167969 0.02734375 18.06640625 C-0.59648193 17.62022949 -1.22030762 17.17405273 -1.86303711 16.71435547 C-4.7677926 14.45551658 -6.35428929 13.0965093 -7.4453125 9.51171875 C-7.5938497 5.79828876 -6.75508245 4.32775522 -4.5703125 1.38671875 C-3.5703125 0.38671875 -3.5703125 0.38671875 0 0 Z " fill="#000000" transform="translate(110.5703125,361.61328125)"/>
<path d="M0 0 C1.60197487 -0.00956978 1.60197487 -0.00956978 3.23631287 -0.01933289 C4.38946487 -0.02044571 5.54261688 -0.02155853 6.73071289 -0.02270508 C8.50799522 -0.02769768 8.50799522 -0.02769768 10.32118225 -0.03279114 C12.82870088 -0.03785712 15.33622626 -0.04019956 17.84375 -0.04003906 C21.68443884 -0.04222555 25.52484052 -0.06038506 29.36547852 -0.0793457 C31.79972232 -0.08227965 34.2339675 -0.08426444 36.66821289 -0.08520508 C37.81934067 -0.09239059 38.97046844 -0.09957611 40.15647888 -0.10697937 C41.76318199 -0.10236443 41.76318199 -0.10236443 43.40234375 -0.09765625 C44.34371689 -0.09908127 45.28509003 -0.10050629 46.25498962 -0.10197449 C48.91048549 0.15950357 50.51426669 0.73990767 52.76586914 2.14526367 C54.84745934 4.82159393 54.76174505 6.26280035 54.64086914 9.70776367 C53.76586914 13.14526367 53.76586914 13.14526367 52.06262207 14.8338623 C49.2325695 16.44976742 47.39324638 16.53758923 44.14282227 16.56518555 C43.01485229 16.58109741 41.88688232 16.59700928 40.72473145 16.61340332 C38.90431335 16.61370544 38.90431335 16.61370544 37.04711914 16.61401367 C35.79709106 16.6216272 34.54706299 16.62924072 33.25915527 16.63708496 C30.61605033 16.64789133 27.97383979 16.65210535 25.33081055 16.64624023 C21.94756294 16.64033881 18.5657478 16.67095684 15.1827774 16.71135712 C11.95008453 16.743449 8.7174468 16.73911785 5.48461914 16.73901367 C3.66420105 16.76360657 3.66420105 16.76360657 1.80700684 16.78869629 C-6.55638114 16.7197008 -6.55638114 16.7197008 -10.00170898 13.79956055 C-11.49330667 10.58707044 -11.75588244 8.64845286 -11.23413086 5.14526367 C-8.46579965 0.26772773 -5.29346163 0.02145236 0 0 Z " fill="#000000" transform="translate(234.234130859375,179.854736328125)"/>
<path d="M0 0 C1.54884875 0.41102557 3.09450236 0.83428063 4.63671875 1.26953125 C5.42111328 1.46611328 6.20550781 1.66269531 7.01367188 1.86523438 C11.87666871 3.20803299 14.70915361 4.49160776 17.32421875 9.08203125 C17.26345744 12.60618695 17.04677231 14.99820091 15.07421875 17.95703125 C12.08944231 19.87581611 9.28683349 20.2246029 5.80053711 19.70825195 C2.94993571 18.95092485 0.10239452 18.18843998 -2.73828125 17.39453125 C-3.73150391 17.13736328 -4.72472656 16.88019531 -5.74804688 16.61523438 C-6.70517578 16.35291016 -7.66230469 16.09058594 -8.6484375 15.8203125 C-9.51734619 15.58352783 -10.38625488 15.34674316 -11.28149414 15.1027832 C-14.15637111 13.87714227 -15.70885278 12.49923056 -17.67578125 10.08203125 C-18.22904673 6.20917286 -18.23909327 4.03721251 -16.23828125 0.64453125 C-11.35636113 -2.33224931 -5.40031576 -1.21894952 0 0 Z " fill="#000000" transform="translate(84.67578125,418.91796875)"/>
<path d="M0 0 C2.625 2.0625 2.625 2.0625 4 5 C3.94119949 8.41042945 3.88687782 10.85928328 1.74951172 13.60839844 C-1.81480861 16.4435402 -6.54228272 17.10130018 -10.875 18.25 C-11.86886719 18.53101563 -12.86273438 18.81203125 -13.88671875 19.1015625 C-14.84964844 19.36195313 -15.81257813 19.62234375 -16.8046875 19.890625 C-18.11928955 20.24688965 -18.11928955 20.24688965 -19.46044922 20.61035156 C-23.40952071 21.21626563 -26.05181637 20.6662912 -29.3125 18.375 C-31.67149179 15.05493748 -31.56921855 12.98452984 -31 9 C-27.72701841 4.4985765 -23.44741353 3.59174405 -18.3125 2.25 C-17.54744141 2.02957031 -16.78238281 1.80914062 -15.99414062 1.58203125 C-10.74738873 0.15873377 -5.43614648 -0.80356777 0 0 Z " fill="#000000" transform="translate(441,418)"/>
</svg>
