<?xml version="1.0" encoding="UTF-8"?>
<svg version="1.1" xmlns="http://www.w3.org/2000/svg" viewBox="304.88 15.62 414.22 480.96" width="1024" height="512">
<path d="M0 0 C3.23307772 1.61956043 5.36183145 3.7236629 7 7 C7.85107791 14.13501346 5.08092441 20.14634305 2.6015625 26.7421875 C2.13365443 28.01161722 1.66676478 29.28142271 1.20082092 30.55157471 C-0.05210617 33.95859775 -1.31867387 37.36039845 -2.58786392 40.76139069 C-3.90422978 44.2960821 -5.20782857 47.83547298 -6.51245117 51.37451172 C-8.63523406 57.12887902 -10.76478486 62.88069556 -12.89892578 68.63085938 C-15.77316856 76.37721967 -18.62373904 84.13204921 -21.46484375 91.890625 C-22.09063324 93.59903061 -22.09063324 93.59903061 -22.72906494 95.34194946 C-23.53559409 97.54388584 -24.34207356 99.74584041 -25.14849854 101.94781494 C-26.98802877 106.96888077 -28.83055364 111.98883782 -30.67578125 117.0078125 C-31.14140724 118.27688446 -31.14140724 118.27688446 -31.61643982 119.57159424 C-33.02614202 123.40336287 -34.45481195 127.22012242 -36 131 C-35.05680908 130.76289307 -34.11361816 130.52578613 -33.1418457 130.28149414 C-29.62912739 129.39877593 -26.11601472 128.51763614 -22.6027832 127.63696289 C-21.08477213 127.25620604 -19.5668671 126.87502613 -18.04907227 126.4934082 C-15.86242233 125.94369975 -13.67539055 125.39553378 -11.48828125 124.84765625 C-10.47704948 124.59291283 -10.47704948 124.59291283 -9.44538879 124.33302307 C7.14944637 120.18382488 7.14944637 120.18382488 15.171875 124.58984375 C19.23862481 127.72680247 21.40555458 132.21666374 23 137 C24.23960062 151.12331859 19.1617723 161.76873317 13.43774414 174.28320312 C4.22931772 193.88842692 4.22931772 193.88842692 4 215 C10.77405139 214.71174249 14.69267776 212.05442066 20 208 C20.55204102 207.60409668 21.10408203 207.20819336 21.67285156 206.80029297 C23.54376109 205.44750484 25.36574926 204.04314224 27.1875 202.625 C27.76959229 202.21080811 28.35168457 201.79661621 28.95141602 201.36987305 C34.97282029 196.48235289 36.85789547 189.43068585 39.22219849 182.33172607 C40.02394849 179.9282062 40.85234696 177.53525685 41.68725586 175.14306641 C43.44110358 170.10365203 45.1598968 165.05270559 46.875 160 C47.47373421 158.24211115 48.07269141 156.48429823 48.671875 154.7265625 C50.11714395 150.48524204 51.55943158 146.24291918 53 142 C51.08610474 141.54077148 51.08610474 141.54077148 49.13354492 141.07226562 C43.1641789 139.63994947 39.7844081 136.7140627 36.41796875 131.59375 C34.31872417 127.7538095 33 124.97955834 33 120.5625 C34.0658538 117.83124964 34.7417393 116.81368003 37 115 C39.60375977 114.10864258 39.60375977 114.10864258 42.69140625 113.39453125 C43.80064453 113.13349609 44.90988281 112.87246094 46.05273438 112.60351562 C47.21095703 112.34248047 48.36917969 112.08144531 49.5625 111.8125 C50.72458984 111.53986328 51.88667969 111.26722656 53.08398438 110.98632812 C61.64162359 109 61.64162359 109 64 109 C64.25686584 108.01685066 64.25686584 108.01685066 64.5189209 107.01383972 C66.40391433 99.93617649 68.57602008 92.99321202 70.90625 86.05078125 C71.2722229 84.95332077 71.6381958 83.85586029 72.01525879 82.72514343 C72.78364841 80.42297514 73.55348368 78.1212889 74.32470703 75.82006836 C75.49988775 72.31283499 76.67022794 68.80401451 77.83984375 65.29492188 C78.59086246 63.04678032 79.34215516 60.79873026 80.09375 58.55078125 C80.44070923 57.51101639 80.78766846 56.47125153 81.1451416 55.39997864 C82.08582232 52.59609817 83.03863923 49.79684942 84 47 C84.26893066 46.20580658 84.53786133 45.41161316 84.81494141 44.59335327 C86.06123781 41.05856609 86.89317552 39.09937161 89.6875 36.5 C93.70463374 34.68092057 96.66889008 34.15110246 101 35 C106.93938671 37.96969335 109.81767462 42.04418656 112.25 48.125 C115.65343928 65.70943628 108.11061087 83.37347931 103 100 C103.71542969 99.81824219 104.43085937 99.63648437 105.16796875 99.44921875 C108.44294064 98.62306155 111.72135155 97.81143808 115 97 C116.12535156 96.71382813 117.25070312 96.42765625 118.41015625 96.1328125 C124.41596455 94.65770169 129.81078581 93.51041635 136 94 C138.47656789 95.51789645 138.86074672 96.5417867 139.69921875 99.30078125 C140.34367041 105.08410715 136.23591302 110.41096897 132.8125 114.8125 C127.04670946 119.29700375 121.31828121 122.07831516 114.00292969 122.76171875 C106.73578712 123.64578485 100.61180938 125.07002618 95 130 C87.64596558 141.04892117 85.68687967 156.2889119 82.91290283 169.01947021 C81.81531088 173.95444007 80.60169892 178.86043279 79.39453125 183.76953125 C77.8278712 190.16862622 76.30331268 196.57343878 74.85239792 202.99977112 C73.25483037 210.02707173 71.55752223 217.01498873 69.52246094 223.9296875 C69.15828064 225.17733887 68.79410034 226.42499023 68.41888428 227.71044922 C65.8682953 233.62375173 61.80879654 236.52817169 56 239 C50.07608338 240.79967087 42.91892118 241.09303626 37.125 238.75 C31.95333694 235.85386869 29.15625087 234.10363066 27.359375 228.3515625 C27.10124023 227.53768066 26.84310547 226.72379883 26.57714844 225.88525391 C26.38668945 225.26312012 26.19623047 224.64098633 26 224 C24.78376953 225.37671875 24.78376953 225.37671875 23.54296875 226.78125 C11.68383433 240.00874609 -0.65370666 250.6303143 -18.92578125 252.8359375 C-26.80422249 253.25638799 -31.42810881 251.29083243 -37.2734375 246.046875 C-42.92488453 239.34696947 -42.98864564 232.04506855 -42.34033203 223.69335938 C-40.11903158 206.11417242 -33.11818912 188.89544232 -26.82861328 172.44995117 C-25.98887069 169.96709409 -25.37374486 167.59451089 -25 165 C-25.97562765 163.79125148 -25.97562765 163.79125148 -27.79296875 163.98046875 C-30.54865194 164.21872521 -33.26310614 164.59914181 -36 165 C-37.1653125 165.10828125 -38.330625 165.2165625 -39.53125 165.328125 C-43.64352492 166.01350415 -46.39130374 166.88737715 -50 169 C-51.66282837 171.46288037 -52.53209063 174.08791243 -53.45703125 176.8984375 C-53.74263916 177.6958284 -54.02824707 178.4932193 -54.32250977 179.31477356 C-54.92850116 181.01235516 -55.52385304 182.71376705 -56.10928345 184.41854858 C-56.9695455 186.91173756 -57.86391454 189.38917815 -58.77416992 191.86450195 C-60.36172599 196.18428615 -61.92394328 200.51270015 -63.47894287 204.84429932 C-65.30564012 209.93085786 -67.14152334 215.01410246 -68.9765625 220.09765625 C-69.3710257 221.19080139 -69.76548889 222.28394653 -70.17190552 223.41021729 C-74.88407312 236.46125511 -79.62966329 249.50008469 -84.3840332 262.53579712 C-85.36040859 265.21300266 -86.33583565 267.89055022 -87.31030273 270.56845093 C-90.06046613 278.12475647 -92.82575065 285.6752494 -95.60925293 293.21936035 C-96.55986363 295.79864782 -97.50319234 298.38045579 -98.44152832 300.9642334 C-99.63750516 304.25679041 -100.8464444 307.54433237 -102.06393814 310.82899094 C-102.73121962 312.6388115 -103.38576259 314.45331326 -104.0397644 316.26797485 C-109.44485786 330.75831163 -117.29835096 342.40076608 -131 350 C-136.66216475 352.56581912 -141.80544311 353.7226983 -148 353 C-151.44312714 350.8755173 -152.71617547 349.85147359 -154 346 C-155.09700247 339.43187126 -153.48746774 333.77554156 -151.359375 327.6328125 C-151.08981491 326.84109146 -150.82025482 326.04937042 -150.54252625 325.23365784 C-148.09017635 318.10674799 -145.42195029 311.07237692 -142.65246582 304.06356812 C-141.76756372 301.82376014 -140.88854402 299.58171103 -140.01074219 297.33911133 C-138.70801497 294.01130204 -137.40354408 290.68418372 -136.09814453 287.35742188 C-132.69392851 278.6734716 -129.32193024 269.97698128 -125.94952393 261.28063965 C-125.15043253 259.2200711 -124.35107581 257.15960541 -123.55145264 255.09924316 C-118.95864467 243.26411865 -114.38761474 231.4209983 -109.85546875 219.5625 C-109.43961517 218.47463699 -109.0237616 217.38677399 -108.5953064 216.26594543 C-106.59691353 211.03625467 -104.60155004 205.80543222 -102.61035156 200.57299805 C-101.89521531 198.69839235 -101.18004779 196.82379859 -100.46484375 194.94921875 C-100.14178757 194.09743042 -99.81873138 193.24564209 -99.48588562 192.36804199 C-99.18624405 191.58360718 -98.88660248 190.79917236 -98.57788086 189.9909668 C-98.31986191 189.31269333 -98.06184296 188.63441986 -97.79600525 187.93559265 C-96.95936581 185.90119257 -96.00670412 183.95510859 -95 182 C-101.20583222 183.66029692 -107.39644183 185.37015326 -113.57910156 187.11474609 C-115.68271173 187.70203362 -117.78951463 188.27800973 -119.89941406 188.84228516 C-122.93690093 189.65676679 -125.96047523 190.51162007 -128.984375 191.375 C-130.39707672 191.73960327 -130.39707672 191.73960327 -131.83831787 192.11157227 C-136.6657597 193.49197822 -136.6657597 193.49197822 -140.3782959 196.68647766 C-141.44760992 198.75431964 -142.2403217 200.8002961 -143 203 C-143.60512357 204.46630852 -144.21327425 205.93137091 -144.82421875 207.39526367 C-145.44897341 208.98473127 -146.06989668 210.57570879 -146.6875 212.16796875 C-147.02686081 213.03328217 -147.36622162 213.89859558 -147.71586609 214.79013062 C-148.43947304 216.63533709 -149.16162187 218.48111595 -149.88241577 220.3274231 C-151.7717515 225.16253559 -153.67709848 229.99132807 -155.58203125 234.8203125 C-155.96003372 235.7788765 -156.33803619 236.73744049 -156.72749329 237.72505188 C-160.00265049 246.02276449 -163.31075095 254.30560208 -166.6875 262.5625 C-167.14318359 263.69389404 -167.59886719 264.82528809 -168.06835938 265.9909668 C-174.53409389 281.68713602 -182.88773195 293.51378961 -198.58984375 300.70703125 C-203.0507749 302.39840377 -207.20860543 303.80764037 -212 303 C-214.87646679 300.82797406 -216.40279455 299.19441089 -218 296 C-219.94536216 280.99292051 -211.18143562 266.67815599 -205.26953125 253.390625 C-201.73711639 245.43467592 -198.27804476 237.44767729 -194.84002686 229.45053101 C-194.15582289 227.86040197 -193.47015685 226.27090123 -192.78302002 224.68203735 C-191.81665204 222.4470808 -190.85497352 220.21016449 -189.89453125 217.97265625 C-189.60132492 217.29672424 -189.30811859 216.62079224 -189.00602722 215.92437744 C-187.49817152 212.58203195 -187.49817152 212.58203195 -187 209 C-187.63164062 209.2165625 -188.26328125 209.433125 -188.9140625 209.65625 C-197.57371721 212.35147394 -207.80526037 214.26405798 -216.4375 210.5 C-222.59776526 206.74567525 -227.46002968 200.90865539 -229.625 194.0078125 C-230.58763607 188.85369854 -229.72905271 185.26369137 -227.125 180.75 C-221.26918538 174.52097359 -210.16861898 173.1249817 -202.15234375 171.23828125 C-201.1738295 171.00215622 -200.19531525 170.76603119 -199.18714905 170.52275085 C-196.10533281 169.7800159 -193.02158073 169.04576949 -189.9375 168.3125 C-186.82164135 167.56712642 -183.70623627 166.81993955 -180.59144592 166.07011414 C-178.66346108 165.60644768 -176.73479911 165.14558588 -174.80540466 164.68782043 C-173.9401265 164.48057846 -173.07484833 164.27333649 -172.18334961 164.05981445 C-171.04064857 163.78812187 -171.04064857 163.78812187 -169.87486267 163.51094055 C-167.93011566 163.04685111 -167.93011566 163.04685111 -166 162 C-164.94077584 160.05133245 -164.94077584 160.05133245 -163.96313477 157.62768555 C-163.56344986 156.68711807 -163.16376495 155.7465506 -162.75196838 154.77748108 C-162.31948288 153.74102951 -161.88699738 152.70457794 -161.44140625 151.63671875 C-160.98495224 150.5577684 -160.52849823 149.47881805 -160.05821228 148.36717224 C-159.07050142 146.03073794 -158.08572275 143.69306242 -157.10351562 141.35430908 C-155.55942215 137.68017632 -154.00612369 134.01002331 -152.44921875 130.34130859 C-148.33978879 120.65317987 -144.2414125 110.96044239 -140.16748047 101.25732422 C-138.0239814 96.15247337 -135.8669005 91.05357393 -133.69992065 85.95864868 C-132.90634277 84.08459067 -132.11842062 82.20812662 -131.3364563 80.32919312 C-121.84155374 57.52118962 -121.84155374 57.52118962 -111.75 53.0625 C-110.91984375 52.68222656 -110.0896875 52.30195312 -109.234375 51.91015625 C-104.76588118 50.0899481 -100.80090894 49.47387299 -96 50 C-92.35792064 51.61870194 -89.83351857 53.42946383 -88 57 C-87.65405755 62.69007941 -88.24423057 66.59861842 -90.421875 71.9453125 C-90.67779419 72.58488892 -90.93371338 73.22446533 -91.1973877 73.88342285 C-92.03550404 75.96936506 -92.89260817 78.04691573 -93.75 80.125 C-94.34345553 81.59239775 -94.93555759 83.06034354 -95.52636719 84.52880859 C-96.74232423 87.54554949 -97.96559755 90.55915402 -99.1953125 93.5703125 C-101.66407767 99.61970934 -104.08300891 105.68887598 -106.50415039 111.75744629 C-107.72881599 114.82392076 -108.95890126 117.88822465 -110.1875 120.953125 C-114.18442206 130.94543014 -118.1003717 140.96938928 -122 151 C-112.54836236 149.44028329 -103.30427018 147.19075078 -94.01220703 144.88085938 C-92.09216149 144.40476016 -90.17109473 143.93278533 -88.25 143.4609375 C-87.12078125 143.18040527 -85.9915625 142.89987305 -84.828125 142.61083984 C-82 142 -82 142 -79 142 C-78.87473938 141.28415237 -78.74947876 140.56830475 -78.62042236 139.83076477 C-77.99555824 136.97973386 -77.12389849 134.42908585 -76.07324219 131.70776367 C-75.6743428 130.66907639 -75.27544342 129.6303891 -74.86445618 128.56022644 C-74.42965439 127.4407814 -73.9948526 126.32133636 -73.546875 125.16796875 C-73.09511398 123.9962764 -72.64335297 122.82458405 -72.17790222 121.61738586 C-70.95857089 118.45887544 -69.73540944 115.30190856 -68.50992966 112.14578247 C-67.7486065 110.18390905 -66.98881969 108.22144748 -66.22952271 106.25878906 C-60.09573369 90.40625175 -53.91746638 74.5745355 -47.4362793 58.86010742 C-44.72308048 52.27847884 -42.08759042 45.67809405 -39.5390625 39.03125 C-38.9520073 37.50842383 -38.36484982 35.98563708 -37.77758789 34.46289062 C-36.66673853 31.58113388 -35.57192809 28.69398925 -34.48608398 25.80273438 C-31.01523731 16.70401729 -27.67175003 8.39283399 -18.75 3.5625 C-17.89921875 3.08941406 -17.0484375 2.61632812 -16.171875 2.12890625 C-10.85440847 -0.63502869 -5.96236081 -0.71517235 0 0 Z " fill="black" transform="translate(557,16)"/>
<path d="M0 0 C2 2 2 2 2.375 5.875 C2.27292714 8.69221088 2.06754911 9.88332426 0.625 12.375 C-3.88327751 15.16583846 -8.75740389 15.54291898 -13.95019531 16.27490234 C-47.15742226 20.96307142 -78.46874487 32.38911264 -109 46 C-110.01497559 46.45036621 -111.02995117 46.90073242 -112.07568359 47.36474609 C-122.97574071 52.2279555 -133.72655577 57.30869034 -144.32421875 62.796875 C-145.95187367 63.63360008 -147.57964082 64.47010688 -149.20751953 65.30639648 C-152.39556392 66.9449794 -155.56608521 68.61247318 -158.72998047 70.29711914 C-160.2061631 71.05980769 -161.68286554 71.82149122 -163.16015625 72.58203125 C-163.81860031 72.94282776 -164.47704437 73.30362427 -165.15544128 73.675354 C-170.17780618 76.21485679 -174.5432363 76.55634305 -180 75 C-183.74273468 71.72510715 -184.56683303 68.85818528 -185 64 C-184.27490234 60.95141602 -184.27490234 60.95141602 -183.0859375 57.75390625 C-182.65410156 56.58666016 -182.22226562 55.41941406 -181.77734375 54.21679688 C-181.31457031 53.01087891 -180.85179687 51.80496094 -180.375 50.5625 C-179.93542969 49.36044922 -179.49585938 48.15839844 -179.04296875 46.91992188 C-174.92706411 35.97837479 -172.19041736 30.38204232 -161.35888672 25.39355469 C-155.6753988 23.03555578 -149.91358868 21.02439747 -144.0625 19.125 C-143.42026489 18.91444977 -142.77802979 18.70389954 -142.11633301 18.48696899 C-119.40407773 11.0495934 -96.56410077 5.04847524 -73 1 C-72.01547852 0.8232373 -71.03095703 0.64647461 -70.01660156 0.46435547 C-62.98578666 -0.76837922 -55.99078259 -1.57879801 -48.875 -2.125 C-47.25029785 -2.25128784 -47.25029785 -2.25128784 -45.59277344 -2.38012695 C-10.34700512 -4.95089057 -10.34700512 -4.95089057 0 0 Z " fill="black" transform="translate(652,268)"/>
<path d="M0 0 C3.01496745 1.3215386 4.70830394 3.2458897 6.7734375 5.77734375 C7.0415625 4.80796875 7.3096875 3.83859375 7.5859375 2.83984375 C7.9778125 1.82921875 8.3696875 0.81859375 8.7734375 -0.22265625 C16.58515201 -2.82656109 28.05486152 -2.15270136 35.7734375 0.77734375 C39.69185177 3.02834769 40.57843968 4.22020712 42.0859375 8.52734375 C42.3128125 9.59984375 42.5396875 10.67234375 42.7734375 11.77734375 C43.3096875 10.89046875 43.8459375 10.00359375 44.3984375 9.08984375 C47.97702618 3.75976272 52.42552114 0.07043782 58.7734375 -1.22265625 C65.6681811 -1.7680032 72.77305694 -2.10677356 78.7734375 1.77734375 C84.05771536 6.51749795 87.38542612 11.11402175 87.984375 18.3125 C88.23538376 25.33109106 87.85646531 31.40069425 82.96875 36.75390625 C76.03887731 43.10846875 70.5689518 44.25196365 61.22265625 44.0859375 C54.92167694 43.52220322 50.89592833 41.19075312 46.4609375 36.77734375 C42.7411172 32.14530594 41.84406958 26.49677304 40.7734375 20.77734375 C40.1546875 21.43734375 39.5359375 22.09734375 38.8984375 22.77734375 C36.7734375 24.77734375 36.7734375 24.77734375 34.7734375 24.77734375 C35.44632812 25.81375 36.11921875 26.85015625 36.8125 27.91796875 C37.67532197 29.2872297 38.5372553 30.65705089 39.3984375 32.02734375 C39.84445312 32.70925781 40.29046875 33.39117187 40.75 34.09375 C41.91412642 35.96726596 42.97015717 37.72233306 43.7734375 39.77734375 C43.046875 42.26171875 43.046875 42.26171875 41.7734375 43.77734375 C35.52867052 44.2671294 35.52867052 44.2671294 32.26171875 42.1484375 C29.48515863 39.5026416 27.94959673 36.96598925 26.1484375 33.58984375 C23.99090299 29.00655891 23.99090299 29.00655891 19.7734375 26.77734375 C19.82564453 28.24107422 19.82564453 28.24107422 19.87890625 29.734375 C19.90597656 31.00667969 19.93304688 32.27898437 19.9609375 33.58984375 C20.01314453 35.48669922 20.01314453 35.48669922 20.06640625 37.421875 C19.7734375 40.77734375 19.7734375 40.77734375 18.44921875 42.703125 C15.82532403 44.38510879 13.80539198 44.15633806 10.7734375 43.77734375 C8.55911766 42.14819736 7.85988914 41.23088535 7.34106445 38.5090332 C7.31488037 37.6449585 7.28869629 36.78088379 7.26171875 35.890625 C7.22626953 34.95283203 7.19082031 34.01503906 7.15429688 33.04882812 C7.12045898 31.58413086 7.12045898 31.58413086 7.0859375 30.08984375 C7.05177734 29.10177734 7.01761719 28.11371094 6.98242188 27.09570312 C6.89993212 24.65636322 6.83078682 22.21738312 6.7734375 19.77734375 C6.2165625 20.56109375 5.6596875 21.34484375 5.0859375 22.15234375 C2.60374301 24.96996993 1.36023131 25.84530098 -2.2265625 26.77734375 C-5.55859375 26.97265625 -5.55859375 26.97265625 -9.0390625 26.90234375 C-10.20050781 26.88429688 -11.36195313 26.86625 -12.55859375 26.84765625 C-13.43902344 26.82445312 -14.31945312 26.80125 -15.2265625 26.77734375 C-15.19175781 27.83695312 -15.15695312 28.8965625 -15.12109375 29.98828125 C-15.09295851 31.37628627 -15.06565807 32.76430838 -15.0390625 34.15234375 C-15.00135742 35.20035156 -15.00135742 35.20035156 -14.96289062 36.26953125 C-14.93359375 38.30078125 -14.93359375 38.30078125 -15.2265625 41.77734375 C-18.66763516 44.07139219 -20.19496059 44.04027431 -24.2265625 43.77734375 C-25.2265625 42.77734375 -25.2265625 42.77734375 -25.34681702 41.02464294 C-25.34459641 40.26297318 -25.34237579 39.50130341 -25.34008789 38.71655273 C-25.34001236 37.85573593 -25.33993683 36.99491913 -25.33985901 36.10801697 C-25.33469772 35.17260574 -25.32953644 34.23719452 -25.32421875 33.2734375 C-25.3228038 32.32042252 -25.32138885 31.36740753 -25.31993103 30.38551331 C-25.31431402 27.3285921 -25.30175866 24.27174298 -25.2890625 21.21484375 C-25.28404969 19.14778751 -25.27948641 17.08073013 -25.27539062 15.01367188 C-25.26433906 9.93486787 -25.24706305 4.85611805 -25.2265625 -0.22265625 C-18.96189968 -3.35498766 -6.63549065 -1.7414985 0 0 Z M56.7734375 11.77734375 C53.81207287 16.12067854 53.21653312 19.5795695 53.7734375 24.77734375 C55.07275693 28.33337589 56.14304595 30.26621546 59.0859375 32.65234375 C62.34279359 34.01567886 64.27013919 34.27781494 67.7734375 33.77734375 C71.11818915 32.04064578 73.21131259 30.72273565 75.1484375 27.46484375 C76.24023848 22.77009955 76.23154985 19.10077942 74.6484375 14.52734375 C72.37360969 11.19092962 70.53646542 10.15968054 66.7734375 8.77734375 C62.31865312 8.77734375 60.49200167 9.40379216 56.7734375 11.77734375 Z M-15.2265625 9.77734375 C-15.2265625 12.08734375 -15.2265625 14.39734375 -15.2265625 16.77734375 C-13.339375 16.83921875 -13.339375 16.83921875 -11.4140625 16.90234375 C-10.70636719 16.92554688 -9.99867188 16.94875 -9.26953125 16.97265625 C-6.91296531 16.90988837 -6.91296531 16.90988837 -4.2265625 14.77734375 C-4.5565625 13.12734375 -4.8865625 11.47734375 -5.2265625 9.77734375 C-8.5265625 9.77734375 -11.8265625 9.77734375 -15.2265625 9.77734375 Z M19.7734375 9.77734375 C19.7734375 12.08734375 19.7734375 14.39734375 19.7734375 16.77734375 C21.0521875 16.79796875 22.3309375 16.81859375 23.6484375 16.83984375 C24.36773437 16.85144531 25.08703125 16.86304688 25.828125 16.875 C27.85529154 16.90383617 27.85529154 16.90383617 29.7734375 15.77734375 C29.8161585 14.1112247 29.81407582 12.4435149 29.7734375 10.77734375 C28.76507688 9.54467027 28.76507688 9.54467027 26.70703125 9.6796875 C25.47146484 9.69708984 25.47146484 9.69708984 24.2109375 9.71484375 C22.97150391 9.72837891 22.97150391 9.72837891 21.70703125 9.7421875 C20.74990234 9.75958984 20.74990234 9.75958984 19.7734375 9.77734375 Z " fill="black" transform="translate(330.2265625,395.22265625)"/>
<path d="M0 0 C4.02533666 0.48988701 5.92942798 1.81369297 8.4609375 4.83203125 C11.3451492 8.63021334 13.94019743 12.60408962 16.5 16.625 C17.27032326 17.78982592 18.04347055 18.95279259 18.8203125 20.11328125 C19.37460937 20.94214844 19.92890625 21.77101563 20.5 22.625 C20.51458252 22.02961426 20.52916504 21.43422852 20.54418945 20.82080078 C20.61854344 18.12986949 20.71524187 15.44019667 20.8125 12.75 C20.83505859 11.81285156 20.85761719 10.87570312 20.88085938 9.91015625 C20.91630859 9.01425781 20.95175781 8.11835938 20.98828125 7.1953125 C21.01446533 6.36789551 21.04064941 5.54047852 21.06762695 4.68798828 C21.5 2.625 21.5 2.625 24.5 0.625 C27.3157766 0.55926202 29.70318424 1.08368082 32.5 1.625 C33.99983085 4.6246617 33.73902055 7.74446961 33.81640625 11.0390625 C33.83718735 11.76870209 33.85796844 12.49834167 33.87937927 13.25009155 C33.94481917 15.58329763 34.00373368 17.91661721 34.0625 20.25 C34.10569053 21.83074095 34.14930499 23.41147039 34.19335938 24.9921875 C34.30049481 28.86967504 34.40177782 32.74727685 34.5 36.625 C34.85827881 35.63580566 35.21655762 34.64661133 35.58569336 33.62744141 C36.91325098 29.96309921 38.24239429 26.29933388 39.57202148 22.63574219 C40.14765105 21.04898559 40.72284846 19.46207215 41.29760742 17.875 C42.12305387 15.59594164 42.95004462 13.31744888 43.77734375 11.0390625 C44.03466782 10.32755035 44.29199188 9.61603821 44.55711365 8.88296509 C46.38612829 3.85274341 46.38612829 3.85274341 47.5 1.625 C52.55109916 0.61478017 55.89529766 -0.04012072 60.5 2.625 C61.86233835 5.28621549 62.87268831 7.67422063 63.83203125 10.4765625 C64.25424202 11.63761002 64.25424202 11.63761002 64.6849823 12.82211304 C65.5786055 15.29210181 66.44572417 17.77047835 67.3125 20.25 C67.9142917 21.9277027 68.51778772 23.60479512 69.12304688 25.28125 C70.60188976 29.3890173 72.05703441 33.50449997 73.5 37.625 C73.51458252 36.57521973 73.52916504 35.52543945 73.54418945 34.44384766 C73.60207993 30.55596526 73.67931206 26.66866774 73.76245117 22.78125 C73.79574435 21.09742715 73.82376256 19.41349152 73.84643555 17.72949219 C73.87990205 15.31135914 73.93221036 12.89426376 73.98828125 10.4765625 C73.99467117 9.7213028 74.0010611 8.96604309 74.00764465 8.18789673 C74.06762695 6.06494141 74.06762695 6.06494141 74.5 2.625 C78.71084037 -0.18222691 80.61554218 0.67962107 85.5 1.625 C86.98679725 4.59859449 86.61112605 7.28799179 86.59765625 10.6015625 C86.5962413 11.28681 86.59482635 11.9720575 86.59336853 12.67807007 C86.58776675 14.86875761 86.57521406 17.0593433 86.5625 19.25 C86.55748522 20.73437352 86.55292228 22.21874865 86.54882812 23.703125 C86.53779677 27.34378315 86.52053099 30.98438164 86.5 34.625 C87.87285156 34.60759766 87.87285156 34.60759766 89.2734375 34.58984375 C91.05621094 34.57630859 91.05621094 34.57630859 92.875 34.5625 C94.05835938 34.55089844 95.24171875 34.53929687 96.4609375 34.52734375 C99.5 34.625 99.5 34.625 101.5 35.625 C101.52689216 37.10406892 101.54634621 38.58327483 101.5625 40.0625 C101.57410156 40.88621094 101.58570313 41.70992188 101.59765625 42.55859375 C101.5 44.625 101.5 44.625 100.5 45.625 C96.71504445 45.87752843 92.91738304 45.81022639 89.125 45.8125 C87.52398438 45.83086914 87.52398438 45.83086914 85.890625 45.84960938 C84.35535156 45.85250977 84.35535156 45.85250977 82.7890625 45.85546875 C81.84756348 45.85957764 80.90606445 45.86368652 79.93603516 45.86791992 C77.5 45.625 77.5 45.625 74.5 43.625 C73.51 44.285 72.52 44.945 71.5 45.625 C68.5625 46 68.5625 46 65.5 45.625 C62.65219381 43.39293569 61.65002334 42.07507001 60.5 38.625 C53.57 38.13 53.57 38.13 46.5 37.625 C46.17 39.275 45.84 40.925 45.5 42.625 C45.005 43.615 45.005 43.615 44.5 44.625 C42.5390625 45.07421875 42.5390625 45.07421875 40.125 45.3125 C39.33351563 45.39886719 38.54203125 45.48523438 37.7265625 45.57421875 C35.5 45.625 35.5 45.625 32.5 44.625 C31.51 45.12 31.51 45.12 30.5 45.625 C24.81571627 46.18410987 24.81571627 46.18410987 22.5 45.625 C17.87446225 41.81175181 14.90778654 36.9550611 11.75 31.9375 C11.25628906 31.16599609 10.76257813 30.39449219 10.25390625 29.59960938 C6.70076885 24.0265377 6.70076885 24.0265377 5.5 21.625 C5.48541748 22.28097168 5.47083496 22.93694336 5.45581055 23.61279297 C5.38148586 26.57580031 5.28477631 29.53766117 5.1875 32.5 C5.15366211 34.04880859 5.15366211 34.04880859 5.11914062 35.62890625 C5.08369141 36.61503906 5.04824219 37.60117187 5.01171875 38.6171875 C4.98553467 39.52839355 4.95935059 40.43959961 4.93237305 41.37841797 C4.78968994 42.11979004 4.64700684 42.86116211 4.5 43.625 C1.03076119 45.93782587 -0.42205575 46.04978586 -4.5 45.625 C-6.16323853 44.34753418 -6.16323853 44.34753418 -7.5 42.625 C-7.79841479 39.64760864 -7.92027068 36.88381789 -7.8984375 33.90625 C-7.90274277 32.62482117 -7.90274277 32.62482117 -7.90713501 31.31750488 C-7.90917581 29.51195615 -7.90364483 27.70638531 -7.89111328 25.90087891 C-7.87505944 23.13523988 -7.89096099 20.37106225 -7.91015625 17.60546875 C-7.90817382 15.85155927 -7.90433015 14.0976507 -7.8984375 12.34375 C-7.90451019 11.51556763 -7.91058289 10.68738525 -7.9168396 9.83410645 C-7.84586343 4.04807462 -7.84586343 4.04807462 -6.1065979 1.92053223 C-3.98488588 0.20962106 -2.71884145 0.02648222 0 0 Z M52.5 18.625 C51.84 21.595 51.18 24.565 50.5 27.625 C52.81 27.625 55.12 27.625 57.5 27.625 C56.51 24.655 55.52 21.685 54.5 18.625 C53.84 18.625 53.18 18.625 52.5 18.625 Z " fill="black" transform="translate(617.5,393.375)"/>
<path d="M0 0 C0.33 -0.99 0.66 -1.98 1 -3 C5.21746325 -3.0989211 9.43431121 -3.17149012 13.65258789 -3.21972656 C15.08727786 -3.23983525 16.52188593 -3.26712673 17.95629883 -3.30175781 C20.01924839 -3.3503146 22.08111431 -3.37297406 24.14453125 -3.390625 C25.38565674 -3.41157227 26.62678223 -3.43251953 27.90551758 -3.45410156 C31 -3 31 -3 32.9284668 -0.97558594 C33.45887573 0.0023291 33.45887573 0.0023291 34 1 C34.33 0.54625 34.66 0.0925 35 -0.375 C39.37828328 -3.93235516 44.70083599 -4.2186122 50.125 -3.875 C54.734769 -3.29877888 57.42558281 -1.91597192 61 1 C60.875 3.3125 60.875 3.3125 60 6 C57.0625 7.875 57.0625 7.875 54 9 C53.01 8.505 53.01 8.505 52 8 C50.62657169 7.9310528 49.24997898 7.91532292 47.875 7.9375 C45.956875 7.9684375 45.956875 7.9684375 44 8 C44 8.99 44 9.98 44 11 C44.96421875 11.43570312 45.9284375 11.87140625 46.921875 12.3203125 C48.19833009 12.92099725 49.4743491 13.5226093 50.75 14.125 C51.70132813 14.55039062 51.70132813 14.55039062 52.671875 14.984375 C57.22793174 17.16748552 59.60506992 19.38798119 62 24 C63.05580932 28.65798228 62.40159509 32.21115251 60.25 36.4375 C56.92529027 40.22397497 55.16024604 40.91128208 50.06640625 41.30078125 C48.56516959 41.31533068 47.06379348 41.31891031 45.5625 41.3125 C44.43618164 41.33666992 44.43618164 41.33666992 43.28710938 41.36132812 C38.70125649 41.36536142 35.73090689 40.94770124 32 38 C30.6875 35.8125 30.6875 35.8125 30 34 C31.65 32.35 33.3 30.7 35 29 C36.010625 29.33 37.02125 29.66 38.0625 30 C41.75479911 31.07001321 45.15248207 31.15704155 49 31 C49.33 29.68 49.66 28.36 50 27 C48.55367187 26.32904297 48.55367187 26.32904297 47.078125 25.64453125 C45.80177027 25.03450877 44.52574583 24.42379487 43.25 23.8125 C42.61578125 23.52052734 41.9815625 23.22855469 41.328125 22.92773438 C37.18898567 20.92283876 34.51624476 18.99638874 32 15 C31.259262 12.27921236 31.19246236 9.83881975 31 7 C28.36 7.33 25.72 7.66 23 8 C22.96241577 9.44620728 22.96241577 9.44620728 22.92407227 10.92163086 C22.83014694 14.48687842 22.72989061 18.05192433 22.62768555 21.61694336 C22.58428015 23.16214289 22.54260929 24.70739214 22.50268555 26.25268555 C22.44511801 28.46939096 22.38138576 30.6858448 22.31640625 32.90234375 C22.29133751 33.94454323 22.29133751 33.94454323 22.26576233 35.00779724 C22.11387171 39.88612829 22.11387171 39.88612829 21 41 C19.50261876 41.0979057 18.00057108 41.12974864 16.5 41.125 C15.6853125 41.12757813 14.870625 41.13015625 14.03125 41.1328125 C12 41 12 41 11 40 C10.91156207 37.55169574 10.88471248 35.13179401 10.90234375 32.68359375 C10.9037587 31.95253922 10.90517365 31.22148468 10.90663147 30.46827698 C10.91224592 28.12464368 10.92480078 25.78110461 10.9375 23.4375 C10.94251314 21.85221492 10.94707637 20.26692834 10.95117188 18.68164062 C10.96222003 14.7877239 10.97949428 10.89387795 11 7 C9.2507786 6.91857073 7.50045458 6.86061459 5.75 6.8125 C4.77546875 6.77769531 3.8009375 6.74289062 2.796875 6.70703125 C-0.41374321 7.04333902 -1.57118642 7.96632963 -4 10 C-7.77560787 10.46043998 -8.74236778 10.17175481 -12 8 C-17.66432484 7.32731749 -17.66432484 7.32731749 -22.4375 9.875 C-25.74935304 14.37912014 -25.34192629 18.56337197 -25 24 C-24.36632896 26.97834121 -24.36632896 26.97834121 -23 29 C-20.22947819 29.92350727 -18.43311242 30.16329585 -15.5625 30.1875 C-14.80066406 30.20167969 -14.03882813 30.21585937 -13.25390625 30.23046875 C-10.75756971 29.97521077 -9.20561773 29.14875923 -7 28 C-4.17167733 28.20695044 -2.48410061 28.67726626 -0.125 30.25 C1 32 1 32 1.125 34.4375 C-0.51173685 38.16562283 -3.36229665 39.52875679 -7 41 C-10.0004597 41.56387476 -12.89051349 41.62069009 -15.9375 41.5625 C-16.73365723 41.55299316 -17.52981445 41.54348633 -18.35009766 41.53369141 C-24.27995961 41.3225644 -28.78591838 40.47089546 -33 36 C-38.72010322 28.81320365 -38.55606705 21.91846 -38 13 C-37.00486782 6.9296937 -33.98898696 3.21428154 -29.234375 -0.5859375 C-20.11806108 -6.35535295 -9.33036793 -3.9740456 0 0 Z " fill="black" transform="translate(596,455)"/>
<path d="M0 0 C4.34906397 4.01791697 6.7307814 8.37981428 7.3359375 14.26953125 C7.4273224 22.55814191 7.19735188 28.65955658 1.28125 34.77734375 C-4.0313853 39.56096664 -8.22916725 40.201855 -15.3125 40.25 C-16.05951172 40.270625 -16.80652344 40.29125 -17.57617188 40.3125 C-23.44389776 40.35371318 -27.32669701 39.07129965 -32.046875 35.4140625 C-37.57606666 29.60587493 -38.41420316 23.84250468 -39 16 C-41.97 19.465 -41.97 19.465 -45 23 C-44.41089844 23.89203125 -43.82179688 24.7840625 -43.21484375 25.703125 C-42.45507096 26.88499379 -41.69599237 28.06730906 -40.9375 29.25 C-40.54755859 29.83652344 -40.15761719 30.42304688 -39.75585938 31.02734375 C-36.94317203 35.45794859 -36.94317203 35.45794859 -37.25390625 38.421875 C-37.50011719 38.94265625 -37.74632812 39.4634375 -38 40 C-39.41493551 40.10884119 -40.83232943 40.18597617 -42.25 40.25 C-43.03890625 40.29640625 -43.8278125 40.3428125 -44.640625 40.390625 C-47.90286191 39.85051955 -48.91433229 38.52160645 -51 36 C-52.13648322 34.32655452 -53.22073024 32.61644126 -54.25 30.875 C-54.77078125 30.00617188 -55.2915625 29.13734375 -55.828125 28.2421875 C-57 26 -57 26 -57 24 C-58.32 24 -59.64 24 -61 24 C-60.98839844 25.07121094 -60.97679687 26.14242188 -60.96484375 27.24609375 C-60.95546701 28.64322743 -60.94636669 30.04036299 -60.9375 31.4375 C-60.92912109 32.14455078 -60.92074219 32.85160156 -60.91210938 33.58007812 C-60.90346412 35.38693559 -60.94779989 37.19387603 -61 39 C-62 40 -62 40 -64.03125 40.1328125 C-64.8459375 40.13023437 -65.660625 40.12765625 -66.5 40.125 C-67.3146875 40.12757813 -68.129375 40.13015625 -68.96875 40.1328125 C-71 40 -71 40 -72 39 C-72.1011692 35.90918535 -72.13968558 32.84117445 -72.1328125 29.75 C-72.13376923 28.82155273 -72.13472595 27.89310547 -72.13571167 26.93652344 C-72.13639355 24.96940035 -72.13453872 23.00227504 -72.13037109 21.03515625 C-72.12502295 18.01296974 -72.13031582 14.99093185 -72.13671875 11.96875 C-72.13605797 10.06249967 -72.13477681 8.15624943 -72.1328125 6.25 C-72.13483673 5.33959961 -72.13686096 4.42919922 -72.13894653 3.49121094 C-72.11494969 -2.88505031 -72.11494969 -2.88505031 -71 -4 C-67.65439764 -4.28160918 -64.29352529 -4.2319204 -60.9375 -4.25 C-60.00744141 -4.270625 -59.07738281 -4.29125 -58.11914062 -4.3125 C-52.02811042 -4.34674332 -47.53514397 -3.58810486 -42 -1 C-39.67758522 1.3998286 -38.4752413 4.03092193 -37 7 C-36.36384766 6.18595703 -36.36384766 6.18595703 -35.71484375 5.35546875 C-30.90693379 -0.50912472 -27.48189536 -2.83080991 -20.125 -4.75 C-12.71578714 -5.34273703 -6.20004468 -4.27776009 0 0 Z M-61 6 C-61 8.64 -61 11.28 -61 14 C-55.71486665 14.46312039 -55.71486665 14.46312039 -50.9375 12.75 C-49.80302258 11.01619861 -49.80302258 11.01619861 -50.1875 8.875 C-50.8435566 6.81035868 -50.8435566 6.81035868 -53 6 C-54.37342831 5.9310528 -55.75002102 5.91532292 -57.125 5.9375 C-59.043125 5.9684375 -59.043125 5.9684375 -61 6 Z M-24 9 C-27.10577027 13.6586554 -26.61853384 18.54364795 -26 24 C-24.19196596 27.07365786 -23.13960536 28.43019732 -20 30 C-16.94079426 30.42071592 -14.0532254 30.48514117 -11 30 C-8.24430553 27.81840855 -6.56411253 26.12822506 -5 23 C-4.57691462 18.40301468 -4.46105533 14.29346722 -6.25 10 C-9.17045823 6.66233345 -11.007449 6.09023191 -15.4375 5.6875 C-19.23927362 6.02098891 -21.00751736 6.69151339 -24 9 Z " fill="black" transform="translate(473,456)"/>
<path d="M0 0 C3.56173553 3.66067263 4.10769217 6.07238889 4.6875 11.125 C4.32655507 26.54250483 -3.97930062 41.84843975 -14.75 52.3125 C-20.18092253 56.74590615 -25.43179754 57.95697831 -32.25 58.6875 C-36.75489271 58.20483292 -40.12055941 57.05293155 -43.75 54.3125 C-47.67826187 48.47962631 -47.0187001 43.03834848 -45.75 36.3125 C-42.51220719 22.59360469 -36.37805503 9.29013539 -24.6640625 0.80078125 C-17.84376634 -2.81220091 -6.83529122 -4.11461019 0 0 Z " fill="black" transform="translate(606.75,68.6875)"/>
<path d="M0 0 C1.42119141 -0.05607422 1.42119141 -0.05607422 2.87109375 -0.11328125 C6.38181204 0.4421154 7.29120507 1.62188909 9.5625 4.3125 C10.65917969 6.87792969 10.65917969 6.87792969 11.484375 9.734375 C11.78730469 10.75917969 12.09023438 11.78398437 12.40234375 12.83984375 C12.70269531 13.90332031 13.00304687 14.96679688 13.3125 16.0625 C13.62832031 17.14144531 13.94414062 18.22039062 14.26953125 19.33203125 C15.04547608 21.98905447 15.80929094 24.64895969 16.5625 27.3125 C16.81418945 26.56564941 17.06587891 25.81879883 17.32519531 25.04931641 C18.47243397 21.67332218 19.64212464 18.30553943 20.8125 14.9375 C21.20824219 13.761875 21.60398437 12.58625 22.01171875 11.375 C22.40488281 10.25351562 22.79804688 9.13203125 23.203125 7.9765625 C23.55922852 6.93967285 23.91533203 5.9027832 24.28222656 4.83447266 C25.73032537 1.98190578 26.56951295 1.29729868 29.5625 0.3125 C32.03515625 0.08203125 32.03515625 0.08203125 34.625 0.125 C35.91083984 0.13466797 35.91083984 0.13466797 37.22265625 0.14453125 C39.5625 0.3125 39.5625 0.3125 42.5625 1.3125 C42.5625 15.5025 42.5625 29.6925 42.5625 44.3125 C39.79149606 45.69800197 37.6290294 45.5002467 34.5625 45.3125 C31.5625 43.3125 31.5625 43.3125 31.13012695 41.15771484 C31.10394287 40.28840332 31.07775879 39.4190918 31.05078125 38.5234375 C31.01533203 37.58242188 30.97988281 36.64140625 30.94335938 35.671875 C30.90952148 34.19460938 30.90952148 34.19460938 30.875 32.6875 C30.84083984 31.69492187 30.80667969 30.70234375 30.77148438 29.6796875 C30.68884343 27.22407094 30.61974873 24.76881859 30.5625 22.3125 C30.37139648 22.90264893 30.18029297 23.49279785 29.98339844 24.10083008 C29.1070148 26.78033877 28.21004646 29.45250962 27.3125 32.125 C27.01214844 33.05376953 26.71179688 33.98253906 26.40234375 34.93945312 C26.09941406 35.83212891 25.79648437 36.72480469 25.484375 37.64453125 C25.21206055 38.46671143 24.93974609 39.2888916 24.65917969 40.13598633 C23.35481555 42.72467874 22.01340031 43.80560817 19.5625 45.3125 C16.61731394 45.88773165 14.2853557 45.57829036 11.5625 44.3125 C9.48269137 41.58435596 8.58958759 38.55883042 7.5625 35.3125 C7.19125 34.23484375 6.82 33.1571875 6.4375 32.046875 C5.44715857 29.14462442 4.49206022 26.23468131 3.5625 23.3125 C3.54791748 23.90788574 3.53333496 24.50327148 3.51831055 25.11669922 C3.44395656 27.80763051 3.34725813 30.49730333 3.25 33.1875 C3.21616211 34.59322266 3.21616211 34.59322266 3.18164062 36.02734375 C3.14619141 36.92324219 3.11074219 37.81914062 3.07421875 38.7421875 C3.04803467 39.56960449 3.02185059 40.39702148 2.99487305 41.24951172 C2.5625 43.3125 2.5625 43.3125 -0.4375 45.3125 C-5.71969947 45.86272911 -5.71969947 45.86272911 -8.10272217 44.036026 C-10.44229645 41.015061 -9.82008392 37.22535402 -9.765625 33.55859375 C-9.76375183 32.70193619 -9.76187866 31.84527863 -9.75994873 30.96266174 C-9.75322909 29.15288395 -9.7393163 27.34312067 -9.71875 25.53344727 C-9.6875807 22.75718757 -9.67777756 19.98149549 -9.671875 17.20507812 C-9.66270551 15.44790972 -9.65232991 13.6907471 -9.640625 11.93359375 C-9.63637512 11.10025009 -9.63212524 10.26690643 -9.62774658 9.40830994 C-9.55470445 3.54690891 -9.55470445 3.54690891 -8.4375 1.3125 C-5.42189146 0.30729715 -3.1609098 0.08148886 0 0 Z " fill="black" transform="translate(428.4375,393.6875)"/>
<path d="M0 0 C4.80966408 3.40391675 7.73727508 6.44301381 10 12 C10.86041533 18.58217724 11.35651658 25.74011391 7.875 31.625 C4.14130455 36.47669465 -0.11265024 40.08514159 -6 42 C-13.8438829 42.80594257 -21.59184467 43.09671889 -28 38 C-32.59779029 33.64962443 -35.57298585 29.42959788 -36.37109375 23.01953125 C-36.53028213 15.3316691 -35.82250544 9.2102768 -31 3 C-22.51021361 -4.2793614 -9.73554811 -5.726793 0 0 Z M-21 10 C-24.23949816 13.67143125 -24.46527873 17.13705243 -24.28515625 21.8515625 C-23.73210276 26.01840384 -21.9488542 28.1627757 -18.875 30.875 C-14.74369714 32.49159677 -11.22669076 32.31145919 -7 31 C-3.38010079 27.56109575 -2.12530934 24.66034872 -1.75 19.6875 C-2.02853066 15.5791727 -2.68484754 13.39555694 -5 10 C-10.96353619 6.19348754 -15.01389813 6.30644778 -21 10 Z " fill="black" transform="translate(509,397)"/>
<path d="M0 0 C5.28427786 4.7401542 8.61198862 9.336678 9.2109375 16.53515625 C9.46194626 23.55374731 9.08302781 29.6233505 4.1953125 34.9765625 C-2.73456019 41.331125 -8.2044857 42.4746199 -17.55078125 42.30859375 C-24.02412175 41.72943871 -27.97187987 39.36449842 -32.375 34.6875 C-36.95872269 28.82083318 -37.73957208 22.22598296 -37 15 C-35.87873899 8.3834499 -33.30685507 4.49931987 -28.02734375 0.375 C-20.43920688 -4.77148204 -7.83830169 -5.07382539 0 0 Z M-22 10 C-24.96136463 14.34333479 -25.55690438 17.80222575 -25 23 C-23.70068057 26.55603214 -22.63039155 28.48887171 -19.6875 30.875 C-16.43064391 32.23833511 -14.50329831 32.50047119 -11 32 C-7.00782928 29.85036961 -4.67969832 28.20695083 -3 24 C-2.26836375 19.32093096 -2.59304639 15.82897959 -4.6875 11.5625 C-7.11814137 8.86908659 -8.51439824 7.87140044 -12 7 C-16.45478438 7 -18.28143583 7.62644841 -22 10 Z " fill="black" transform="translate(600,397)"/>
<path d="M0 0 C0.87398438 -0.02900391 1.74796875 -0.05800781 2.6484375 -0.08789062 C9.70966969 -0.15598856 16.06897274 1.12876598 21.38671875 6.06323242 C26.86243841 12.01911201 27.90636451 17.40627633 27.75 25.37109375 C27.30199891 30.64210663 25.6837837 33.85813717 22.3125 38 C15.34549662 43.728425 9.48193447 44.90315284 0.5625 44.625 C-0.39462891 44.61533203 -1.35175781 44.60566406 -2.33789062 44.59570312 C-9.330949 44.481551 -9.330949 44.481551 -10.5 43.3125 C-10.6011692 40.22168535 -10.63968558 37.15367445 -10.6328125 34.0625 C-10.63376923 33.13405273 -10.63472595 32.20560547 -10.63571167 31.24902344 C-10.63639355 29.28190035 -10.63453872 27.31477504 -10.63037109 25.34765625 C-10.62502295 22.32546974 -10.63031582 19.30343185 -10.63671875 16.28125 C-10.63605797 14.37499967 -10.63477681 12.46874943 -10.6328125 10.5625 C-10.63483673 9.65209961 -10.63686096 8.74169922 -10.63894653 7.80371094 C-10.60477116 -1.27711187 -8.13171949 0.08687734 0 0 Z M0.5 10.3125 C0.5 18.2325 0.5 26.1525 0.5 34.3125 C8.03237885 34.73204274 8.03237885 34.73204274 13.5 31.3125 C15.79331853 27.3810968 15.89318905 23.79485521 15.5 19.3125 C14.21482267 15.79517258 13.12752512 13.8354376 10.25 11.4375 C6.9153979 9.87076168 6.9153979 9.87076168 0.5 10.3125 Z " fill="black" transform="translate(492.5,451.6875)"/>
<path d="M0 0 C1.875 -0.36328125 1.875 -0.36328125 4 -0.3125 C4.70125 -0.30863281 5.4025 -0.30476563 6.125 -0.30078125 C8 0 8 0 10 2 C10.30297852 4.85742188 10.30297852 4.85742188 10.37890625 8.46875 C10.43014648 10.40814453 10.43014648 10.40814453 10.48242188 12.38671875 C10.5097649 13.75779969 10.53644995 15.12889389 10.5625 16.5 C10.62031746 19.17729593 10.68584491 21.85417064 10.75390625 24.53125 C10.77783447 25.72298828 10.8017627 26.91472656 10.82641602 28.14257812 C10.80922568 30.94524768 10.80922568 30.94524768 12 33 C14.97 33 17.94 33 21 33 C21.01981934 32.0713916 21.03963867 31.1427832 21.06005859 30.18603516 C21.13808613 26.7454948 21.22477462 23.30540109 21.31738281 19.86523438 C21.35569998 18.37541111 21.39054808 16.88549446 21.421875 15.39550781 C21.46746729 13.25551952 21.52546874 11.11617564 21.5859375 8.9765625 C21.6173584 7.68830566 21.6487793 6.40004883 21.68115234 5.07275391 C22 2 22 2 24 0 C25.875 -0.265625 25.875 -0.265625 28 -0.25 C28.70125 -0.25515625 29.4025 -0.2603125 30.125 -0.265625 C32 0 32 0 34 2 C34.40028297 6.02560131 34.32895014 10.0576957 34.31567383 14.1015625 C34.31254484 16.09640976 34.33673865 18.09123934 34.36132812 20.0859375 C34.36486439 27.07358737 34.19609303 32.72196012 31 39 C26.17442221 43.59018375 22.72213845 44.22550889 16.25 44.3125 C15.54617188 44.34150391 14.84234375 44.37050781 14.1171875 44.40039062 C8.95401896 44.46277091 6.10729801 43.37230784 2 40 C-3.20075578 33.00588016 -2.18314737 24.69722844 -2.1875 16.375 C-2.19974609 15.13492187 -2.21199219 13.89484375 -2.22460938 12.6171875 C-2.22750977 10.83828125 -2.22750977 10.83828125 -2.23046875 9.0234375 C-2.23457764 7.93981934 -2.23868652 6.85620117 -2.24291992 5.73974609 C-2 3 -2 3 0 0 Z " fill="black" transform="translate(523,452)"/>
<path d="M0 0 C1.46663086 -0.0309375 1.46663086 -0.0309375 2.96289062 -0.0625 C9.18173681 -0.09582269 13.79383055 0.58655004 19.4375 3.25 C22.5949723 6.4074723 22.66256976 9.4596885 22.8125 13.75 C22.67984227 18.04118924 22.41896199 20.96011091 19.4375 24.25 C14.56783516 27.74616963 10.59145533 28.38278518 4.6875 28.3125 C3.70265625 28.30347656 2.7178125 28.29445313 1.703125 28.28515625 C0.95546875 28.27355469 0.2078125 28.26195312 -0.5625 28.25 C-0.55089844 29.32121094 -0.53929687 30.39242188 -0.52734375 31.49609375 C-0.51796701 32.89322743 -0.50886669 34.29036299 -0.5 35.6875 C-0.49162109 36.39455078 -0.48324219 37.10160156 -0.47460938 37.83007812 C-0.46596412 39.63693559 -0.51029989 41.44387603 -0.5625 43.25 C-1.5625 44.25 -1.5625 44.25 -3.59375 44.3828125 C-4.4084375 44.38023437 -5.223125 44.37765625 -6.0625 44.375 C-6.8771875 44.37757813 -7.691875 44.38015625 -8.53125 44.3828125 C-10.5625 44.25 -10.5625 44.25 -11.5625 43.25 C-11.6636692 40.15918535 -11.70218558 37.09117445 -11.6953125 34 C-11.69626923 33.07155273 -11.69722595 32.14310547 -11.69821167 31.18652344 C-11.69889355 29.21940035 -11.69703872 27.25227504 -11.69287109 25.28515625 C-11.68752295 22.26296974 -11.69281582 19.24093185 -11.69921875 16.21875 C-11.69855797 14.31249967 -11.69727681 12.40624943 -11.6953125 10.5 C-11.69733673 9.58959961 -11.69936096 8.67919922 -11.70144653 7.74121094 C-11.66571455 -1.75322126 -8.44919122 0.04335698 0 0 Z M-0.5625 10.25 C-0.5625 12.56 -0.5625 14.87 -0.5625 17.25 C1.08324566 17.27688151 2.72911413 17.29634123 4.375 17.3125 C5.74978516 17.32990234 5.74978516 17.32990234 7.15234375 17.34765625 C9.40343327 17.50949049 9.40343327 17.50949049 10.4375 16.25 C10.47813832 14.58382885 10.480221 12.91611905 10.4375 11.25 C7.68671116 10.33307039 6.07801087 10.14113917 3.25 10.1875 C1.991875 10.208125 0.73375 10.22875 -0.5625 10.25 Z " fill="black" transform="translate(377.5625,451.75)"/>
<path d="M0 0 C1.19496094 0.00193359 2.38992188 0.00386719 3.62109375 0.00585938 C4.87019531 0.01810547 6.11929688 0.03035156 7.40625 0.04296875 C8.65535156 0.04361328 9.90445313 0.04425781 11.19140625 0.04492188 C20.48495228 0.09003618 20.48495228 0.09003618 23.90625 1.23046875 C25.22315141 7.57553917 25.22315141 7.57553917 23.96875 10.16796875 C20.71166686 11.84586006 17.54201682 11.29283811 13.90625 11.23046875 C13.92196045 12.18937012 13.9376709 13.14827148 13.95385742 14.13623047 C14.0080892 17.68822861 14.04257497 21.24019006 14.07104492 24.79248047 C14.08614711 26.33095449 14.10663046 27.86938536 14.13256836 29.40771484 C14.16889074 31.61697016 14.18596119 33.82565723 14.19921875 36.03515625 C14.21470261 36.72479462 14.23018646 37.41443298 14.24613953 38.12496948 C14.24682617 40.06591797 14.24682617 40.06591797 13.90625 43.23046875 C10.44962669 45.53488429 8.95767119 45.4890701 4.90625 45.23046875 C4.24625 44.90046875 3.58625 44.57046875 2.90625 44.23046875 C2.90625 33.34046875 2.90625 22.45046875 2.90625 11.23046875 C-0.39375 11.23046875 -3.69375 11.23046875 -7.09375 11.23046875 C-9.09375 9.23046875 -9.09375 9.23046875 -9.40625 5.73046875 C-9.303125 4.57546875 -9.2 3.42046875 -9.09375 2.23046875 C-5.58380816 -0.10949248 -4.14818425 -0.01554655 0 0 Z " fill="black" transform="translate(525.09375,393.76953125)"/>
<path d="M0 0 C2.14407053 2.14407053 1.188851 7.02234909 1.203125 9.99609375 C1.20882507 10.8999733 1.21452515 11.80385284 1.22039795 12.73512268 C1.22986229 14.65095849 1.2363876 16.56681069 1.24023438 18.48266602 C1.24994769 21.42167368 1.28096047 24.35998457 1.3125 27.29882812 C1.31902888 29.15624583 1.32427981 31.01366855 1.328125 32.87109375 C1.3404718 33.75445908 1.3528186 34.6378244 1.36553955 35.54795837 C1.35644531 38.02514648 1.35644531 38.02514648 1 42 C-2.45662331 44.30441554 -3.94857881 44.25860135 -8 44 C-8.66 43.67 -9.32 43.34 -10 43 C-10 28.81 -10 14.62 -10 0 C-6.681572 -1.659214 -3.60735024 -0.57259528 0 0 Z " fill="black" transform="translate(561,395)"/>
<path d="M0 0 C0.66 0.33 1.32 0.66 2 1 C-0.31 3.31 -2.62 5.62 -5 8 C-5.66 7.67 -6.32 7.34 -7 7 C-4.78071806 4.09197539 -3.07030857 2.04687238 0 0 Z " fill="#black" transform="translate(485,296)"/>
<path d="M0 0 C0.66 0.33 1.32 0.66 2 1 C-0.31 3.31 -2.62 5.62 -5 8 C-5 5 -5 5 -2.5 2.3125 C-1.675 1.549375 -0.85 0.78625 0 0 Z " fill="#black" transform="translate(482,397)"/>
</svg>
