<?xml version="1.0" encoding="UTF-8"?>
<svg version="1.1" xmlns="http://www.w3.org/2000/svg" width="512" height="512">
<path d="M0 0 C2.07047288 1.78479816 2.89881338 3.22627846 3.25448608 5.94592285 C3.34835118 8.42294995 3.33676756 10.88094653 3.29296875 13.359375 C3.28872391 14.26375305 3.28447906 15.1681311 3.28010559 16.09991455 C3.26333574 18.98358139 3.22568669 21.866545 3.1875 24.75 C3.17245097 26.70702114 3.15876295 28.66405326 3.14648438 30.62109375 C3.11343774 35.41433275 3.06166705 40.20704721 3 45 C3.85231201 44.97381592 4.70462402 44.94763184 5.58276367 44.9206543 C8.76027127 44.83518508 11.9371911 44.77263211 15.11547852 44.7253418 C16.48807102 44.70027383 17.86053102 44.66620918 19.23266602 44.62280273 C21.21050696 44.56182469 23.18934184 44.53638991 25.16796875 44.51171875 C26.35672607 44.48553467 27.5454834 44.45935059 28.77026367 44.43237305 C32.94769209 45.16655712 34.39656113 46.72486126 37 50 C37.625 53 37.625 53 37 56 C34.39656113 59.27513874 32.94769209 60.83344288 28.77026367 61.56762695 C27.58150635 61.54144287 26.39274902 61.51525879 25.16796875 61.48828125 C24.00289795 61.47579346 22.83782715 61.46330566 21.63745117 61.45043945 C20.16896729 61.40491943 18.7004834 61.35939941 17.1875 61.3125 C12.505625 61.209375 7.82375 61.10625 3 61 C3.33 77.17 3.66 93.34 4 110 C7.75375 107.834375 11.5075 105.66875 15.375 103.4375 C36.6015625 91.19140625 36.6015625 91.19140625 39.81225586 89.33911133 C41.94070633 88.11114032 44.0691242 86.8831128 46.19750977 85.6550293 C51.26886056 82.72893947 56.34053292 79.8034114 61.4133606 76.87988281 C63.80426597 75.50193062 66.19498672 74.12365828 68.58569336 72.74536133 C70.26983963 71.77459018 71.95425231 70.80428126 73.63867188 69.83398438 C74.66154297 69.24423828 75.68441406 68.65449219 76.73828125 68.046875 C77.63587158 67.52963867 78.53346191 67.01240234 79.45825195 66.47949219 C81.98578745 65.0082728 84.4957655 63.51048171 87 62 C86.08710205 61.99589111 85.1742041 61.99178223 84.23364258 61.98754883 C80.83165222 61.96050598 77.43144939 61.91136138 74.0300293 61.84741211 C72.56074053 61.82428007 71.09128708 61.8098476 69.62182617 61.80444336 C67.50335655 61.79511721 65.38745935 61.75405873 63.26953125 61.70703125 C61.99698486 61.6913208 60.72443848 61.67561035 59.41333008 61.65942383 C55.14982204 60.83575348 53.65729598 59.36931064 51 56 C50.375 53 50.375 53 51 50 C53.65786204 46.60472483 55.13001674 45.15621442 59.42636585 44.38476086 C60.76234508 44.36388064 62.09892749 44.37035867 63.43476868 44.39872742 C64.17408023 44.39445529 64.91339177 44.39018317 65.6751067 44.38578159 C68.14771276 44.37755801 70.61861523 44.40502364 73.09106445 44.43237305 C74.86517802 44.43378367 76.6392945 44.43299127 78.41340637 44.43016052 C83.22726209 44.4287255 88.04049532 44.45812931 92.85420632 44.49303031 C97.88569756 44.52427936 102.91720294 44.52722341 107.94877625 44.53315735 C117.47564262 44.54870004 127.00222223 44.58973436 136.52896231 44.6399048 C147.37526427 44.69578493 158.22157989 44.72328143 169.06798995 44.74838197 C191.37881897 44.80064976 213.68939342 44.88860043 236 45 C235.98428955 43.8447583 235.9685791 42.6895166 235.95239258 41.49926758 C235.89799631 37.20360313 235.86361467 32.907969 235.83520508 28.61206055 C235.82014054 26.75458655 235.79968491 24.89714799 235.77368164 23.03979492 C235.73719541 20.36628461 235.7202503 17.69324556 235.70703125 15.01953125 C235.69154739 14.19226028 235.67606354 13.36498932 235.66011047 12.51264954 C235.65875556 7.84606535 235.94470709 4.77297616 239 1 C242 -1 242 -1 245.5 -0.8125 C249.01448836 0.00336337 249.90872196 0.25215822 252 3 C252.36076355 4.95524597 252.36076355 4.95524597 252.34057617 7.19604492 C252.34034958 8.03668991 252.34012299 8.8773349 252.33988953 9.74345398 C252.32440567 10.64666885 252.30892181 11.54988373 252.29296875 12.48046875 C252.28872391 13.40845779 252.28447906 14.33644684 252.28010559 15.29255676 C252.26330662 18.25783243 252.22565216 21.2224296 252.1875 24.1875 C252.17245474 26.19725581 252.15876606 28.20702227 252.14648438 30.21679688 C252.11339908 35.14479286 252.06160833 40.07228138 252 45 C252.94174324 44.98334541 252.94174324 44.98334541 253.9025116 44.96635437 C260.43982714 44.85569519 266.97687646 44.78030528 273.51489258 44.7253418 C275.95445564 44.70020504 278.39394345 44.66609054 280.83325195 44.62280273 C284.34084646 44.56211771 287.8474449 44.533781 291.35546875 44.51171875 C292.44522507 44.48591232 293.53498138 44.4601059 294.65776062 44.43351746 C302.22523714 44.43071747 302.22523714 44.43071747 306.1887207 47.34301758 C308 50 308 50 308.625 53 C308 56 308 56 303 61 C286.17 61 269.34 61 252 61 C252.33 96.97 252.66 132.94 253 170 C264.92125 158.285 276.8425 146.57 289.125 134.5 C294.79067139 128.97088867 294.79067139 128.97088867 300.57080078 123.33007812 C303.93250498 120.00181821 303.93250498 120.00181821 307.28756714 116.66687012 C308.78518943 115.18460426 310.29268912 113.71227799 311.80783081 112.2479248 C314.10163181 110.02723101 316.36208261 107.77698211 318.61767578 105.51757812 C319.29939409 104.8718409 319.9811124 104.22610367 320.68348885 103.56079865 C322.44697493 101.75694673 323.84418438 100.24341815 325 98 C324.93454304 94.91375019 324.13034854 92.95138869 323 90 C321.93127348 80.97795985 323.98953805 73.83824242 328.75 66.1875 C334.68810802 60.41433943 341.63902171 57.02333967 350 56.75 C352.89395266 56.81157346 354.81601798 57.23512382 357.6875 58.0625 C361.20551926 59.05816583 362.56326697 58.99400894 366 58 C368.0083337 56.74415124 368.0083337 56.74415124 369.9375 55.1875 C380.48663465 47.93933629 393.54209713 46.38432671 405.97265625 48.5078125 C418.91468927 51.67506109 430.14424405 58.44749876 437.375 69.875 C438.28251786 71.56628328 439.15849751 73.2749199 440 75 C440.4125 75.78375 440.825 76.5675 441.25 77.375 C445.95529522 87.83121159 445.68813091 101.82933986 442.375 112.6875 C440.57360383 117.24587168 438.16959003 121.2175447 435.26953125 125.16015625 C433.8184835 127.08035908 433.8184835 127.08035908 433 130 C433.65237032 132.00470881 434.32093312 134.0041762 435 136 C436.04395436 144.65932671 435.24846527 151.88487503 430 159 C424.76394336 164.63373183 420.11556938 168.74889494 412.22265625 169.23046875 C410.83586916 169.22651779 409.44907696 169.21196143 408.0625 169.1875 C407.02706055 169.1865332 407.02706055 169.1865332 405.97070312 169.18554688 C402.8552026 169.15896915 400.10742745 169.02956608 397.09378815 168.20015526 C393.88797422 167.67276167 393.88797422 167.67276167 391.3330307 169.83077431 C390.42757759 170.75436934 389.52212448 171.67796436 388.5892334 172.62954712 C387.82456906 173.39476513 387.82456906 173.39476513 387.04445696 174.1754421 C385.33737819 175.89207893 383.65665712 177.63239065 381.97460938 179.37353516 C380.75665416 180.6081973 379.53707938 181.84126358 378.31600952 183.07284546 C375.6868794 185.73090974 373.06892518 188.39935663 370.45884705 191.07612991 C366.32437173 195.31481189 362.16224941 199.52560129 357.99523926 203.73226929 C347.64323602 214.1914356 337.32730851 224.68599809 327.02038574 235.1895752 C319.02135628 243.34054073 311.01215454 251.48093093 302.97136927 259.59073484 C298.83572192 263.76420384 294.72214547 267.95789419 290.62436008 272.1685288 C288.05743829 274.79663639 285.47155832 277.40546328 282.88032913 280.00958633 C281.69127474 281.2121852 280.50991694 282.42245633 279.33742905 283.64121246 C271.61888265 291.6533899 264.98534253 296.38342512 254 299 C253.34 299 252.68 299 252 299 C252 310.22 252 321.44 252 333 C255.62355469 332.94199219 259.24710937 332.88398438 262.98046875 332.82421875 C266.4919211 332.78521943 270.00334927 332.75486247 273.51489258 332.7253418 C275.95445564 332.70020504 278.39394345 332.66609054 280.83325195 332.62280273 C284.34084646 332.56211771 287.8474449 332.533781 291.35546875 332.51171875 C292.44522507 332.48591232 293.53498138 332.4601059 294.65776062 332.43351746 C302.22523714 332.43071747 302.22523714 332.43071747 306.1887207 335.34301758 C308 338 308 338 308.625 341 C307.74397667 345.22891198 306.49425855 346.43247843 303 349 C299.1147614 349.69750101 295.29169851 349.58149477 291.35546875 349.48828125 C290.2305452 349.48120651 289.10562164 349.47413177 287.9466095 349.46684265 C284.35955851 349.43889144 280.77407788 349.37614717 277.1875 349.3125 C274.75327778 349.28741827 272.31903105 349.26460489 269.88476562 349.24414062 C263.9226428 349.18906226 257.9614336 349.10542705 252 349 C252.02618408 350.25135742 252.05236816 351.50271484 252.0793457 352.79199219 C252.16986615 357.43601593 252.2272561 362.07996178 252.2746582 366.72460938 C252.29979816 368.7345084 252.33391529 370.74431605 252.37719727 372.75390625 C252.43787215 375.64345844 252.46621447 378.53180192 252.48828125 381.421875 C252.51408768 382.31992859 252.5398941 383.21798218 252.56648254 384.14324951 C252.56927426 390.35694991 252.56927426 390.35694991 249.69604492 393.60253906 C246.02164719 395.50711686 243.93525654 395.09312682 240 394 C237.41544715 392.10466125 237.03724494 391.11173483 236 388 C235.914591 385.05035887 235.88417073 382.12496981 235.90234375 379.17578125 C235.90446617 377.88367989 235.90446617 377.88367989 235.90663147 376.56547546 C235.9122286 373.81444831 235.92478054 371.06350256 235.9375 368.3125 C235.94251537 366.4472668 235.94707821 364.58203233 235.95117188 362.71679688 C235.96219708 358.14449989 235.97945973 353.57226375 236 349 C235.36211548 349.02759399 234.72423096 349.05518799 234.0670166 349.08361816 C231.48255274 349.18872294 228.89833006 349.24986744 226.3125 349.3125 C225.40048828 349.35439453 224.48847656 349.39628906 223.54882812 349.43945312 C218.91095287 349.52377813 216.72193966 349.53396292 212.89453125 346.703125 C211 344 211 344 210.375 340.4375 C211 337 211 337 212.89453125 334.80078125 C217.3708978 332.20505172 221.24635442 332.56525633 226.3125 332.75 C229.509375 332.8325 232.70625 332.915 236 333 C235.67 324.09 235.34 315.18 235 306 C232.2053125 307.010625 229.410625 308.02125 226.53125 309.0625 C223.805108 310.03852039 221.07744969 311.01018314 218.34960938 311.98144531 C216.46256464 312.65594417 214.5771148 313.3349232 212.69335938 314.01855469 C209.97678572 315.00352801 207.25478003 315.97195422 204.53125 316.9375 C203.69758911 317.24373291 202.86392822 317.54996582 202.00500488 317.86547852 C196.22331252 319.89059885 190.6546776 321.41202576 184.68725586 319.10644531 C183.74184937 318.59742676 183.74184937 318.59742676 182.77734375 318.078125 C179.56924822 316.9070358 178.33666716 316.87945307 175.07080078 318.04882812 C171.79466356 319.81341319 168.68340256 321.72378484 165.5625 323.75 C164.47517578 324.42289062 163.38785156 325.09578125 162.26757812 325.7890625 C160.2654378 327.0299659 158.27109332 328.28359933 156.28735352 329.55371094 C154 331 154 331 152 332 C153.18553467 332.00410889 154.37106934 332.00821777 155.5925293 332.01245117 C160.00052072 332.03425989 164.40762172 332.08856741 168.81518555 332.15258789 C170.72102307 332.17575277 172.62698833 332.19016007 174.53295898 332.19555664 C177.27668723 332.20485741 180.01841063 332.24587071 182.76171875 332.29296875 C184.03543587 332.28706978 184.03543587 332.28706978 185.33488464 332.28105164 C189.73476058 332.38902456 191.48443159 332.59270096 195.05175781 335.41088867 C197 338 197 338 197.41015625 340.1328125 C197.29542969 340.79023438 197.18070312 341.44765625 197.0625 342.125 C196.97097656 342.78757812 196.87945312 343.45015625 196.78515625 344.1328125 C195.66766227 346.7903355 194.50419785 347.55089096 192 349 C189.36681626 349.28224683 186.97444329 349.39252622 184.34381104 349.36076355 C183.18099739 349.36460846 183.18099739 349.36460846 181.99469256 349.36853105 C179.39501368 349.37347565 176.79591452 349.35696512 174.19628906 349.34057617 C172.33365391 349.33973004 170.47101775 349.34020476 168.60838318 349.34190369 C163.54877666 349.34276562 158.48938281 349.32510767 153.42982578 349.30418181 C148.14339331 349.28544814 142.85695615 349.28366718 137.57049561 349.28010559 C127.55848776 349.2707754 117.546578 349.2461484 107.53461337 349.21605712 C96.13692781 349.18254345 84.73923761 349.16603473 73.34151506 349.15097082 C49.89428896 349.11959972 26.44714997 349.06682026 3 349 C3.01571045 350.22106445 3.0314209 351.44212891 3.04760742 352.70019531 C3.10192682 357.23251748 3.13635746 361.76481089 3.16479492 366.29736328 C3.17987695 368.25867553 3.20034547 370.21995408 3.22631836 372.18115234 C3.26272731 375.00106118 3.27973216 377.82052392 3.29296875 380.640625 C3.30845261 381.51680481 3.32393646 382.39298462 3.33988953 383.29571533 C3.34155864 389.33997222 3.34155864 389.33997222 1.69262695 392.52636719 C-1.04677037 394.91133794 -3.444569 394.93869947 -7 395 C-9.94755732 393.65437601 -11.54277272 392.91445456 -13 390 C-13.08711775 386.93757679 -13.1154846 383.89813535 -13.09765625 380.8359375 C-13.0962413 379.92872955 -13.09482635 379.02152161 -13.09336853 378.08682251 C-13.08776096 375.18284845 -13.07520718 372.27895085 -13.0625 369.375 C-13.05748598 367.40885528 -13.0529229 365.44270935 -13.04882812 363.4765625 C-13.03778906 358.6510121 -13.02051935 353.82551903 -13 349 C-13.61530075 349.00888245 -14.2306015 349.01776489 -14.86454773 349.0269165 C-21.27215276 349.11545271 -27.67958385 349.17576044 -34.08764648 349.21972656 C-36.47866881 349.23983418 -38.86964201 349.2671243 -41.26049805 349.30175781 C-44.69852831 349.35031151 -48.13590804 349.37297774 -51.57421875 349.390625 C-53.17604256 349.42159271 -53.17604256 349.42159271 -54.81022644 349.45318604 C-62.23876641 349.4554289 -62.23876641 349.4554289 -66.17480469 347.10058594 C-68.1430249 344.8353951 -68.66070338 343.95765468 -68.5625 341 C-68.56378906 340.34 -68.56507812 339.68 -68.56640625 339 C-68 337 -68 337 -64 333 C-47.17 333 -30.34 333 -13 333 C-13 243.24 -13 153.48 -13 61 C-29.83 61 -46.66 61 -64 61 C-68 57 -68 57 -68.56640625 55 C-68.56511719 54.34 -68.56382813 53.68 -68.5625 53 C-68.58441406 52.34 -68.60632813 51.68 -68.62890625 51 C-67.58036352 47.66550387 -65.99675264 46.79288954 -63 45 C-59.18885241 44.44123289 -55.41882347 44.53504809 -51.57421875 44.609375 C-50.47149124 44.61503479 -49.36876373 44.62069458 -48.23262024 44.62652588 C-44.71713508 44.6488825 -41.20267613 44.69907979 -37.6875 44.75 C-35.30144703 44.77006582 -32.91537806 44.78831645 -30.52929688 44.8046875 C-24.6858489 44.84874499 -18.84299777 44.91565082 -13 45 C-13.01571045 43.77893555 -13.0314209 42.55787109 -13.04760742 41.29980469 C-13.10192682 36.76748252 -13.13635746 32.23518911 -13.16479492 27.70263672 C-13.17987695 25.74132447 -13.20034547 23.78004592 -13.22631836 21.81884766 C-13.26272731 18.99893882 -13.27973216 16.17947608 -13.29296875 13.359375 C-13.30845261 12.48319519 -13.32393646 11.60701538 -13.33988953 10.70428467 C-13.34156212 4.64740779 -13.34156212 4.64740779 -11.66918945 1.47753906 C-7.98181464 -1.7864645 -4.51498671 -1.04812192 0 0 Z M151 61 C153.82921512 63.82921512 156.12263676 65.35783041 159.57421875 67.30078125 C160.70424316 67.94088135 161.83426758 68.58098145 162.99853516 69.24047852 C163.89949921 69.74649094 163.89949921 69.74649094 164.81866455 70.26272583 C168.01098198 72.05593474 171.19416646 73.86525434 174.37890625 75.671875 C175.02543152 76.03801407 175.67195679 76.40415314 176.33807373 76.78138733 C182.29631863 80.15857288 188.21559535 83.60060078 194.125 87.0625 C202.23943945 91.80935449 210.36341051 96.53906613 218.50384521 101.24118042 C220.21152498 102.22777153 221.91851473 103.21555666 223.62548828 104.20336914 C224.6617334 104.80141357 225.69797852 105.39945801 226.765625 106.015625 C227.68118164 106.54446289 228.59673828 107.07330078 229.54003906 107.61816406 C231.6591381 108.80852736 233.8260551 109.91302755 236 111 C236 94.5 236 78 236 61 C207.95 61 179.9 61 151 61 Z M376 72 C390.52 86.52 405.04 101.04 420 116 C423.04127205 115.33232805 423.04127205 115.33232805 424.1328125 113.2578125 C424.46023438 112.55398437 424.78765625 111.85015625 425.125 111.125 C425.45757812 110.42632812 425.79015625 109.72765625 426.1328125 109.0078125 C429.40892638 101.42257586 429.26230886 91.31261661 426.4375 83.5625 C422.02595963 74.32583735 415.34729881 68.98432058 406 65 C394.9935161 62.23149792 384.16275811 63.83724189 376 72 Z M102 71.875 C100.78617705 72.5732502 99.57140377 73.26985081 98.35571289 73.96484375 C94.88992497 75.95334642 91.44405004 77.97408821 88 80 C86.45731121 80.89891813 84.91438801 81.79743425 83.37109375 82.6953125 C80.72755452 84.24002927 78.09230694 85.79793586 75.4609375 87.36328125 C69.85753848 90.68875985 64.20831247 93.93474119 58.5625 97.1875 C57.46599121 97.81978516 56.36948242 98.45207031 55.23974609 99.10351562 C50.06299559 102.08741535 44.88420476 105.06769349 39.70057678 108.03962708 C37.94891854 109.04423253 36.1978747 110.04990049 34.44702148 111.0559082 C32.26287063 112.31049907 30.0775685 113.56308878 27.89086914 114.81323242 C22.88872337 117.68851316 17.91443035 120.60835507 12.99609375 123.625 C12.13040771 124.15351563 11.26472168 124.68203125 10.37280273 125.2265625 C6.74114596 127.94087003 4.43611811 130.69164566 3 135 C2.90388882 136.67386611 2.86507595 138.35129428 2.85955811 140.02790833 C2.85384796 141.06671646 2.84813782 142.1055246 2.84225464 143.17581177 C2.84113678 144.31509125 2.84001892 145.45437073 2.83886719 146.62817383 C2.83390228 147.8284169 2.82893738 149.02865997 2.82382202 150.26527405 C2.81171289 153.55879892 2.80425505 156.8522603 2.79981136 160.14579988 C2.79687876 162.20439251 2.79277358 164.2629796 2.78830719 166.32156944 C2.7746346 172.76511064 2.76496696 179.20863914 2.7611053 185.65219384 C2.75662591 193.08528044 2.73908269 200.51818301 2.7101047 207.95121366 C2.68847261 213.69994412 2.6784002 219.44862287 2.67706418 225.1973936 C2.67601718 228.62934139 2.670132 232.06111614 2.65224457 235.49302101 C2.63520786 239.32337035 2.63705887 243.15327082 2.64355469 246.98364258 C2.6343399 248.11684937 2.62512512 249.25005615 2.6156311 250.41760254 C2.64956184 256.79820668 2.90833878 261.81315217 7.5859375 266.63476562 C13.23287406 270.64803604 19.15410198 274.10399306 25.19586182 277.48904419 C28.3217712 279.24065961 31.43720315 281.01079255 34.5546875 282.77734375 C35.18575409 283.13420761 35.81682068 283.49107147 36.4670105 283.85874939 C42.38384953 287.20744333 48.25891372 290.62572842 54.125 294.0625 C64.581068 300.17834622 75.05284621 306.26567114 85.5625 312.2890625 C89.87881964 314.7650604 94.16565225 317.2840431 98.4375 319.8359375 C100.47909297 321.03658366 102.52075658 322.23710971 104.5625 323.4375 C105.48361572 323.99961182 106.40473145 324.56172363 107.35375977 325.14086914 C112.90732679 328.37375629 117.54908587 330.57758433 124 329 C127.87043409 327.32003094 131.39828716 325.18766222 135 323 C137.02432214 321.8698247 139.05308068 320.74756335 141.0859375 319.6328125 C145.3970874 317.23678983 149.68956305 314.81001784 153.9765625 312.37109375 C157.38702725 310.43561012 160.7869795 308.57745775 164.3359375 306.91015625 C169.23194274 304.43974628 172.22152914 302.68538942 174.5625 297.6171875 C175.45712134 294.8267879 176.11257109 292.01264504 176.7421875 289.15234375 C178.42590875 281.6207785 181.40472341 274.48886197 184.14355469 267.29125977 C184.52672852 266.25928467 184.90990234 265.22730957 185.3046875 264.1640625 C185.65515137 263.24061035 186.00561523 262.3171582 186.36669922 261.36572266 C187.26536545 258.87810505 187.26536545 258.87810505 186 256 C185.34854004 256.37584229 184.69708008 256.75168457 184.02587891 257.13891602 C183.10210449 257.67186279 182.17833008 258.20480957 181.2265625 258.75390625 C180.1862085 259.35428711 179.14585449 259.95466797 178.07397461 260.57324219 C175.7524801 261.91220568 173.43048346 263.25025164 171.10766602 264.58691406 C165.58384477 267.76726619 160.06463352 270.95416091 154.57196045 274.18809509 C152.82015729 275.21906557 151.06639494 276.24662055 149.31201172 277.27319336 C147.11047361 278.56286592 144.91268417 279.85896544 142.71923828 281.16235352 C132.97856217 286.84997167 124.17056555 290.84324496 112.74438477 288.54663086 C105.45339157 286.50688411 99.34552024 283.05862138 92.875 279.1875 C91.16492774 278.18156791 89.45485055 277.17564404 87.74443054 276.17030334 C85.99017212 275.13713747 84.23878399 274.09923887 82.48779297 273.06054688 C79.09992956 271.05416641 75.69461635 269.07886144 72.28515625 267.109375 C71.2173291 266.49167236 70.14950195 265.87396973 69.04931641 265.23754883 C67.03517064 264.07245415 65.02055287 262.9081749 63.00537109 261.74487305 C41.29751359 249.11329297 41.29751359 249.11329297 36.83154297 236.33032227 C35.2098736 229.83555071 35.42805691 223.2123667 35.46875 216.5625 C35.46604787 214.99031333 35.4621595 213.41812829 35.45715332 211.84594727 C35.45129204 208.56803305 35.45971103 205.29055802 35.47851562 202.01269531 C35.50130367 197.84024584 35.48816225 193.66882601 35.46422577 189.49641418 C35.44967566 186.25500932 35.45441556 183.01384301 35.46473694 179.77243042 C35.46737889 178.23525872 35.46422511 176.69806437 35.45481873 175.16091919 C35.39963559 163.61279574 36.28173619 152.63706169 44.6875 143.93359375 C49.23365061 140.13233606 54.34592474 137.31148121 59.49267578 134.41650391 C63.47289189 132.16789496 67.42272275 129.8670017 71.37817383 127.57519531 C74.7504898 125.62471671 78.12873609 123.6848318 81.5078125 121.74609375 C85.56345805 119.41502283 89.60083728 117.05826827 93.6171875 114.66015625 C94.46958008 114.15468262 95.32197266 113.64920898 96.20019531 113.12841797 C97.75912735 112.20203689 99.31358741 111.26806581 100.86230469 110.32470703 C108.49686301 105.8092096 116.13190007 104.07264253 125 105 C133.37365242 107.26139544 140.66138747 111.40250181 148.0625 115.8125 C149.76071977 116.81042423 151.45895109 117.80832935 153.15782166 118.80514526 C154.32735936 119.49203751 155.49618929 120.18013624 156.6643219 120.86941528 C160.80591392 123.31134403 164.97315724 125.7041932 169.15625 128.07421875 C170.32551645 128.73904103 171.49470684 129.40399711 172.66381836 130.0690918 C174.86776565 131.32123023 177.07416912 132.56905909 179.28344727 133.81176758 C196.82953421 143.83670499 196.82953421 143.83670499 200 151.25 C200.37125 152.08015625 200.7425 152.9103125 201.125 153.765625 C202.65134942 157.66326728 203.14406102 160.67387262 203.20532227 164.84838867 C203.22526749 166.0494072 203.24521271 167.25042572 203.26576233 168.48783875 C203.29083107 170.4332531 203.29083107 170.4332531 203.31640625 172.41796875 C203.33698293 173.7589023 203.35797959 175.09982946 203.37937927 176.44075012 C203.43452627 179.96701889 203.48396794 183.49334548 203.53222656 187.01971436 C203.5824955 190.61931493 203.63815339 194.21883173 203.69335938 197.81835938 C203.80085071 204.87883352 203.90231565 211.93938282 204 219 C204.4339357 218.61509399 204.8678714 218.23018799 205.31495667 217.83361816 C209.10158897 214.5236884 212.95866689 211.63307162 217.15234375 208.84375 C225.63595136 202.63680062 234.21740653 195.61040247 236.7144165 184.94995117 C238.94141744 169.74396759 241.19445342 145.21237417 234.58007812 130.93505859 C229.41471685 124.60924687 222.25163661 121.08154613 215.25 117.125 C213.49993101 116.12594487 211.74986705 115.12688079 210.00012207 114.1272583 C208.19183576 113.09511879 206.38215381 112.06546032 204.57226562 111.03613281 C199.03343836 107.88302556 193.51797923 104.68939872 188 101.5 C185.8386723 100.25237783 183.67721349 99.00498277 181.515625 97.7578125 C180.44376953 97.13938477 179.37191406 96.52095703 178.26757812 95.88378906 C174.96600319 93.98040053 171.66287466 92.07973325 168.359375 90.1796875 C166.1561336 88.91166056 163.95300765 87.64343301 161.75 86.375 C160.68386475 85.76124512 159.61772949 85.14749023 158.51928711 84.51513672 C150.22477062 79.72996063 141.97608291 74.86993974 133.76269531 69.94677734 C132.91416992 69.44098145 132.06564453 68.93518555 131.19140625 68.4140625 C130.45092041 67.9701416 129.71043457 67.5262207 128.94750977 67.06884766 C118.87199391 61.53912365 110.83058686 66.65806279 102 71.875 Z M340.6875 78.25 C338.43077268 81.92762971 338.27776292 83.73880122 339 88 C343.44693269 95.87334626 350.8667215 102.1577832 357.22265625 108.48828125 C358.41308776 109.68006247 359.60322245 110.87214023 360.79307556 112.0644989 C363.27523947 114.54959624 365.76094614 117.03107843 368.24926758 119.51000977 C371.43246003 122.68177134 374.60653783 125.86247928 377.77803898 129.04592609 C380.22884452 131.50396659 382.68440324 133.95721413 385.14141655 136.40904808 C386.31382315 137.58012466 387.48475733 138.75267731 388.65416145 139.92675209 C390.28816006 141.56584696 391.92846271 143.19836631 393.57055664 144.8293457 C394.50066055 145.75785843 395.43076447 146.68637115 396.38905334 147.64302063 C400.71956195 151.55229982 403.987977 153.63464283 410 153.4296875 C413.61068185 152.65395507 415.45265225 150.60947818 418 148 C419.53214888 144.93570224 419.22938548 142.3834358 419 139 C416.86029613 134.65261023 413.72102532 131.4305733 410.32275391 128.0480957 C409.75488663 127.47511749 409.18701935 126.90213928 408.60194397 126.3117981 C406.73194148 124.42794712 404.85465434 122.55156531 402.9765625 120.67578125 C401.66981359 119.36514361 400.36328814 118.05428313 399.05697632 116.74320984 C396.32165505 114.00043715 393.58250365 111.26155905 390.84082031 108.52514648 C387.329589 105.01971684 383.82987043 101.50303782 380.33315468 97.98313618 C377.63948393 95.27473075 374.93891503 92.57328701 372.23630905 89.87380028 C370.9429959 88.57997407 369.65204186 87.28378518 368.36351395 85.98519325 C366.56144093 84.17077491 364.75007197 82.36616709 362.93603516 80.5637207 C362.4070311 80.02707291 361.87802704 79.49042511 361.33299255 78.93751526 C354.26804497 71.97188319 347.97282203 71.16157857 340.6875 78.25 Z M334.14342403 111.73352814 C332.91697847 112.96135639 332.91697847 112.96135639 331.66575623 114.21398926 C331.21162749 114.66726357 330.75749875 115.12053788 330.28960854 115.58754778 C328.75635455 117.11914418 327.22672059 118.65430683 325.69702148 120.18945312 C324.60350651 121.28324994 323.50977174 122.37682707 322.41583252 123.47019958 C319.43647014 126.44927386 316.46021121 129.43143165 313.4844768 132.41412926 C310.37790951 135.5269279 307.26852925 138.63691397 304.15943909 141.74719238 C298.26779355 147.64195189 292.37870277 153.53925693 286.49051291 159.43746805 C279.78883304 166.15030704 273.08432937 172.86032267 266.37958038 179.57009602 C252.58322997 193.3769123 238.79045127 207.18729169 225 221 C227.28927424 222.74655836 229.55353255 224.34595784 232 225.875 C236.64853905 229.16771516 239.15907235 232.63062769 241 238 C245.24721301 236.35251357 248.07474738 233.18442631 251.20556641 230.00561523 C251.81741287 229.39245453 252.42925934 228.77929382 253.05964661 228.14755249 C255.0782564 226.12245845 257.08979982 224.09048795 259.1015625 222.05859375 C260.5030206 220.65086509 261.90499519 219.24365046 263.3074646 217.83692932 C266.99673502 214.13435854 270.68039647 210.42626149 274.36248779 206.71655273 C280.2622645 200.77364459 286.1687871 194.83745943 292.07853317 188.90446663 C294.14496593 186.82778503 296.20796696 184.74773808 298.2706604 182.66734314 C299.53139988 181.39977818 300.79224801 180.13232126 302.05322266 178.86499023 C302.62884445 178.28263107 303.20446625 177.70027191 303.79753113 177.1002655 C308.78719349 172.09625449 308.78719349 172.09625449 313.9375 171.6875 C316.82152518 171.73993682 317.70636156 171.77754664 320.0625 173.5625 C321.48436519 177.25934951 321.1424411 179.191863 320 183 C314.31032709 190.99648262 306.34724677 197.77953255 299.41015625 204.6875 C298.09714694 205.99864101 296.78436063 207.31000537 295.4717865 208.62158203 C292.03980344 212.04977237 288.60482651 215.47494722 285.16918945 218.8994751 C281.65457813 222.40380204 278.14284511 225.91101083 274.63085938 229.41796875 C267.75669956 236.28144857 260.87936931 243.14174201 254 250 C256.02469911 252.2213089 256.02469911 252.2213089 259.3125 253.75 C264.31222747 256.5623467 267.20236635 259.94894204 269.3125 265.375 C269.539375 266.24125 269.76625 267.1075 270 268 C276.16415313 262.90271127 281.79193521 257.3433222 287.43334961 251.68017578 C288.4686367 250.64460615 289.50414496 249.6092576 290.53985596 248.57411194 C293.33291752 245.78133572 296.12289844 242.9855006 298.91231227 240.18908167 C301.83464239 237.26047421 304.75982974 234.33472341 307.68470764 231.40866089 C313.21491743 225.87535066 318.74257448 220.33949764 324.26930577 214.80271327 C330.56482362 208.49599423 336.86320208 202.19213529 343.16181552 195.88850808 C356.11104948 182.92883889 369.05670923 169.96560473 382 157 C380.55695686 153.98590694 379.13408132 151.89527984 376.7421875 149.546875 C376.11699219 148.928125 375.49179687 148.309375 374.84765625 147.671875 C373.87119141 146.72054687 373.87119141 146.72054687 372.875 145.75 C372.21628906 145.1003125 371.55757812 144.450625 370.87890625 143.78125 C369.25703357 142.18288273 367.6306719 140.58938103 366 139 C360.98479977 143.19219301 356.32046108 147.58061119 351.75 152.25 C350.53883997 153.48671193 349.3253866 154.72118312 348.109375 155.953125 C347.58311523 156.49098633 347.05685547 157.02884766 346.51464844 157.58300781 C343.78301213 160.13852315 342.27112121 160.9806342 338.5 161.25 C335 161 335 161 332 159 C330.8795961 155.11593316 330.4799282 152.97137378 332.41796875 149.3515625 C335.78639493 144.61811924 340.1150151 140.67599302 344.25 136.625 C345.09046875 135.79355469 345.9309375 134.96210938 346.796875 134.10546875 C348.86010502 132.06568453 350.92787123 130.03073714 353 128 C351.64526876 124.97328771 350.1260408 122.87863194 347.77734375 120.546875 C347.15666016 119.928125 346.53597656 119.309375 345.89648438 118.671875 C345.25001953 118.03765625 344.60355469 117.4034375 343.9375 116.75 C343.28716797 116.1003125 342.63683594 115.450625 341.96679688 114.78125 C338.3757134 110.17074037 338.3757134 110.17074037 334.14342403 111.73352814 Z M109.5 123.3125 C108.81405762 123.67786865 108.12811523 124.0432373 107.42138672 124.41967773 C105.26301367 125.58374685 103.12925108 126.78356584 101 128 C100.35063477 128.37060547 99.70126953 128.74121094 99.03222656 129.12304688 C95.64136977 131.07489059 92.27861863 133.06960942 88.92578125 135.0859375 C85.10704446 137.37023788 81.24072305 139.55740992 77.35546875 141.7265625 C75.59165144 142.71844931 73.82852013 143.71154449 72.06561279 144.70504761 C70.35175652 145.66550047 68.63029353 146.61233952 66.90869141 147.55883789 C60.02626975 151.45014517 53.62986863 155.1103941 51 163 C50.89543297 165.16065436 50.8513497 167.32440165 50.83886719 169.48754883 C50.83390228 170.14159195 50.82893738 170.79563507 50.82382202 171.46949768 C50.80922451 173.63201961 50.80240203 175.79446815 50.796875 177.95703125 C50.79112103 179.46294659 50.78536332 180.96886191 50.77960205 182.47477722 C50.76909855 185.63300924 50.76325181 188.79121586 50.75976562 191.94946289 C50.75428592 195.98790692 50.73026663 200.02601293 50.70179367 204.06435108 C50.68312895 207.1759691 50.67795963 210.28750638 50.67642975 213.39917564 C50.67341072 214.88746677 50.66540754 216.37575672 50.65224457 217.86399269 C50.63510501 219.95100907 50.63708309 222.03720852 50.64355469 224.12426758 C50.63990906 225.30990799 50.63626343 226.4955484 50.63250732 227.71711731 C51.18995404 232.69689596 52.92754886 235.93096431 56.453125 239.4453125 C61.20437085 243.10931007 66.53864227 245.93055779 71.75 248.875 C73.47798295 249.8603258 75.20595927 250.84566342 76.93354797 251.8316803 C78.12766859 252.51275631 79.32224394 253.19303563 80.51725769 253.87254333 C84.79735929 256.30708303 89.06071344 258.76916574 93.31640625 261.24609375 C94.50095314 261.93444785 95.68552313 262.62276222 96.87011719 263.31103516 C99.12582048 264.62254265 101.38042014 265.93595059 103.63378906 267.25146484 C104.65827148 267.84523926 105.68275391 268.43901367 106.73828125 269.05078125 C107.63587158 269.57325439 108.53346191 270.09572754 109.45825195 270.6340332 C115.40248306 273.82853643 119.44780704 274.78798187 126 273 C130.16613126 271.09315096 134.0292741 268.75922819 137.9375 266.375 C139.64694338 265.35881378 141.3564043 264.34265582 143.06684875 263.32815552 C144.84476404 262.27135973 146.6186653 261.20802858 148.39257812 260.14453125 C151.98202897 258.00089231 155.60294265 255.91528322 159.234375 253.84375 C159.82082291 253.50872467 160.40727081 253.17369934 161.01148987 252.82852173 C163.82601431 251.22125018 166.64189422 249.61638292 169.45874023 248.01318359 C180.79515907 242.05739477 180.79515907 242.05739477 188 232 C188.45575924 228.62058934 188.45575924 228.62058934 188.40405273 225.00415039 C188.41091599 224.33176834 188.41777924 223.65938629 188.42485046 222.96662903 C188.44304266 220.76008549 188.43929213 218.55425816 188.43359375 216.34765625 C188.43815929 214.80358145 188.44346597 213.25950869 188.44947815 211.71543884 C188.45839439 208.48509446 188.45600333 205.2549975 188.44604492 202.0246582 C188.43455818 197.89766487 188.45476894 193.77152757 188.48396206 189.64464664 C188.50236324 186.45745983 188.50202385 183.27047668 188.49632454 180.08325005 C188.4961718 178.56229896 188.50217718 177.04133366 188.51461601 175.52043343 C188.85169686 164.49259892 188.85169686 164.49259892 184 155 C181.28130882 152.76008083 181.28130882 152.76008083 178.109375 151.0546875 C177.54192566 150.72491913 176.97447632 150.39515076 176.38983154 150.0553894 C174.60187865 149.02089983 172.80158974 148.01050785 171 147 C169.31293945 146.02401855 169.31293945 146.02401855 167.59179688 145.02832031 C164.15470936 143.04233747 160.70495618 141.07963773 157.25 139.125 C143.43109699 131.30291444 143.43109699 131.30291444 137.72265625 127.77734375 C136.96243164 127.31118652 136.20220703 126.8450293 135.41894531 126.36474609 C134.07498754 125.53388486 132.73872321 124.69035634 131.41308594 123.83056641 C123.89447237 119.20231514 117.25929582 118.92894957 109.5 123.3125 Z M211 237 C209.23497723 241.76198734 207.48998779 246.53066121 205.76318359 251.30664062 C205.17293934 252.93038017 204.5772642 254.5521562 203.97607422 256.171875 C203.11291787 258.50025708 202.26952902 260.83499846 201.4296875 263.171875 C201.15687958 263.89493835 200.88407166 264.61800171 200.60299683 265.36297607 C199.20243704 269.22671131 199.20243704 269.22671131 199.60522461 273.21655273 C202.70164169 277.17582575 206.17838924 280.71963958 209.6875 284.3125 C210.87375977 285.58577148 210.87375977 285.58577148 212.08398438 286.88476562 C212.86451172 287.68205078 213.64503906 288.47933594 214.44921875 289.30078125 C215.15393311 290.03466064 215.85864746 290.76854004 216.5847168 291.5246582 C220.07083225 293.65410283 222.0944698 292.93390834 226 292 C228.26464635 291.32075538 230.51149873 290.57978568 232.73828125 289.78515625 C233.96998047 289.34623047 235.20167969 288.90730469 236.47070312 288.45507812 C237.41635132 288.11198608 237.41635132 288.11198608 238.38110352 287.76196289 C240.32180485 287.05913021 242.26693012 286.36975966 244.21289062 285.68164062 C250.61714112 283.69573406 250.61714112 283.69573406 256 280 C256.35255741 275.39867379 255.5519415 271.82791225 253 268 C248.21590635 264.81060423 243.71421894 264.91291276 238.078125 265.09375 C237.10359375 265.1246875 236.1290625 265.155625 235.125 265.1875 C234.22007812 265.24292969 233.31515625 265.29835938 232.3828125 265.35546875 C230 265 230 265 228.1796875 263.515625 C226.19628663 259.28612115 226.88256989 254.8426013 227.1171875 250.28710938 C227.26420288 245.64387375 227.04714533 242.77366378 224 239 C220.68629 236.79086 219.6553979 236.77518447 215.8125 236.875 C214.46091797 236.90207031 214.46091797 236.90207031 213.08203125 236.9296875 C212.05142578 236.96449219 212.05142578 236.96449219 211 237 Z M3 283 C3 299.5 3 316 3 333 C31.38 333 59.76 333 89 333 C85.50765547 330.20612437 82.70564176 328.13435062 78.88671875 326.0390625 C77.89873291 325.49258057 76.91074707 324.94609863 75.89282227 324.38305664 C74.83506592 323.80289795 73.77730957 323.22273926 72.6875 322.625 C64.09074105 317.86151719 55.54093476 313.03369151 47.0625 308.0625 C45.09766397 306.91144516 43.13282012 305.76040366 41.16796875 304.609375 C39.67789307 303.73635742 39.67789307 303.73635742 38.15771484 302.84570312 C32.98114502 299.81996725 27.79425376 296.81219328 22.60299683 293.81173706 C20.91823186 292.8374994 19.23461311 291.86128043 17.55102539 290.88500977 C16.52098389 290.29002686 15.49094238 289.69504395 14.4296875 289.08203125 C13.52460449 288.55843018 12.61952148 288.0348291 11.68701172 287.49536133 C8.83806153 285.90987887 5.91619914 284.45809957 3 283 Z M192 290 C191.46396181 291.39006515 190.94682527 292.78742649 190.4375 294.1875 C190.14746094 294.96480469 189.85742188 295.74210937 189.55859375 296.54296875 C188.91750487 299.3628632 189.2574363 301.23136845 190 304 C191.60597325 303.54803755 193.20972508 303.08817673 194.8125 302.625 C195.70582031 302.36976563 196.59914063 302.11453125 197.51953125 301.8515625 C200.20467896 301.04733339 200.20467896 301.04733339 203 299 C201.54782324 297.49403892 200.08807139 295.99537896 198.625 294.5 C197.81289063 293.6646875 197.00078125 292.829375 196.1640625 291.96875 C194.2410341 289.77568714 194.2410341 289.77568714 192 290 Z " fill="#000000" transform="translate(68,59)"/>
</svg>
