<?xml version="1.0" encoding="UTF-8"?>
<svg version="1.1" xmlns="http://www.w3.org/2000/svg" width="512" height="512">
<path d="M0 0 C1.62300267 -0.00230896 3.2460043 -0.0054884 4.86900377 -0.00945449 C9.29538163 -0.01775128 13.7216725 -0.01370065 18.14805055 -0.00748205 C22.93476064 -0.00293749 27.72145628 -0.00995123 32.50816345 -0.01544189 C41.87211173 -0.02431621 51.23602786 -0.02242264 60.59997737 -0.01661661 C68.21302165 -0.0120924 75.82605694 -0.0114905 83.43910217 -0.01366425 C84.52430437 -0.01397071 85.60950657 -0.01427718 86.72759369 -0.01459293 C88.93244024 -0.01523241 91.13728679 -0.01588083 93.34213334 -0.01653811 C113.99730448 -0.02223566 134.65245784 -0.01569254 155.30762607 -0.00493738 C173.01511085 0.0039976 190.7225694 0.0024454 208.43005371 -0.0067749 C229.01336775 -0.0174877 249.59666622 -0.02168639 270.17998266 -0.01555037 C272.37653446 -0.0149133 274.57308626 -0.01428456 276.76963806 -0.01366425 C278.39058492 -0.01320142 278.39058492 -0.01320142 280.04427817 -0.01272924 C287.6445993 -0.01100533 295.24491051 -0.01391085 302.8452301 -0.01862335 C312.11258322 -0.0242434 321.37990247 -0.02269212 330.64725173 -0.01206186 C335.3718932 -0.00682028 340.0964783 -0.00472254 344.82111931 -0.01136017 C349.15254342 -0.01735316 353.4838593 -0.01398966 357.8152737 -0.00340506 C359.37567029 -0.00118517 360.93607617 -0.00227531 362.4964667 -0.00715664 C380.09765388 -0.0579611 395.33220839 1.44243544 408.63562012 14.04693604 C416.09117677 22.40485172 420.75921655 32.80684771 420.70392895 44.02065372 C420.70076961 45.17969591 420.69761027 46.3387381 420.69435519 47.53290278 C420.68578362 48.80194797 420.67721205 50.07099316 420.66838074 51.37849426 C420.6629215 52.74368915 420.65794555 54.10888604 420.65341121 55.47408432 C420.64264516 58.44178745 420.62876868 61.4094542 420.61253548 64.37713242 C420.58626159 69.20614226 420.56713613 74.03516425 420.54937744 78.86421204 C420.54310808 80.55428758 420.53683175 82.24436309 420.53054869 83.93443859 C420.52581016 85.21243364 420.52581016 85.21243364 420.5209759 86.51624678 C420.51089762 89.16666799 420.50014606 91.81708576 420.48923528 94.46750367 C420.43683079 107.3677472 420.40709494 120.26792126 420.39094543 133.16825867 C420.38974723 134.1014266 420.38854903 135.03459454 420.38731452 135.99604029 C420.37633985 144.66158699 420.36686069 153.32713508 420.3583082 161.99268448 C420.35236368 167.93435341 420.34558691 173.87602091 420.3380127 179.81768799 C420.33676546 180.80459686 420.33551823 181.79150573 420.3342332 182.80832093 C420.31262746 198.79185892 420.24453208 214.77489153 420.16017189 230.75820673 C420.07466763 247.17533762 420.0424908 263.59196812 420.05876857 280.00931591 C420.06706426 290.13144686 420.03353569 300.25166016 419.94598851 310.37342351 C419.88986333 317.31525233 419.88536433 324.25592841 419.92103382 331.19788743 C419.94006622 335.200585 419.93666818 339.19986773 419.87157631 343.20215607 C418.7938348 359.89580515 418.7938348 359.89580515 424.61725807 374.69776726 C427.41529523 377.39625638 430.40759376 379.40702664 433.82331145 381.24119651 C436.73734406 382.89821495 439.16584271 385.03817414 441.72937012 387.19146729 C442.57757324 387.86049072 443.42577637 388.52951416 444.29968262 389.21881104 C447.96790587 392.45803869 451.37832952 395.81198771 451.84265137 400.82818604 C452.00395791 407.59457119 451.86217179 411.87569149 447.60437012 417.25396729 C442.52657431 421.4063704 437.64271445 422.36773702 431.35437012 423.44146729 C429.55708859 423.76604716 427.76019149 424.09276522 425.96374512 424.42193604 C425.1745166 424.55881836 424.38528809 424.69570068 423.57214355 424.83673096 C421.5396573 425.18133941 421.5396573 425.18133941 419.60437012 426.25396729 C420.00546997 427.09205933 420.00546997 427.09205933 420.41467285 427.94708252 C421.63753614 430.52224496 422.83972136 433.10657382 424.04187012 435.69146729 C424.46274902 436.56996338 424.88362793 437.44845947 425.31726074 438.35357666 C428.76071427 445.8189839 430.90829034 453.10214799 428.44812012 461.21099854 C425.57824988 468.15980471 421.78887286 473.07702626 414.95983887 476.38287354 C408.17527972 478.89192277 401.36816329 478.86097105 394.60437012 476.25396729 C383.46413264 470.1318548 379.57462679 458.25442011 374.60437012 447.25396729 C374.1544873 447.59427979 373.70460449 447.93459229 373.24108887 448.28521729 C371.03391394 449.94833908 368.82024341 451.60244922 366.60437012 453.25396729 C365.65562012 453.9616626 364.70687012 454.66935791 363.72937012 455.39849854 C362.75999512 456.11392822 361.79062012 456.82935791 360.79187012 457.56646729 C359.42095215 458.581604 359.42095215 458.581604 358.02233887 459.61724854 C353.41737487 462.73434048 348.98445772 462.75229444 343.60437012 462.25396729 C337.79530509 460.24313708 334.27107806 456.50336263 331.47595215 451.05401611 C330.35504741 447.45299189 330.35542413 444.05822508 330.40905762 440.32818604 C330.41330246 439.20679985 330.41330246 439.20679985 330.41763306 438.0627594 C330.42877543 435.68882848 330.4538685 433.31528304 330.47937012 430.94146729 C330.48940762 429.32623838 330.49853213 427.71100353 330.50671387 426.09576416 C330.52869523 422.14835135 330.56318355 418.20122454 330.60437012 414.25396729 C329.49136873 414.25624561 329.49136873 414.25624561 328.35588247 414.25856996 C284.35656863 414.3481267 240.35726474 414.41673598 196.35787799 414.4582286 C191.07212196 414.46323129 185.78636611 414.4684086 180.50061035 414.47369385 C178.92219488 414.47526771 178.92219488 414.47526771 177.31189223 414.47687337 C160.28458189 414.49426775 143.25732569 414.52580012 126.23004744 414.56257847 C108.75208625 414.60001478 91.27415337 414.62220883 73.79615372 414.63032126 C63.01556694 414.63580345 52.23513322 414.65310424 41.45459356 414.68563315 C34.05702936 414.70681424 26.65954403 414.71315919 19.26195172 414.70797279 C14.99705012 414.70541661 10.73241556 414.70927178 6.46756172 414.73078918 C2.55556317 414.75038126 -1.355991 414.75115621 -5.26801083 414.73756287 C-6.67604801 414.73588504 -8.08411394 414.74085176 -9.49209531 414.75350001 C-22.7468468 414.86555402 -33.78704567 412.40582673 -44.39562988 404.25396729 C-45.28250488 403.65584229 -46.16937988 403.05771729 -47.08312988 402.44146729 C-54.0505016 395.85071026 -60.05240789 385.31837542 -60.52558172 375.57921797 C-60.52791236 374.54886897 -60.530243 373.51851997 -60.53264427 372.45694828 C-60.53771881 371.26567988 -60.54279336 370.07441149 -60.54802167 368.84704405 C-60.54876831 366.88176596 -60.54876831 366.88176596 -60.54953003 364.87678528 C-60.55354575 363.4719151 -60.55798416 362.06704608 -60.56280959 360.66217846 C-60.57476906 356.79697641 -60.5804221 352.93178684 -60.58499074 349.06656992 C-60.59094934 344.89933684 -60.60255867 340.73211866 -60.61328125 336.56489563 C-60.63780131 326.49745194 -60.65243284 316.43000332 -60.66534132 306.36253896 C-60.66905386 303.51823204 -60.67302705 300.67392561 -60.67709398 297.82961917 C-60.70233366 280.16148823 -60.72438373 262.49335651 -60.73682213 244.82521152 C-60.73975176 240.7328599 -60.74271343 236.6405083 -60.74572754 232.54815674 C-60.74647359 231.53103853 -60.74721964 230.51392032 -60.7479883 229.46598034 C-60.7606353 212.9982547 -60.79384958 196.53063719 -60.83552937 180.06296206 C-60.87798493 163.14987634 -60.90152144 146.23684591 -60.90674269 129.32370704 C-60.91015295 119.83013175 -60.92186243 110.33672536 -60.95484543 100.84320259 C-60.98289703 92.7558701 -60.99382294 84.66874116 -60.98264997 76.5813638 C-60.97747614 72.45814524 -60.98026631 68.33535257 -61.00511551 64.21219635 C-61.02771977 60.4297896 -61.02678278 56.6481119 -61.00791164 52.86569142 C-61.00381838 50.86528587 -61.02417456 48.86487511 -61.04569852 46.86458117 C-60.92528022 33.02826675 -56.23412785 22.53761452 -46.81359863 12.58209229 C-33.7395014 0.23963553 -16.96816635 -0.05308111 0 0 Z M-37.39562988 28.25396729 C-44.72256406 39.19679106 -43.39562988 45.49754629 -43.39562988 60.25396729 C104.11437012 60.25396729 251.62437012 60.25396729 403.60437012 60.25396729 C404.25294908 41.6167751 404.25294908 41.6167751 395.60437012 26.25396729 C388.74117789 20.76087628 382.52346151 18.0070479 373.63145065 17.99669838 C372.9504857 17.9931923 372.26952076 17.98968623 371.56792051 17.98607391 C369.2874063 17.97677428 367.00714827 17.98167945 364.72662354 17.98654175 C363.07452507 17.98280476 361.42242837 17.97820304 359.77033448 17.9728111 C355.23114534 17.96057164 350.69202986 17.96084269 346.15282798 17.96319985 C341.25697934 17.96360778 336.36115439 17.95257114 331.46531677 17.94308472 C321.8734877 17.9264684 312.2816832 17.92097488 302.68984094 17.91985996 C294.89305945 17.91890976 287.09628607 17.91480084 279.29950714 17.90845871 C257.19525965 17.89084434 235.09103159 17.88162011 212.98677704 17.88311966 C211.79501146 17.88319957 210.60324589 17.88327948 209.37536621 17.88336182 C207.5855356 17.88348446 207.5855356 17.88348446 205.75954679 17.88360958 C186.42203652 17.88442247 167.08460415 17.86528461 147.74711642 17.83708508 C127.89255474 17.80835995 108.03803106 17.7945446 88.18344808 17.79627264 C77.03621332 17.79693668 65.88906022 17.79143809 54.74184418 17.76991653 C45.25059934 17.75170961 35.75947316 17.7473534 26.26821843 17.76093538 C21.4264677 17.76746755 16.58494466 17.76757319 11.74321556 17.75022888 C7.30794533 17.73450417 2.87308344 17.73735567 -1.56217679 17.75479715 C-3.16378166 17.75786837 -4.76541696 17.75423003 -6.36698595 17.743077 C-18.24416332 17.66586676 -29.18613866 18.74934005 -37.39562988 28.25396729 Z M-43.39562988 77.25396729 C-43.47812988 126.07334229 -43.56062988 174.89271729 -43.64562988 225.19146729 C-43.6820459 240.61501953 -43.71846191 256.03857178 -43.75598145 271.92950439 C-43.76935792 285.73663914 -43.76935792 285.73663914 -43.77740479 299.54377747 C-43.78113634 305.70094401 -43.7958149 311.85796553 -43.81793213 318.01509094 C-43.84340587 325.11712958 -43.85497079 332.21902902 -43.84940968 339.32111368 C-43.84700145 342.95365783 -43.85080174 346.58589094 -43.87249041 350.21837795 C-43.89559173 354.11117186 -43.88759546 358.00355313 -43.87664795 361.89640808 C-43.88829861 363.0254786 -43.89994926 364.15454912 -43.91195297 365.3178339 C-43.83825355 375.06127373 -41.09832169 382.29130867 -34.45812988 389.46099854 C-27.71886762 395.31956175 -20.10137538 397.38016583 -11.34554577 397.37701511 C-10.12336887 397.37900616 -8.90119196 397.38099721 -7.6419794 397.38304859 C-6.28896325 397.38019575 -4.93594729 397.37725016 -3.58293152 397.3742218 C-2.14318552 397.3746579 -0.7034396 397.37553351 0.73630589 397.37681097 C4.69276697 397.37904843 8.64920102 397.37504485 12.60565865 397.37003291 C16.87214096 397.36571788 21.13862172 397.36717558 25.40510559 397.36793518 C32.79714126 397.36845975 40.1891681 397.36531996 47.58120155 397.35969734 C58.26886534 397.35157324 68.95652486 397.34896619 79.64419141 397.34770935 C96.98386603 397.34552027 114.32353594 397.33886406 131.66320801 397.32940674 C148.50793433 397.32022892 165.35265938 397.31314989 182.1973877 397.30889893 C183.23554854 397.3086362 184.27370938 397.30837348 185.34332965 397.30810279 C190.55143326 397.30679776 195.75953689 397.30553405 200.96764052 397.30429089 C244.17988698 397.29392274 287.3921283 397.27630831 330.60437012 397.25396729 C330.60801575 396.40729492 330.61166138 395.56062256 330.61541748 394.68829346 C330.65338161 386.68497114 330.71032949 378.68205284 330.78827286 370.67901611 C330.82767798 366.56514966 330.85990031 362.45149501 330.87536621 358.33746338 C330.89057913 354.36254254 330.92510555 350.38820428 330.97267914 346.4135437 C330.98744546 344.9018563 330.9954084 343.3900857 330.99625397 341.87832642 C331.01294474 326.99222239 331.01294474 326.99222239 335.60437012 320.25396729 C340.87701765 316.05737027 344.89914726 314.80695243 351.60437012 315.25396729 C356.80544658 317.12102038 360.60322794 319.56503223 364.72937012 323.25396729 C365.86461149 324.24114807 367.00003339 325.22812129 368.13562012 326.21490479 C368.70925293 326.71860596 369.28288574 327.22230713 369.87390137 327.74127197 C372.63210886 330.1523687 375.43024684 332.51562564 378.22937012 334.87896729 C378.76666748 335.33360352 379.30396484 335.78823975 379.85754395 336.25665283 C387.61923455 342.8155462 395.47109543 349.15401127 403.60437012 355.25396729 C403.60437012 263.51396729 403.60437012 171.77396729 403.60437012 77.25396729 C256.09437012 77.25396729 108.58437012 77.25396729 -43.39562988 77.25396729 Z M348.60437012 333.25396729 C348.60437012 369.55396729 348.60437012 405.85396729 348.60437012 443.25396729 C353.5431954 439.54984832 358.46909646 435.83931116 363.35437012 432.06646729 C365.43604673 430.46011495 367.51952197 428.85621169 369.60437012 427.25396729 C370.31077637 426.67002197 371.01718262 426.08607666 371.74499512 425.48443604 C373.85655686 424.087079 375.09006656 423.79325328 377.60437012 423.75396729 C378.26437012 423.72302979 378.92437012 423.69209229 379.60437012 423.66021729 C382.70918414 424.58195895 383.73658296 426.66261102 385.60437012 429.25396729 C386.69996667 431.39146131 387.72750419 433.56470964 388.69812012 435.76177979 C389.25913928 437.00795403 389.82034266 438.25404534 390.38171387 439.50006104 C391.24756452 441.44490239 392.1097842 443.39125532 392.96813965 445.3394165 C393.80633085 447.23451964 394.65773203 449.12325533 395.51062012 451.01177979 C396.00884277 452.13729248 396.50706543 453.26280518 397.02038574 454.42242432 C398.62461951 457.29016526 399.7880949 458.62234913 402.60437012 460.25396729 C405.91847521 460.83393568 407.15582006 460.54906601 409.97937012 458.69146729 C411.94154036 456.28678539 411.94154036 456.28678539 411.37390137 452.9866333 C410.61686084 449.3145544 409.54590229 446.45850003 407.91687012 443.09381104 C407.38319824 441.97039307 406.84952637 440.8469751 406.29968262 439.68951416 C405.74022949 438.53515869 405.18077637 437.38080322 404.60437012 436.19146729 C403.49336226 433.89137382 402.38894476 431.58808272 401.29187012 429.28131104 C400.8007373 428.26802734 400.30960449 427.25474365 399.80358887 426.21075439 C398.11570729 422.04912291 397.01608041 418.77659946 398.66687012 414.50396729 C402.25601429 410.33592889 407.87373008 409.90998786 413.09655762 408.96490479 C414.29538574 408.74576416 415.49421387 408.52662354 416.72937012 408.30084229 C417.96687012 408.07912354 419.20437012 407.85740479 420.47937012 407.62896729 C421.74007324 407.39951416 423.00077637 407.17006104 424.29968262 406.93365479 C427.40056028 406.36985885 430.50211029 405.81009868 433.60437012 405.25396729 C433.60437012 404.59396729 433.60437012 403.93396729 433.60437012 403.25396729 C432.11698776 401.9001458 430.56006461 400.62256843 428.97937012 399.37896729 C424.44360062 395.7526837 419.99773152 392.05133239 415.60437012 388.25396729 C411.50255957 384.71731232 407.37632671 381.22531401 403.16687012 377.81646729 C398.06209169 373.67400349 393.1081433 369.37277629 388.15368652 365.05328369 C383.64970011 361.13562859 379.06703214 357.33218151 374.42858887 353.57427979 C369.8794922 349.83684767 365.4248949 345.99009842 360.96374512 342.14849854 C360.14486816 341.44587891 360.14486816 341.44587891 359.30944824 340.72906494 C358.09724808 339.680366 356.89367807 338.62165504 355.69616699 337.55621338 C355.07290527 337.00658936 354.44964355 336.45696533 353.80749512 335.89068604 C353.24191895 335.38625977 352.67634277 334.8818335 352.09362793 334.36212158 C350.64633317 333.05497879 350.64633317 333.05497879 348.60437012 333.25396729 Z " fill="#000000" transform="translate(60.3956298828125,16.74603271484375)"/>
<path d="M0 0 C0.76159424 0.00491455 1.52318848 0.0098291 2.30786133 0.01489258 C9.64776777 0.1677583 14.96035044 1.42900501 21.125 5.5 C27.78073313 12.46530211 31.8125 24.62022473 31.8125 34.3125 C32.783413 34.30973462 33.754326 34.30696924 34.75466061 34.30412006 C58.39140704 34.23748803 82.02814127 34.18820686 105.66496181 34.15706348 C117.09560423 34.14160204 128.52618455 34.12052627 139.95678711 34.08618164 C149.92100586 34.05625724 159.88517963 34.03691974 169.84944206 34.03023452 C175.12425273 34.02632743 180.39893475 34.01716016 185.67370415 33.99530983 C190.64193606 33.97489671 195.60998674 33.96867598 200.57825661 33.97317696 C202.39828858 33.97235392 204.21832683 33.96641711 206.03832245 33.95488358 C226.42761571 33.83204857 226.42761571 33.83204857 232.93359375 38.99609375 C233.58521484 39.86427734 233.58521484 39.86427734 234.25 40.75 C234.70246094 41.32621094 235.15492188 41.90242188 235.62109375 42.49609375 C240.12566871 49.36372443 239.60795525 56.14829648 238.09460449 64.07067871 C237.10812937 68.32223165 235.95530596 72.52709594 234.796875 76.734375 C234.37941084 78.28961197 233.96302902 79.84513983 233.54766846 81.40093994 C232.67929676 84.64083285 231.80091372 87.8777769 230.91455078 91.11279297 C229.78433069 95.23939627 228.67516955 99.3712968 227.57290268 103.50544357 C226.71661032 106.71076811 225.85146719 109.91364986 224.9834671 113.11582184 C224.57148191 114.63812879 224.16166207 116.16102362 223.75414276 117.68453217 C217.4645468 141.11954903 217.4645468 141.11954903 207.63671875 147.7890625 C199.08809888 152.702723 191.96297153 153.61368077 182.19775391 153.63134766 C180.92891357 153.64139328 179.66007324 153.6514389 178.3527832 153.66178894 C174.88631963 153.68901305 171.41989653 153.7042157 167.95335436 153.71721697 C164.32581998 153.73288086 160.69836784 153.75966065 157.07089233 153.7852478 C150.2075087 153.83197803 143.3441095 153.86874992 136.4806484 153.90192068 C128.66440394 153.94018282 120.8482422 153.98958222 113.03206754 154.03990483 C96.95893782 154.14313904 80.88576215 154.23242702 64.8125 154.3125 C65.37655267 156.4426989 65.96441658 158.5666042 66.5625 160.6875 C66.88734375 161.87085938 67.2121875 163.05421875 67.546875 164.2734375 C68.52587329 167.32296472 68.52587329 167.32296472 70.5973053 168.71084023 C73.31318352 169.44848856 75.68769649 169.56311926 78.50561523 169.5640564 C79.66648651 169.56943924 80.82735779 169.57482208 82.02340698 169.58036804 C83.29314362 169.57624405 84.56288025 169.57212006 85.87109375 169.56787109 C87.22478445 169.57062175 88.57847354 169.5743021 89.93215942 169.57884216 C92.84486065 169.58694842 95.75748513 169.5891241 98.67019653 169.58689499 C103.27555614 169.58406142 107.88076241 169.59841477 112.48608398 169.61587524 C125.58086861 169.66290018 138.6756425 169.68684857 151.77050781 169.69335938 C159.00451447 169.69710796 166.23834737 169.71511922 173.47227955 169.74845374 C178.0508281 169.76868793 182.62892916 169.77102867 187.20750427 169.76017356 C190.05506038 169.75756877 192.90235516 169.77155846 195.7498436 169.79025459 C197.70041879 169.79812405 199.65104236 169.78612923 201.60159302 169.77357483 C202.76246429 169.78459732 203.92333557 169.79561981 205.11938477 169.80697632 C206.12816177 169.80806585 207.13693878 169.80915539 208.17628479 169.81027794 C211.5324764 170.4496618 212.70363059 171.67993395 214.8125 174.3125 C215.89669635 177.33276127 215.94593632 178.84547289 215.0625 181.9375 C213.79379588 184.34803782 212.95577385 185.65497268 210.8125 187.3125 C208.23800564 187.69561005 208.23800564 187.69561005 205.0901947 187.70690918 C203.30085007 187.72393387 203.30085007 187.72393387 201.47535706 187.74130249 C200.16469772 187.73837189 198.85403839 187.73544128 197.50366211 187.73242188 C196.11058877 187.73976086 194.71752151 187.7483466 193.32446289 187.75808716 C189.53684616 187.78034229 185.74944677 187.78323147 181.96177363 187.78133965 C178.79623786 187.78122001 175.63074823 187.78978241 172.46522528 187.79811716 C164.98988785 187.81736963 157.51466207 187.82023009 150.03930664 187.81347656 C142.3429137 187.80685051 134.64700183 187.82963751 126.95070642 187.86679029 C120.33480514 187.89756196 113.71905788 187.90883878 107.10308653 187.90495348 C103.15561777 187.9028918 99.20852243 187.90827292 95.26112175 187.93284607 C91.54185865 187.95523156 87.82337083 187.95313895 84.10410309 187.93291855 C82.10215525 187.92792171 80.10019222 187.94744687 78.0983429 187.96792603 C68.73979233 187.88142175 61.49491658 185.93479475 54.5 179.5 C46.43532474 168.97067614 44.39324333 150.63777233 41.0234375 137.97265625 C40.47430682 135.91890132 39.92487139 133.86522784 39.37515259 131.81163025 C37.93306648 126.42126556 36.49494172 121.02985213 35.05773926 115.63818359 C33.6332213 110.29659095 32.20520908 104.95593301 30.77734375 99.61523438 C29.09376242 93.3176307 27.41071817 87.01988644 25.73065186 80.72134399 C23.00783289 70.5150681 20.27644366 60.31123499 17.52441406 50.11279297 C17.00474539 48.18485694 16.48510166 46.25691418 15.96548462 44.32896423 C14.99403452 40.72484649 14.0194156 37.12160567 13.0430603 33.51881409 C12.61142678 31.91809404 12.17991113 30.31734221 11.74853516 28.71655273 C11.55042866 27.98914572 11.35232216 27.2617387 11.14821243 26.51228905 C9.8125 21.53990461 9.8125 21.53990461 9.8125 19.3125 C8.57113281 19.27511719 7.32976562 19.23773438 6.05078125 19.19921875 C4.40882489 19.1335405 2.76689913 19.0670938 1.125 19 C0.30837891 18.97744141 -0.50824219 18.95488281 -1.34960938 18.93164062 C-6.03356025 18.72304362 -9.43450148 18.41692208 -13.1875 15.3125 C-15.03378775 11.23528121 -15.51309963 9.27121001 -14.0625 5 C-10.39448248 -0.25749178 -6.05450872 -0.04538415 0 0 Z M36.8125 52.3125 C37.93061576 56.6915018 39.05169286 61.0697305 40.17553711 65.44726562 C40.55754041 66.93696486 40.9387296 68.42687309 41.3190918 69.91699219 C41.8655415 72.05719413 42.41490199 74.19663058 42.96484375 76.3359375 C43.1346727 77.00370209 43.30450165 77.67146667 43.47947693 78.35946655 C44.39638142 81.92511087 44.39638142 81.92511087 45.8125 85.3125 C55.0525 85.3125 64.2925 85.3125 73.8125 85.3125 C73.338125 81.331875 72.86375 77.35125 72.375 73.25 C72.22748291 72.00855225 72.07996582 70.76710449 71.92797852 69.48803711 C71.56209179 66.42876949 71.189683 63.37039476 70.8125 60.3125 C70.7182373 59.54180176 70.62397461 58.77110352 70.52685547 57.97705078 C70.32305503 54.86716967 70.32305503 54.86716967 68.8125 52.3125 C66.4368148 52.2241033 64.09041326 52.19719695 61.71484375 52.21484375 C61.00598526 52.2162587 60.29712677 52.21767365 59.56678772 52.21913147 C57.29448288 52.22474557 55.02227525 52.23730037 52.75 52.25 C51.21289204 52.25501319 49.67578255 52.25957641 48.13867188 52.26367188 C44.36324358 52.27471958 40.58788829 52.29199359 36.8125 52.3125 Z M86.8125 52.3125 C87.286875 56.293125 87.76125 60.27375 88.25 64.375 C88.39751709 65.61644775 88.54503418 66.85789551 88.69702148 68.13696289 C89.06290821 71.19623051 89.435317 74.25460524 89.8125 77.3125 C89.9067627 78.08319824 90.00102539 78.85389648 90.09814453 79.64794922 C90.30194497 82.75783033 90.30194497 82.75783033 91.8125 85.3125 C93.95808827 85.40025605 96.10654421 85.41945219 98.25390625 85.41015625 C99.42896729 85.40765869 100.60402832 85.40516113 101.81469727 85.40258789 C103.31959717 85.39348389 104.82449707 85.38437988 106.375 85.375 C113.5215625 85.3440625 113.5215625 85.3440625 120.8125 85.3125 C120.8125 74.4225 120.8125 63.5325 120.8125 52.3125 C109.5925 52.3125 98.3725 52.3125 86.8125 52.3125 Z M137.8125 52.3125 C137.8125 63.2025 137.8125 74.0925 137.8125 85.3125 C147.7125 85.3125 157.6125 85.3125 167.8125 85.3125 C168.4725 80.98125 169.1325 76.65 169.8125 72.1875 C170.02132812 70.83253418 170.23015625 69.47756836 170.4453125 68.08154297 C170.60773438 67.00018066 170.77015625 65.91881836 170.9375 64.8046875 C171.10507812 63.70495605 171.27265625 62.60522461 171.4453125 61.47216797 C171.92793394 57.84934017 171.92793394 57.84934017 171.8125 52.3125 C160.5925 52.3125 149.3725 52.3125 137.8125 52.3125 Z M189.8125 52.3125 C189.1525 56.458125 188.4925 60.60375 187.8125 64.875 C187.60367188 66.16865479 187.39484375 67.46230957 187.1796875 68.79516602 C187.01726562 69.83342529 186.85484375 70.87168457 186.6875 71.94140625 C186.51992188 72.99400635 186.35234375 74.04660645 186.1796875 75.13110352 C185.67873474 78.9377201 185.67873474 78.9377201 185.8125 85.3125 C195.0525 85.3125 204.2925 85.3125 213.8125 85.3125 C214.97798563 81.09685943 216.13820089 76.88046728 217.28540039 72.65991211 C217.67722733 71.2245113 218.07206667 69.78992926 218.4699707 68.35620117 C219.04130777 66.29553602 219.60175617 64.23217174 220.16015625 62.16796875 C220.50054932 60.92684326 220.84094238 59.68571777 221.19165039 58.40698242 C222.08251952 55.29478238 222.08251952 55.29478238 220.8125 52.3125 C210.5825 52.3125 200.3525 52.3125 189.8125 52.3125 Z M50.8125 103.3125 C52.40651375 111.3732503 52.40651375 111.3732503 54.3203125 119.3203125 C54.58457031 120.32578125 54.84882813 121.33125 55.12109375 122.3671875 C55.39050781 123.38039063 55.65992188 124.39359375 55.9375 125.4375 C56.21464844 126.489375 56.49179688 127.54125 56.77734375 128.625 C57.45309537 131.18819581 58.13242288 133.75044845 58.8125 136.3125 C66.0725 136.3125 73.3325 136.3125 80.8125 136.3125 C80.26452209 131.93377421 79.71435452 127.55544362 79.15844727 123.17773438 C78.96995647 121.68799148 78.78277521 120.19808229 78.59692383 118.70800781 C78.32976777 116.56790967 78.05792885 114.42845109 77.78515625 112.2890625 C77.62281494 111.00080566 77.46047363 109.71254883 77.29321289 108.38525391 C76.98671284 105.40793117 76.98671284 105.40793117 75.8125 103.3125 C67.5625 103.3125 59.3125 103.3125 50.8125 103.3125 Z M93.8125 103.3125 C94.286875 107.458125 94.76125 111.60375 95.25 115.875 C95.39751709 117.16865479 95.54503418 118.46230957 95.69702148 119.79516602 C95.87599976 121.35255493 95.87599976 121.35255493 96.05859375 122.94140625 C96.17904053 123.99400635 96.2994873 125.04660645 96.42358398 126.13110352 C96.839214 129.53102488 97.32809906 132.92169342 97.8125 136.3125 C105.4025 136.3125 112.9925 136.3125 120.8125 136.3125 C120.8125 125.4225 120.8125 114.5325 120.8125 103.3125 C111.9025 103.3125 102.9925 103.3125 93.8125 103.3125 Z M137.8125 103.3125 C137.8125 114.2025 137.8125 125.0925 137.8125 136.3125 C145.4025 136.3125 152.9925 136.3125 160.8125 136.3125 C161.48571282 132.12595775 162.15128506 127.93843924 162.8125 123.75 C163.00328125 122.56857422 163.1940625 121.38714844 163.390625 120.16992188 C163.57109375 119.01943359 163.7515625 117.86894531 163.9375 116.68359375 C164.10507812 115.63099365 164.27265625 114.57839355 164.4453125 113.49389648 C164.94626526 109.6872799 164.94626526 109.6872799 164.8125 103.3125 C155.9025 103.3125 146.9925 103.3125 137.8125 103.3125 Z M182.8125 103.3125 C182.14046367 107.6867365 181.47467598 112.06176957 180.8125 116.4375 C180.62171875 117.675 180.4309375 118.9125 180.234375 120.1875 C180.05390625 121.38632812 179.8734375 122.58515625 179.6875 123.8203125 C179.51992188 124.92004395 179.35234375 126.01977539 179.1796875 127.15283203 C178.82106248 130.23881942 178.74707807 133.20904724 178.8125 136.3125 C189.27357417 136.85175966 189.27357417 136.85175966 198.31762695 132.01171875 C203.23795697 126.78928452 204.62431711 121.24764801 206.1875 114.375 C207.486875 108.8990625 207.486875 108.8990625 208.8125 103.3125 C200.2325 103.3125 191.6525 103.3125 182.8125 103.3125 Z " fill="#000000" transform="translate(128.1875,144.6875)"/>
<path d="M0 0 C0.901241 -0.0071553 1.80248199 -0.01431061 2.73103333 -0.02168274 C5.70987652 -0.03859044 8.68721914 -0.01915499 11.66601562 0.00219727 C13.73580042 0.00136876 15.80558516 -0.00108993 17.87536621 -0.00511169 C22.21317347 -0.00797112 26.55046481 0.00674593 30.88818359 0.03417969 C36.45038389 0.06826242 42.01166149 0.06224547 47.57390594 0.04351711 C51.84787698 0.03295202 56.12163306 0.04188054 60.39558411 0.05690193 C62.44651145 0.0620878 64.49746121 0.06159706 66.54838562 0.05535698 C69.41425908 0.04991079 72.27880861 0.07026088 75.14453125 0.09765625 C75.99348465 0.09113037 76.84243805 0.08460449 77.71711731 0.07788086 C83.46456101 0.17137343 83.46456101 0.17137343 86.59484863 2.53944397 C88.18488858 4.79054995 88.64009655 5.90167045 88.63476562 8.63110352 C88.65667969 9.29110352 88.67859375 9.95110352 88.70117188 10.63110352 C87.6859056 13.85977638 85.90157562 14.83928837 83.07226562 16.63110352 C80.123559 17.21427753 77.22899845 17.18826716 74.23046875 17.16455078 C73.35019516 17.17316635 72.46992157 17.18178192 71.56297302 17.19065857 C68.65951962 17.21332118 65.75703109 17.20657959 62.85351562 17.19750977 C60.83239454 17.20274495 58.81127591 17.20902104 56.79016113 17.21629333 C52.55676771 17.22669789 48.32371042 17.22213478 44.09033203 17.20751953 C38.66604299 17.1903254 33.24281258 17.21383473 27.81864166 17.24900913 C23.64586369 17.27097108 19.47333955 17.26954465 15.30052185 17.26124382 C13.30064228 17.26042377 11.30074417 17.26729749 9.30091858 17.28201485 C6.50463793 17.29943993 3.71026639 17.28493597 0.9140625 17.26220703 C-0.3235659 17.27974533 -0.3235659 17.27974533 -1.5861969 17.29763794 C-5.84822894 17.22717004 -7.46664346 16.99049897 -10.94519043 14.27915955 C-12.92773438 11.63110352 -12.92773438 11.63110352 -13.49023438 8.63110352 C-11.95632301 0.4502429 -7.20514533 -0.09923277 0 0 Z " fill="#000000" transform="translate(51.927734375,47.368896484375)"/>
<path d="M0 0 C4.25662554 3.08107639 7.4684332 7.12763904 8.75390625 12.26953125 C9.52539133 19.11794497 8.86152514 24.61210524 4.75390625 30.26953125 C1.16792682 34.03768611 -2.77015892 36.93351152 -7.98046875 37.640625 C-15.12061565 37.79785621 -19.81195536 37.06049867 -25.24609375 32.26953125 C-30.32771693 26.92045422 -31.73133703 22.08724884 -31.55859375 14.83203125 C-30.884261 9.30250271 -28.4552296 5.06971496 -24.30859375 1.39453125 C-16.69320478 -3.8896162 -8.21243567 -4.69519049 0 0 Z M-13.24609375 15.26953125 C-13.24609375 16.58953125 -13.24609375 17.90953125 -13.24609375 19.26953125 C-11.92609375 19.26953125 -10.60609375 19.26953125 -9.24609375 19.26953125 C-9.24609375 17.94953125 -9.24609375 16.62953125 -9.24609375 15.26953125 C-10.56609375 15.26953125 -11.88609375 15.26953125 -13.24609375 15.26953125 Z " fill="#000000" transform="translate(312.24609375,338.73046875)"/>
<path d="M0 0 C4.10997383 2.97023319 7.25331448 6.52556843 8.859375 11.34375 C9.34756683 17.84984496 9.76399905 23.82341944 5.859375 29.34375 C1.99778054 33.83154897 -1.67329246 36.90767444 -7.6875 37.6640625 C-14.82058891 37.95963248 -20.30661869 36.82565369 -25.671875 31.953125 C-30.04266306 27.12492889 -31.66822952 21.96525925 -31.4453125 15.48828125 C-30.56287846 9.27730323 -28.0874275 4.70151762 -23.140625 0.84375 C-16.12027742 -4.09243189 -7.42506497 -4.15803638 0 0 Z M-13.140625 15.34375 C-12.810625 16.66375 -12.480625 17.98375 -12.140625 19.34375 C-10.820625 19.01375 -9.500625 18.68375 -8.140625 18.34375 C-8.470625 17.35375 -8.800625 16.36375 -9.140625 15.34375 C-10.460625 15.34375 -11.780625 15.34375 -13.140625 15.34375 Z " fill="#000000" transform="translate(238.140625,338.65625)"/>
<path d="M0 0 C3.74785043 2.08213913 4.79482295 3.2947039 6 7.4375 C6 11.48459923 5.72493174 13.01960591 3 16 C-1.07721879 17.84628775 -3.04128999 18.32559963 -7.3125 16.875 C-11.21126761 14.15492958 -11.21126761 14.15492958 -12 11 C-11.92484951 6.79157236 -11.65198603 4.72649872 -8.8125 1.5625 C-5.45611204 -0.30215998 -3.7822566 -0.6303761 0 0 Z " fill="#000000" transform="translate(436,47)"/>
<path d="M0 0 C3.74785043 2.08213913 4.79482295 3.2947039 6 7.4375 C6 11.48459923 5.72493174 13.01960591 3 16 C-1.07721879 17.84628775 -3.04128999 18.32559963 -7.3125 16.875 C-11.21126761 14.15492958 -11.21126761 14.15492958 -12 11 C-11.92484951 6.79157236 -11.65198603 4.72649872 -8.8125 1.5625 C-5.45611204 -0.30215998 -3.7822566 -0.6303761 0 0 Z " fill="#000000" transform="translate(402,47)"/>
<path d="M0 0 C3.74785043 2.08213913 4.79482295 3.2947039 6 7.4375 C6 11.48459923 5.72493174 13.01960591 3 16 C-0.59405297 17.53080034 -2.89853344 18.22529998 -6.75 17.4375 C-9.65793603 15.57965198 -10.71501203 14.21246994 -12 11 C-12 6.74119188 -11.67800813 4.75549477 -8.8125 1.5625 C-5.45611204 -0.30215998 -3.7822566 -0.6303761 0 0 Z " fill="#000000" transform="translate(368,47)"/>
</svg>
