<?xml version="1.0" encoding="UTF-8"?>
<svg version="1.1" xmlns="http://www.w3.org/2000/svg" viewBox="-0.25 -1.16 1491.25 700.35" width="1491" height="698">
<path d="M0 0 C51.81 0 103.62 0 157 0 C177.47752668 56.88201857 177.47752668 56.88201857 183.81765747 74.67074585 C185.87403953 80.4399917 187.93321562 86.20824052 189.9921875 91.9765625 C190.61774284 93.72923683 190.61774284 93.72923683 191.25593567 95.51731873 C195.68053073 107.9112963 200.11998282 120.29993703 204.5625 132.6875 C205.14502533 134.31182449 205.14502533 134.31182449 205.73931885 135.96896362 C207.30626156 140.33805236 208.8733091 144.70710348 210.44052124 149.07609558 C213.67973208 158.10627332 216.91718687 167.13707978 220.15394592 176.1681366 C222.1644264 181.77759786 224.17529624 187.38691869 226.18725586 192.99584961 C229.5417591 202.34810462 232.8951435 211.70072355 236.23387146 221.05862427 C237.55509738 224.76120257 238.87830015 228.4630727 240.20175171 232.16485596 C240.81217831 233.87408273 241.42159117 235.58367193 242.02993774 237.29364014 C242.8533918 239.60812175 243.68019607 241.92137919 244.5078125 244.234375 C244.74848953 244.91382172 244.98916656 245.59326843 245.23713684 246.29330444 C246.19794604 249.38953175 246.19794604 249.38953175 248 252 C248.2253392 251.36521225 248.45067841 250.7304245 248.68284607 250.07640076 C259.99130184 218.22426508 271.35612804 186.39465707 282.878479 154.61915588 C286.83252291 143.71081172 290.75993746 132.79290024 294.6875 121.875 C296.1834642 117.71740129 297.67959044 113.55986091 299.17578125 109.40234375 C299.74894829 107.80965164 299.74894829 107.80965164 300.33369446 106.18478394 C322.46133033 44.70382944 322.46133033 44.70382944 332.54840088 16.91751099 C333.05134052 15.53196632 333.55391382 14.14628861 334.05609131 12.76046753 C334.71973214 10.92969972 335.38519011 9.09959091 336.05078125 7.26953125 C336.40825439 6.28573486 336.76572754 5.30193848 337.1340332 4.28833008 C338 2 338 2 339 0 C390.81 0 442.62 0 496 0 C496 143.55 496 287.1 496 435 C459.04 435 422.08 435 384 435 C383.67 345.24 383.34 255.48 383 163 C376.73 181.15 370.46 199.3 364 218 C356.375 239.875 356.375 239.875 352.7421875 250.2734375 C348.64305365 262.0092404 344.57149059 273.75458446 340.5 285.5 C334.88026187 301.71091698 329.24449967 317.91610223 323.58703613 334.1138916 C319.93644401 344.56650835 316.29571246 355.02244905 312.671875 365.484375 C312.30654663 366.53906479 311.94121826 367.59375458 311.56481934 368.68040466 C311.19924927 369.73582962 310.8336792 370.79125458 310.45703125 371.87866211 C304.84550811 388.07939798 299.22945769 404.27801877 293.5 420.4375 C293.15491394 421.41245422 293.15491394 421.41245422 292.80285645 422.40710449 C289.17334017 432.65331966 289.17334017 432.65331966 288 435 C259.95 435 231.9 435 203 435 C194.14530692 409.09738247 185.31262452 383.18809971 176.5625 357.25 C176.27774937 356.40623558 175.99299873 355.56247116 175.69961929 354.69313812 C166.297694 326.83259177 156.96828485 298.94798145 147.6640625 271.0546875 C147.41884716 270.319579 147.17363181 269.58447049 146.9209857 268.82708597 C135.60048738 234.8892255 124.303634 200.94347732 113 167 C112.67 255.44 112.34 343.88 112 435 C75.04 435 38.08 435 0 435 C0 291.45 0 147.9 0 0 Z M19 19 C19 150.01 19 281.02 19 416 C43.42 416 67.84 416 93 416 C93 310.73 93 205.46 93 97 C98.61 97.33 104.22 97.66 110 98 C125.29504853 143.21900516 140.518251 188.46118977 155.59375 233.75390625 C156.29302178 235.85445798 156.99230158 237.95500704 157.69158936 240.05555344 C163.71574173 258.15197348 169.73629513 276.24959062 175.75359774 294.34828943 C179.32312842 305.08461518 182.89448771 315.82032895 186.46914721 326.55494827 C188.13922477 331.57052171 189.8082189 336.58644869 191.47416687 341.60339546 C199.73974288 366.49319676 208.24284831 391.27785776 217 416 C235.81 416 254.62 416 274 416 C277.06458981 408.42139915 277.06458981 408.42139915 279.8684082 400.77368164 C280.18066849 399.87041641 280.49292877 398.96715118 280.81465149 398.03651428 C281.14007431 397.08731613 281.46549713 396.13811798 281.80078125 395.16015625 C282.15363693 394.13768295 282.50649261 393.11520966 282.87004089 392.06175232 C283.62616376 389.86998133 284.38120577 387.6778372 285.13525391 385.48535156 C287.15433288 379.6148648 289.18137439 373.74712575 291.20703125 367.87890625 C291.61555328 366.69467072 292.02407532 365.51043518 292.44497681 364.29031372 C296.10477586 353.68469572 299.79750064 343.0907705 303.5 332.5 C309.02934345 316.67677533 314.52209994 300.84110375 320 285 C325.80071397 268.22577437 331.6212438 251.45873159 337.47412109 234.70263672 C342.50177158 220.30833082 347.50606686 205.90603693 352.5 191.5 C358.29519572 174.78270338 364.10863045 158.071904 369.94094849 141.36752319 C374.98508936 126.92008475 380.00687937 112.46516519 385 98 C390.94 97.67 396.88 97.34 403 97 C403 202.27 403 307.54 403 416 C427.42 416 451.84 416 477 416 C477 284.99 477 153.98 477 19 C436.08 19 395.16 19 353 19 C349.86511497 26.52372407 346.84264885 33.95597763 344.12890625 41.62109375 C343.59709244 43.11023285 343.59709244 43.11023285 343.05453491 44.62945557 C342.28889826 46.7742464 341.52465641 48.91953556 340.76168823 51.0652771 C338.66273627 56.96771484 336.55301764 62.8663086 334.4453125 68.765625 C334.0028569 70.00499313 333.56040131 71.24436127 333.10453796 72.52128601 C328.31193116 85.94309291 323.47520727 99.34892842 318.63557053 112.75383377 C316.76725901 117.92908578 314.89988165 123.10467502 313.03232384 128.28019905 C312.57140427 129.55751194 312.11046809 130.83481883 311.64951515 132.11211967 C307.45478834 143.7357351 303.2674211 155.36198856 299.08334351 166.98944092 C291.93678845 186.84937095 284.78425495 206.70714476 277.625 226.5625 C277.38938103 227.21596279 277.15376205 227.86942558 276.91100311 228.54269028 C269.63998744 248.70704539 262.34774201 268.86346651 255 289 C250.05 289 245.1 289 240 289 C239.49251221 287.55270508 238.98502441 286.10541016 238.4621582 284.61425781 C226.59999599 250.73361228 226.59999599 250.73361228 214.5 216.9375 C214.12654449 215.90761963 214.12654449 215.90761963 213.74554443 214.85693359 C213.23099362 213.43819601 212.7164263 212.01946442 212.20184326 210.60073853 C211.94058655 209.8804245 211.67932983 209.16011047 211.41015625 208.41796875 C211.14583801 207.68935638 210.88151978 206.96074402 210.60919189 206.21005249 C206.69086242 195.40003553 202.81652821 184.57416556 198.9375 173.75 C198.53660156 172.63148651 198.13570312 171.51297302 197.72265625 170.36056519 C191.05296807 151.75006421 184.40136522 133.13312274 177.75576782 114.51400757 C170.61189988 94.49907353 163.4462866 74.49199744 156.265625 54.49023438 C155.52341896 52.42188165 154.78123089 50.35352248 154.0390625 48.28515625 C153.68869934 47.30962799 153.33833618 46.33409973 152.97735596 45.32901001 C151.35762863 40.81328259 149.74843113 36.29442863 148.16699219 31.76513672 C147.88721527 30.96490585 147.60743835 30.16467499 147.31918335 29.3401947 C146.80400922 27.86306254 146.291332 26.38505619 145.78164673 24.90602112 C144.83321861 21.70110149 144.83321861 21.70110149 143 19 C102.08 19 61.16 19 19 19 Z " fill="black" transform="translate(514,12)"/>
<path d="M0 0 C1.00112823 0.00215515 2.00225647 0.0043103 3.03372192 0.00653076 C64.92858874 0.21914132 128.16629292 13.25524774 174.26953125 57.1328125 C176.62101424 59.42394708 176.62101424 59.42394708 179.625 61.3125 C179.03717109 64.70088723 177.93729003 66.39360072 175.5625 68.8515625 C174.62168579 69.83781616 174.62168579 69.83781616 173.66186523 70.84399414 C172.98969971 71.53485107 172.31753418 72.22570801 171.625 72.9375 C170.24014889 74.38601496 168.85603074 75.83523102 167.47265625 77.28515625 C166.80379395 77.9827002 166.13493164 78.68024414 165.44580078 79.39892578 C163.27147629 81.68403645 161.15777254 84.01732141 159.0625 86.375 C154.7570143 91.1994143 150.3425794 95.91741316 145.92431641 100.63818359 C140.44890288 106.49151728 135.03083347 112.39487164 129.625 118.3125 C127.81334252 120.29243916 126.00053393 122.27132129 124.1875 124.25 C123.51799316 124.98138184 123.51799316 124.98138184 122.83496094 125.72753906 C120.36770319 128.42053591 117.89194873 131.10525855 115.40625 133.78125 C114.8692749 134.36011963 114.3322998 134.93898926 113.77905273 135.53540039 C112.74878114 136.64532483 111.71713117 137.75397206 110.68383789 138.86108398 C107.85488843 141.91028288 105.18108762 145.03128114 102.625 148.3125 C98.42934988 146.70032895 95.82321556 143.56554194 92.8125 140.375 C69.16374948 116.16021585 38.03895131 105.47934067 4.51708984 105.07104492 C-30.59086131 104.9792217 -62.54021896 114.00831163 -88.23828125 139.01953125 C-112.39389803 163.65156081 -121.65958502 198.39793535 -121.62158203 232.09301758 C-121.23090169 266.05277243 -109.95958169 297.99788818 -86.21484375 322.56640625 C-61.18606039 346.76892991 -27.80378101 355.11964679 6.07421875 354.55859375 C31.16704097 353.81105303 52.25171315 347.40211155 75.625 338.3125 C75.955 320.8225 76.285 303.3325 76.625 285.3125 C51.875 285.3125 27.125 285.3125 1.625 285.3125 C1.625 250.9925 1.625 216.6725 1.625 181.3125 C62.015 181.3125 122.405 181.3125 184.625 181.3125 C184.625 258.8625 184.625 336.4125 184.625 416.3125 C168.99401561 424.1279922 153.96571645 431.42035914 137.625 437.3125 C136.74779297 437.63057617 135.87058594 437.94865234 134.96679688 438.27636719 C115.14167359 445.38222598 94.99352113 450.09353154 74.25 453.5625 C73.50644257 453.68746857 72.76288513 453.81243713 71.99679565 453.94119263 C48.68211087 457.82326762 25.50460176 459.54797446 1.875 459.5625 C0.38632919 459.56351212 0.38632919 459.56351212 -1.13241577 459.56454468 C-66.14662295 459.49457998 -126.91653026 439.55393174 -174.375 394.3125 C-175.10332031 393.62542969 -175.83164063 392.93835938 -176.58203125 392.23046875 C-191.39904697 377.88105116 -202.60345532 360.34056217 -212.375 342.3125 C-212.92003174 341.31089844 -212.92003174 341.31089844 -213.47607422 340.2890625 C-231.35331868 306.74248601 -237.84921196 267.88280911 -237.6875 230.25 C-237.68567719 229.36130219 -237.68385437 228.47260437 -237.68197632 227.55697632 C-237.46477358 164.30994498 -215.72666703 107.99727434 -171.6875 62.375 C-166.21485593 56.97002387 -160.29407963 52.26652143 -154.15429688 47.65185547 C-153.00988727 46.79040773 -151.87013499 45.92271894 -150.73632812 45.04736328 C-123.00422186 23.65426662 -89.20239845 11.24422189 -55.125 4.5 C-53.65571045 4.2074231 -53.65571045 4.2074231 -52.15673828 3.90893555 C-34.86890932 0.70334842 -17.54469787 -0.06851609 0 0 Z M-46.375 22.3125 C-47.31923828 22.47878906 -48.26347656 22.64507813 -49.23632812 22.81640625 C-88.27761319 29.90527442 -124.83375823 46.23198574 -154.1015625 73.2265625 C-156.2139424 75.1647255 -158.37498072 77.02273271 -160.5625 78.875 C-173.28931069 90.02683612 -182.85499229 104.83745532 -191.375 119.3125 C-191.72804199 119.90724121 -192.08108398 120.50198242 -192.44482422 121.11474609 C-206.59718651 145.26657547 -214.11542145 172.66888157 -217.375 200.3125 C-217.4692627 201.01858398 -217.56352539 201.72466797 -217.66064453 202.45214844 C-224.38546175 258.39204126 -211.00437251 317.58589318 -176.71044922 362.63818359 C-173.64963269 366.47567533 -170.29844067 370.03851218 -166.91796875 373.59375 C-165.11789649 375.51825122 -163.42735855 377.4284305 -161.76171875 379.4609375 C-158.61623984 383.21903833 -155.13759621 386.18861611 -151.375 389.3125 C-150.86710937 389.74336914 -150.35921875 390.17423828 -149.8359375 390.61816406 C-121.49572594 414.59200582 -86.6236883 429.78479411 -50.25 436.5625 C-49.44127441 436.71364258 -48.63254883 436.86478516 -47.79931641 437.02050781 C-31.82308755 439.79109673 -15.8783853 440.69162014 0.3125 440.625 C1.24154144 440.62317719 2.17058289 440.62135437 3.1277771 440.61947632 C59.22606316 440.43578685 115.25625453 429.49687273 165.625 404.3125 C165.625 336.9925 165.625 269.6725 165.625 200.3125 C117.775 200.3125 69.925 200.3125 20.625 200.3125 C20.625 222.0925 20.625 243.8725 20.625 266.3125 C45.375 266.3125 70.125 266.3125 95.625 266.3125 C95.295 294.0325 94.965 321.7525 94.625 350.3125 C72.4895194 360.79772765 72.4895194 360.79772765 61.875 364.1875 C60.13863281 364.75126343 60.13863281 364.75126343 58.3671875 365.32641602 C50.17333579 367.9359046 42.16131141 370.14546294 33.625 371.3125 C32.96322754 371.41111328 32.30145508 371.50972656 31.61962891 371.61132812 C-8.53544022 377.46210108 -52.35758511 372.78099152 -85.75 347.99755859 C-90.88087478 344.04225046 -95.69111077 339.78198585 -100.375 335.3125 C-101.0246875 334.73757813 -101.674375 334.16265625 -102.34375 333.5703125 C-126.84501396 310.97693385 -138.23746257 274.7197184 -140.375 242.3125 C-141.96239421 199.80482834 -132.44479858 158.88925654 -103.2109375 126.7734375 C-96.03272488 119.17761929 -88.12286876 112.99381103 -79.375 107.3125 C-78.43527344 106.68859375 -77.49554687 106.0646875 -76.52734375 105.421875 C-42.32635372 84.06429473 2.83226281 81.6506172 41.4375 89.91455078 C53.69340668 92.78702891 64.66567966 97.17919029 75.625 103.3125 C76.70265625 103.89 77.7803125 104.4675 78.890625 105.0625 C85.3045716 108.61483966 90.77645509 112.71089524 96.25 117.58984375 C98.67566122 119.70392806 98.67566122 119.70392806 102.625 119.3125 C104.26960701 118.14313769 104.26960701 118.14313769 105.69140625 116.453125 C106.25359863 115.83808105 106.81579102 115.22303711 107.39501953 114.58935547 C107.98653809 113.92049316 108.57805664 113.25163086 109.1875 112.5625 C110.11731689 111.53793701 110.11731689 111.53793701 111.06591797 110.49267578 C112.33075478 109.09774519 113.59119184 107.69881237 114.84716797 106.29589844 C117.29035422 103.57021249 119.7703726 100.88007939 122.25 98.1875 C123.12914062 97.22585937 124.00828125 96.26421875 124.9140625 95.2734375 C127.30272171 92.66144127 129.70138254 90.05883425 132.10351562 87.45922852 C133.11067127 86.36916676 134.1171913 85.27851736 135.12304688 84.18725586 C137.65818428 81.43712886 140.20093741 78.69478244 142.7578125 75.96484375 C143.75523497 74.89325396 144.7526318 73.8216403 145.75 72.75 C147.08417969 71.32494141 147.08417969 71.32494141 148.4453125 69.87109375 C150.29199269 67.70339567 151.53414588 65.91706741 152.625 63.3125 C142.73396749 55.70947932 132.71092529 49.04592813 121.625 43.3125 C120.72128662 42.84118652 120.72128662 42.84118652 119.79931641 42.36035156 C93.53350635 28.85633838 63.77494129 23.2817025 34.625 20.3125 C33.77510498 20.2182373 32.92520996 20.12397461 32.04956055 20.02685547 C21.87110242 19.01901593 11.6558129 19.06883151 1.4375 19.0625 C0.45834625 19.06182526 -0.5208075 19.06115051 -1.52963257 19.06045532 C-16.68302006 19.07702249 -31.42866676 19.59498486 -46.375 22.3125 Z " fill="black" transform="translate(1289.375,-0.3125)"/>
<path d="M0 0 C1.45862096 1.38143477 2.91689238 2.76335883 4.35986328 4.16113281 C5.47196598 5.23709475 6.59078451 6.30613655 7.71435547 7.37011719 C47.29678565 44.90180444 70.50239753 100.81351949 72.14428711 155.15258789 C72.26483014 161.03939048 72.27149752 166.92471276 72.25 172.8125 C72.24726578 174.36721512 72.24726578 174.36721512 72.24447632 175.95333862 C72.19973822 191.06009807 71.8478647 205.81771344 68.9375 220.6875 C68.77121094 221.57937012 68.60492188 222.47124023 68.43359375 223.39013672 C58.3110307 276.41174706 29.75700937 327.36382803 -15.0625 358.6875 C-16.11308594 359.45578125 -17.16367187 360.2240625 -18.24609375 361.015625 C-60.16654713 390.95185357 -111.81892979 402.90333668 -162.625 402.9375 C-163.9823526 402.93851212 -163.9823526 402.93851212 -165.36712646 402.93954468 C-222.62584969 402.87202409 -280.16382875 386.69648993 -324.0625 348.6875 C-324.87847656 347.98238281 -325.69445312 347.27726562 -326.53515625 346.55078125 C-329.08304254 344.3016962 -331.58010528 342.00865155 -334.0625 339.6875 C-334.99835938 338.81738281 -335.93421875 337.94726562 -336.8984375 337.05078125 C-375.90791613 299.92625509 -397.86261327 242.66420685 -399.18676758 189.40087891 C-399.28299709 184.30900721 -399.30909845 179.21769769 -399.3125 174.125 C-399.31317474 173.21632172 -399.31384949 172.30764343 -399.31454468 171.37142944 C-399.2585762 123.77468922 -387.62302433 74.65379676 -359.0625 35.6875 C-358.29421875 34.635625 -357.5259375 33.58375 -356.734375 32.5 C-351.40040399 25.32899622 -345.64822184 18.62586812 -339.47460938 12.16699219 C-338.5381544 11.1858516 -337.60707769 10.19954753 -336.68164062 9.20800781 C-304.30053709 -25.43383567 -257.30422625 -45.82891689 -211.0625 -53.3125 C-209.64493408 -53.55371582 -209.64493408 -53.55371582 -208.19873047 -53.79980469 C-136.55153092 -65.54127851 -54.87374722 -49.50406418 0 0 Z M-330.0625 29.8125 C-358.12106193 61.63944485 -374.07184454 101.80262278 -379.0625 143.6875 C-379.20389404 144.85877441 -379.20389404 144.85877441 -379.34814453 146.05371094 C-385.15369177 200.82733548 -373.95619105 261.08988904 -339.21704102 305.02636719 C-336.55785325 308.29885146 -333.83185744 311.50793096 -331.0625 314.6875 C-330.32700928 315.53465576 -330.32700928 315.53465576 -329.57666016 316.39892578 C-314.16857941 334.00290757 -295.61091824 347.62857356 -275.0625 358.6875 C-274.41587402 359.03619141 -273.76924805 359.38488281 -273.10302734 359.74414062 C-227.34273391 383.90021781 -169.64924457 389.53293354 -119.0625 380.6875 C-118.1255127 380.52652832 -117.18852539 380.36555664 -116.22314453 380.19970703 C-64.65428181 370.98370942 -15.63667903 344.56549215 15.125 301.375 C20.63442986 293.44776918 25.50588208 285.25968041 29.9375 276.6875 C30.31503418 275.96369141 30.69256836 275.23988281 31.08154297 274.49414062 C39.40053606 258.35145718 44.80153378 241.57481625 48.75 223.875 C48.9449707 223.00584961 49.13994141 222.13669922 49.34082031 221.24121094 C52.66962196 205.39564544 53.31298787 189.70272061 53.25 173.5625 C53.24784485 172.5686026 53.2456897 171.5747052 53.24346924 170.5506897 C53.05056754 115.12601767 35.01162373 64.51871545 -3.0625 23.6875 C-4.09117187 22.57761719 -4.09117187 22.57761719 -5.140625 21.4453125 C-40.82174678 -15.68948461 -96.40144303 -36.14187538 -147.25732422 -37.43676758 C-216.5411282 -38.78002687 -281.22159851 -21.70677351 -330.0625 29.8125 Z " fill="black" transform="translate(399.0625,56.3125)"/>
<path d="M0 0 C37.84521595 -0.84688595 72.89069589 11.97188227 100.35864258 37.93237305 C128.0050912 64.75065926 140.54905398 103.8060504 141.21240234 141.66064453 C141.48370334 183.12570282 129.14152417 221.95267542 99.85546875 251.875 C73.25017194 278.22706376 37.18531996 289.25509769 0.33984375 289.15625 C-37.89367514 288.43619718 -71.21964163 274.66023479 -98.32421875 247.640625 C-115.67857222 229.36719362 -126.19556443 206.50139076 -131.83203125 182.125 C-132.09669189 181.0424292 -132.09669189 181.0424292 -132.36669922 179.93798828 C-137.68656842 157.36676921 -137.03670932 129.63967566 -131.83203125 107.125 C-131.6604248 106.36670898 -131.48881836 105.60841797 -131.31201172 104.82714844 C-128.71109398 93.71223456 -124.82796505 83.37480983 -119.83203125 73.125 C-118.99671875 71.40990234 -118.99671875 71.40990234 -118.14453125 69.66015625 C-102.64009454 39.47675052 -75.66022673 17.79685873 -43.81201172 6.94750977 C-29.51099454 2.36095666 -14.95771642 0.66020266 0 0 Z M-75.83203125 47.125 C-76.58097656 47.72828125 -77.32992187 48.3315625 -78.1015625 48.953125 C-95.10614666 63.12857519 -105.94881035 84.63483287 -111.58203125 105.6875 C-111.78078857 106.4302417 -111.9795459 107.1729834 -112.18432617 107.93823242 C-115.23627392 120.01128246 -116.2093443 131.90959147 -116.14453125 144.3125 C-116.14270844 145.03800049 -116.14088562 145.76350098 -116.13900757 146.51098633 C-116.09206107 157.62277973 -115.54904089 168.31362201 -112.83203125 179.125 C-112.67105957 179.80804199 -112.51008789 180.49108398 -112.34423828 181.19482422 C-108.09116106 198.88125198 -100.169909 214.93459887 -88.83203125 229.125 C-88.125625 230.01445312 -87.41921875 230.90390625 -86.69140625 231.8203125 C-67.63650369 254.333327 -38.53953557 266.87080844 -9.59765625 269.53515625 C14.50283649 271.4366864 37.46064019 267.73720345 59.16796875 257.125 C60.1425 256.66351563 61.11703125 256.20203125 62.12109375 255.7265625 C84.88855793 244.20968735 100.9885556 224.07975693 111.16796875 201.125 C111.89113281 199.50851562 111.89113281 199.50851562 112.62890625 197.859375 C126.40776535 164.6230967 125.55180336 123.27833336 112.03173828 90.16015625 C107.34584817 79.11957402 101.87692953 69.39694596 94.16796875 60.125 C93.45898438 59.26390625 92.75 58.4028125 92.01953125 57.515625 C71.41188669 33.56016814 42.67655608 22.11759379 11.859375 19.421875 C-20.29414474 17.10223532 -51.19267122 26.1102731 -75.83203125 47.125 Z " fill="black" transform="translate(232.83203125,84.875)"/>
<path d="M0 0 C0.99644531 0.49242187 1.99289063 0.98484375 3.01953125 1.4921875 C18.95537898 10.04313018 28.28259191 23.37703511 34.2109375 40.109375 C40.06967708 61.57208437 38.53323806 84.05349685 27.96875 103.75 C17.80232426 120.53267107 2.40037936 130.64596199 -16.46484375 135.45703125 C-17.30144531 135.63621094 -18.13804688 135.81539062 -19 136 C-19.85078125 136.18304687 -20.7015625 136.36609375 -21.578125 136.5546875 C-43.42525597 139.39780728 -66.52498736 137.02067458 -84.73193359 123.73632812 C-99.78819435 111.77661908 -108.19942017 96.0212918 -111.6875 77.3125 C-113.8573383 54.64461474 -109.59516836 32.98667383 -95 15 C-71.75028536 -10.48828514 -30.18660629 -15.07271201 0 0 Z M-70.875 36.3125 C-79.59453584 48.32242672 -80.65462302 62.79623906 -78.5390625 77.12109375 C-75.80848063 87.15999767 -69.56038553 97.02144361 -60.578125 102.46875 C-49.24416338 108.37614818 -37.30953785 109.77860578 -24.76953125 107.3828125 C-14.18577536 103.93125575 -5.92376599 97.33991398 -0.3671875 87.7421875 C6.18634567 74.59767239 6.60428858 60.86856277 2 47 C-2.13873381 36.16717778 -8.98792782 29.38555221 -19.28515625 24.1875 C-37.15467958 16.37119052 -58.42427872 21.38218593 -70.875 36.3125 Z " fill="black" transform="translate(115,561)"/>
<path d="M0 0 C1.37742226 1.63041819 2.72312686 3.28969285 4 5 C3.57702637 5.44802979 3.15405273 5.89605957 2.71826172 6.35766602 C0.76886916 8.4244053 -1.17807485 10.49343629 -3.125 12.5625 C-3.79015625 13.26697266 -4.4553125 13.97144531 -5.140625 14.69726562 C-9.21839554 19.03489409 -13.16104216 23.44945964 -17 28 C-20.22636382 26.43403939 -23.04924567 24.60431661 -26 22.5625 C-36.71057018 15.75313088 -49.05421241 14.21286185 -61.4609375 16.69140625 C-73.8821482 20.15139384 -81.4988642 26.12941852 -88.25 37.015625 C-93.82473191 47.75518207 -94.02109101 61.53218514 -91 73 C-87.46581012 83.292553 -81.18256315 91.93725358 -71.58984375 97.36328125 C-57.42589109 103.86593064 -41.30597972 101.99605743 -27 97 C-25.68 96.67 -24.36 96.34 -23 96 C-23 88.74 -23 81.48 -23 74 C-31.25 74 -39.5 74 -48 74 C-48 64.43 -48 54.86 -48 45 C-29.85 45 -11.7 45 7 45 C7 69.09 7 93.18 7 118 C-17.91474061 130.4573703 -49.72033803 136.75471549 -77.18359375 128.37890625 C-94.23655177 122.47477564 -108.92913262 112.13639817 -117.6484375 95.9375 C-127.60192815 75.35076811 -129.09123768 52.07848107 -121.78125 30.3828125 C-114.13500569 10.96984777 -100.6653746 -0.88194581 -82 -9 C-58.18344029 -19.13470626 -20.44107658 -16.8674618 0 0 Z " fill="black" transform="translate(1086,567)"/>
<path d="M0 0 C88.09505208 0 88.09505208 0 109.28125 19.1875 C122.44821692 33.07266511 127.56763759 49.68572886 127.375 68.5 C127.38660156 69.63308594 127.39820313 70.76617188 127.41015625 71.93359375 C127.35256001 88.69409953 121.91982558 102.65717444 110.23046875 114.796875 C109.49441406 115.52390625 108.75835937 116.2509375 108 117 C107.39800781 117.62390625 106.79601562 118.2478125 106.17578125 118.890625 C78.95612794 145.10651669 32.33913382 138 0 138 C0 92.46 0 46.92 0 0 Z M31 29 C31 55.4 31 81.8 31 109 C59.06341354 109.50088234 59.06341354 109.50088234 83.25 98.8125 C92.26586578 89.59172818 95.5164326 78.62220124 95.421875 65.97216797 C95.07256678 56.26737448 91.69606104 48.03627661 85 41 C69.44695349 26.8279851 51.94309916 29 31 29 Z " fill="black" transform="translate(295,557)"/>
<path d="M0 0 C79.44444444 0 79.44444444 0 94.25 10.25 C103.25017068 19.25017068 106.24246728 29.05933577 106.375 41.5625 C106.2652503 53.07612682 103.24323115 61.90651515 95.6875 70.6875 C90.1141061 75.48321103 85.09920318 78.03350318 78 80 C83.34218018 89.45396926 88.84283537 98.79396833 94.5 108.0625 C95.21500904 109.23752965 95.92985288 110.41265983 96.64453125 111.58789062 C97.3567693 112.75781343 98.06900888 113.92773531 98.78125 115.09765625 C99.12696045 115.666586 99.4726709 116.23551575 99.82885742 116.82168579 C101.63255889 119.78353408 103.45620822 122.73045123 105.3125 125.65966797 C105.68467651 126.25122177 106.05685303 126.84277557 106.44030762 127.45225525 C107.47163813 129.088989 108.51002076 130.72127294 109.54882812 132.35327148 C111 135 111 135 111 138 C98.79 138 86.58 138 74 138 C64.98477378 120.89758556 64.98477378 120.89758556 60.875 113.00390625 C60.35454102 112.00431885 59.83408203 111.00473145 59.29785156 109.97485352 C58.29364598 108.04484641 57.2903366 106.11437263 56.28808594 104.18334961 C53.31781554 98.47476602 50.2634543 92.82483126 47.11035156 87.21484375 C46 85 46 85 46 83 C41.38 83 36.76 83 32 83 C32 101.15 32 119.3 32 138 C21.44 138 10.88 138 0 138 C0 92.46 0 46.92 0 0 Z M32 26 C32 35.9 32 45.8 32 56 C36.62 56.061875 41.24 56.12375 46 56.1875 C47.44117188 56.21481201 48.88234375 56.24212402 50.3671875 56.27026367 C61.75549861 56.34527469 61.75549861 56.34527469 71.4375 50.875 C74.31764055 45.57554138 74.54631619 40.96031104 72.9375 35.1875 C70.38854699 30.99406118 67.85687275 28.9199844 63.14331055 27.40209961 C56.55070793 25.80976243 50.19143216 25.7699853 43.4375 25.875 C37.7759375 25.936875 37.7759375 25.936875 32 26 Z " fill="black" transform="translate(1380,557)"/>
<path d="M0 0 C82.27385892 0 82.27385892 0 95.01953125 11.8828125 C104.10157448 21.63405892 106.39515072 32.34927189 105.9375 45.5 C105.06820491 55.26208395 101.97588869 64.03631 95.16796875 71.25 C91.6604879 74.08126382 87.75974154 75.91625955 83.671875 77.7734375 C80.86157059 78.97890868 80.86157059 78.97890868 78 81 C80.49465453 85.29479575 82.99537432 89.58601441 85.5 93.875 C85.87671844 94.52038727 86.25343689 95.16577454 86.64157104 95.83071899 C92.98054618 106.67819267 99.49294751 117.40689125 106.171875 128.04833984 C106.80738281 129.06750488 107.44289063 130.08666992 108.09765625 131.13671875 C108.65976807 132.03092529 109.22187988 132.92513184 109.80102539 133.84643555 C111 136 111 136 111 138 C98.46 138 85.92 138 73 138 C71.6490625 135.35871094 70.298125 132.71742188 68.90625 129.99609375 C67.56931477 127.3843655 66.23194278 124.77286133 64.89453125 122.16137695 C63.97871197 120.37254717 63.06333334 118.58349171 62.1484375 116.79418945 C61.70757813 115.93204834 61.26671875 115.06990723 60.8125 114.18164062 C60.37397705 113.32293365 59.9354541 112.46422668 59.48364258 111.57949829 C58.59883146 109.85745682 57.70672743 108.13914305 56.80737305 106.4246521 C54.73631882 102.46873847 52.76540465 98.53508463 51.05078125 94.41064453 C50.58254944 93.35974388 50.58254944 93.35974388 50.1048584 92.28761292 C49.28193576 90.42794549 48.51262318 88.54480684 47.74804688 86.66040039 C43.95515074 82.41831824 43.95515074 82.41831824 31 83 C31 101.15 31 119.3 31 138 C20.77 138 10.54 138 0 138 C0 92.46 0 46.92 0 0 Z M31 26 C31 35.9 31 45.8 31 56 C35.785 56.0825 40.57 56.165 45.5 56.25 C46.99337891 56.28641602 48.48675781 56.32283203 50.02539062 56.36035156 C58.26224515 56.42902894 64.25034306 56.19770038 70.63867188 50.55175781 C73.54002586 47.24454728 73.2755171 43.37433929 73.21484375 39.21484375 C72.80309398 34.97007797 70.7516277 32.77373439 67.875 29.8125 C60.40484993 25.10305756 51.47264566 25.74795377 42.9375 25.875 C38.998125 25.91625 35.05875 25.9575 31 26 Z " fill="black" transform="translate(562,557)"/>
<path d="M0 0 C82.06976744 0 82.06976744 0 95.01953125 11.84765625 C104.7102493 22.10961662 105.46873315 33.33226602 105.2734375 46.76953125 C104.91394505 56.8015063 101.21214758 64.96576119 94 72 C89.07851308 75.63456878 83.94561288 78.43536503 78 80 C79.53014578 84.21062446 81.6296344 87.95996546 83.9296875 91.78515625 C84.31663284 92.43507538 84.70357819 93.08499451 85.10224915 93.75460815 C86.35646058 95.85927171 87.61570825 97.96087302 88.875 100.0625 C89.73640616 101.50639964 90.59748887 102.95049229 91.45825195 104.39477539 C95.26626467 110.77971984 99.09005715 117.15510672 102.92578125 123.5234375 C103.48604004 124.45406006 104.04629883 125.38468262 104.62353516 126.34350586 C105.6454863 128.03851537 106.66980087 129.73210278 107.69677734 131.42407227 C111 136.89170251 111 136.89170251 111 138 C98.46 138 85.92 138 73 138 C70.40125 132.946875 67.8025 127.89375 65.125 122.6875 C59.36394209 111.49468189 53.5770056 100.31734197 47.6875 89.19140625 C46.77664628 87.46879632 45.87144012 85.74288025 45 84 C38.07 83.505 38.07 83.505 31 83 C31 101.15 31 119.3 31 138 C20.77 138 10.54 138 0 138 C0 92.46 0 46.92 0 0 Z M31 26 C31 35.9 31 45.8 31 56 C35.785 56.0825 40.57 56.165 45.5 56.25 C46.99337891 56.28641602 48.48675781 56.32283203 50.02539062 56.36035156 C57.49126175 56.42260062 62.74046248 56.22672203 69 52 C72.13316518 48.63184743 73.25739808 46.01087941 73.5 41.5 C73.25739808 36.98912059 72.13316518 34.36815257 69 31 C62.95775634 27.06434234 57.21130053 25.86558307 50.04296875 25.90234375 C48.53899536 25.90609009 48.53899536 25.90609009 47.00463867 25.90991211 C45.74498291 25.91901611 44.48532715 25.92812012 43.1875 25.9375 C37.1546875 25.9684375 37.1546875 25.9684375 31 26 Z " fill="black" transform="translate(171,557)"/>
<path d="M0 0 C31.02 0 62.04 0 94 0 C94 9.57 94 19.14 94 29 C73.21 29 52.42 29 31 29 C31 36.92 31 44.84 31 53 C50.8 53 70.6 53 91 53 C91 62.57 91 72.14 91 82 C71.2 82 51.4 82 31 82 C31 90.91 31 99.82 31 109 C53.11 109 75.22 109 98 109 C98 118.57 98 128.14 98 138 C65.66 138 33.32 138 0 138 C0 92.46 0 46.92 0 0 Z " fill="black" transform="translate(1118,557)"/>
<path d="M0 0 C31.02 0 62.04 0 94 0 C94 9.57 94 19.14 94 29 C73.21 29 52.42 29 31 29 C31 36.92 31 44.84 31 53 C50.8 53 70.6 53 91 53 C91 62.57 91 72.14 91 82 C71.2 82 51.4 82 31 82 C31 90.91 31 99.82 31 109 C53.11 109 75.22 109 98 109 C98 118.57 98 128.14 98 138 C65.66 138 33.32 138 0 138 C0 92.46 0 46.92 0 0 Z " fill="black" transform="translate(442,557)"/>
<path d="M0 0 C8.58 0 17.16 0 26 0 C30.65459082 9.1021795 34.94036068 18.24816828 38.90817261 27.66693115 C40.5193284 31.48949112 42.14677576 35.30511219 43.7734375 39.12109375 C44.11509445 39.92319275 44.4567514 40.72529175 44.8087616 41.55169678 C48.78013468 50.85751144 52.85833904 60.11606001 56.9375 69.375 C63.64358249 84.60362506 70.2874784 99.85779102 76.87475586 115.13818359 C77.18869797 115.86613129 77.50264008 116.59407898 77.82609558 117.34408569 C78.42505073 118.73322428 79.02355008 120.1225595 79.62153625 121.51211548 C81.19417823 125.16021439 82.80221104 128.78941424 84.4453125 132.40625 C86 136 86 136 86 138 C74.12 138 62.24 138 50 138 C46.37 128.76 42.74 119.52 39 110 C21.51 109.67 4.02 109.34 -14 109 C-14.99 112.3 -15.98 115.6 -17 119 C-18.1759874 122.20700493 -19.37090174 125.38739952 -20.625 128.5625 C-20.93695312 129.36751953 -21.24890625 130.17253906 -21.5703125 131.00195312 C-23.8667324 136.8667324 -23.8667324 136.8667324 -25 138 C-27.52094076 138.08847743 -30.01430893 138.11527301 -32.53515625 138.09765625 C-33.66503212 138.09553383 -33.66503212 138.09553383 -34.81773376 138.09336853 C-37.2326956 138.08775376 -39.64756601 138.07519883 -42.0625 138.0625 C-43.69596221 138.0574869 -45.32942586 138.05292366 -46.96289062 138.04882812 C-50.97529585 138.03777954 -54.98763241 138.02050506 -59 138 C-58.4108993 134.63733227 -57.57826628 131.68612272 -56.22851562 128.55322266 C-55.86236649 127.69695282 -55.49621735 126.84068298 -55.11897278 125.95846558 C-54.71877426 125.03631256 -54.31857574 124.11415955 -53.90625 123.1640625 C-53.48780319 122.18962189 -53.06935638 121.21518127 -52.63822937 120.21121216 C-51.26358925 117.01373083 -49.8819194 113.81934125 -48.5 110.625 C-47.54044411 108.39760194 -46.5812188 106.17006144 -45.62231445 103.94238281 C-39.16788588 88.96120213 -32.66992214 73.99879688 -26.1340332 59.05297852 C-22.57997328 50.92526655 -19.04095992 42.79150904 -15.53125 34.64453125 C-14.98130119 33.36873703 -14.98130119 33.36873703 -14.42024231 32.06716919 C-12.66877003 28.00337922 -10.91969544 23.9385857 -9.17456055 19.87207031 C-8.54745599 18.41597569 -7.92026346 16.95991896 -7.29296875 15.50390625 C-7.01767334 14.85984329 -6.74237793 14.21578033 -6.45874023 13.55220032 C-4.46276176 8.92829693 -2.26205136 4.52410272 0 0 Z M12 43 C8.50598237 49.61367623 5.7212773 56.43840047 2.99853516 63.40161133 C2.24380493 65.32831501 1.4796396 67.25110109 0.71484375 69.17382812 C0.23660156 70.39134766 -0.24164062 71.60886719 -0.734375 72.86328125 C-1.16975586 73.96969971 -1.60513672 75.07611816 -2.05371094 76.21606445 C-3.16091341 78.98333805 -3.16091341 78.98333805 -3 82 C7.23 82 17.46 82 28 82 C23.478915 68.78452078 18.383363 55.88662745 13 43 C12.67 43 12.34 43 12 43 Z " fill="black" transform="translate(1283,557)"/>
<path d="M0 0 C7.26 0 14.52 0 22 0 C25.29121831 6.44476615 28.31775096 12.897945 31.046875 19.59765625 C31.41572311 20.49405319 31.78457123 21.39045013 32.16459656 22.31401062 C33.36316241 25.22877773 34.55656866 28.14562734 35.75 31.0625 C36.5868996 33.10010801 37.42422659 35.13754053 38.26196289 37.17480469 C39.5519494 40.31198617 40.84167586 43.44927139 42.13002014 46.58712769 C46.8935719 58.18741958 51.70452308 69.76795952 56.51721191 81.34793091 C58.68414681 86.56281855 60.846029 91.77974429 63 97 C63.44746582 98.08216797 63.89493164 99.16433594 64.35595703 100.27929688 C64.72446777 101.18228516 65.09297852 102.08527344 65.47265625 103.015625 C65.7756665 103.75586914 66.07867676 104.49611328 66.39086914 105.25878906 C67 107 67 107 67 109 C67.66 109 68.32 109 69 109 C69.08958984 108.36288086 69.17917969 107.72576172 69.27148438 107.06933594 C70.282376 102.81031128 71.96642938 98.92105103 73.65625 94.890625 C74.03062195 93.98747055 74.4049939 93.0843161 74.79071045 92.15379333 C76.02287973 89.1840721 77.26143077 86.21705704 78.5 83.25 C79.35818237 81.18483239 80.21592469 79.11948187 81.07324219 77.05395508 C82.8387907 72.80207602 84.60682009 68.55124198 86.37695312 64.30126953 C89.98705949 55.63225974 93.58041248 46.95631619 97.17504883 38.28088379 C98.21689709 35.76736275 99.25962256 33.25420784 100.30273438 30.74121094 C104.55286382 20.50137208 108.7828093 10.25345458 113 0 C120.59 0 128.18 0 136 0 C136 45.54 136 91.08 136 138 C131.05 138 126.1 138 121 138 C120.67 100.38 120.34 62.76 120 24 C114.39 37.53 108.78 51.06 103 65 C99.90099518 72.4189006 96.79991885 79.83674866 93.6875 87.25 C89.51435513 97.19663866 85.34279861 107.14360422 81.234375 117.1171875 C80.94806717 117.81183105 80.66175934 118.50647461 80.36677551 119.22216797 C79.05352205 122.40995071 77.74359474 125.59901169 76.43823242 128.79003906 C75.99326416 129.8725293 75.5482959 130.95501953 75.08984375 132.0703125 C74.70691162 133.00633301 74.32397949 133.94235352 73.92944336 134.90673828 C73 137 73 137 72 138 C69.32941149 138.14115161 66.67567762 138.04247107 64 138 C59.529937 129.64430857 55.97581306 120.93526529 52.38546753 112.17901611 C50.52238642 107.63574559 48.64677482 103.09764247 46.7734375 98.55859375 C46.38463913 97.61552368 45.99584076 96.67245361 45.59526062 95.70080566 C41.24716273 85.15970549 36.844598 74.64153808 32.4375 64.125 C31.70546943 62.37704104 30.97345408 60.6290757 30.24145508 58.88110352 C29.53473055 57.19414696 28.82794621 55.50721546 28.12109375 53.8203125 C27.82260529 53.10790909 27.52411682 52.39550568 27.21658325 51.66151428 C23.48818441 42.76992764 19.74151639 33.88610142 16 25 C15.67 62.29 15.34 99.58 15 138 C10.05 138 5.1 138 0 138 C0 92.46 0 46.92 0 0 Z " fill="black" transform="translate(691,557)"/>
<path d="M0 0 C6.41332457 -1.49114974 12.74181675 -2.58934155 19 0 C24.99235173 5.58613681 28.47962944 13.49590407 32.21484375 20.67285156 C34.96571915 25.79989341 38.13303563 30.6316477 41.3125 35.5 C42.45943298 37.29273655 43.60402168 39.08697537 44.74609375 40.8828125 C45.28991699 41.73649414 45.83374023 42.59017578 46.39404297 43.46972656 C50.299675 49.62326417 54.15156653 55.81058396 58 62 C60.61407524 58.80343867 63.02733292 55.56990689 65.28515625 52.11328125 C65.89270752 51.18394775 66.50025879 50.25461426 67.1262207 49.29711914 C67.76519287 48.31219482 68.40416504 47.32727051 69.0625 46.3125 C69.72789795 45.28954834 70.3932959 44.26659668 71.07885742 43.21264648 C75.07394375 37.04540909 78.98770802 30.83649477 82.8125 24.5625 C83.25859619 23.84827881 83.70469238 23.13405762 84.16430664 22.39819336 C86.40398059 18.78407078 88.42467509 15.18326895 90.23046875 11.33203125 C94.55346588 2.58934454 94.55346588 2.58934454 98 0 C104.22141923 -1.84387478 110.68649077 -0.9334141 117 0 C115.39219375 4.67858657 112.87062894 8.48861335 110.14453125 12.5703125 C109.12950816 14.10169269 108.11453652 15.63310699 107.09960938 17.16455078 C106.56360107 17.97055725 106.02759277 18.77656372 105.4753418 19.60699463 C103.7844295 22.16750656 102.11935647 24.74332666 100.45898438 27.32373047 C95.0828715 35.63216386 89.64622658 43.61967043 83.26171875 51.1875 C61.86976645 77.34838591 64.22363824 105.79848238 66 138 C61.05 138 56.1 138 51 138 C51.04825928 136.30286865 51.09651855 134.6057373 51.14624023 132.85717773 C51.29013884 127.14571221 51.36100467 121.43562778 51.38603115 115.72259426 C51.40367253 112.26942226 51.44742127 108.82139327 51.55883789 105.36987305 C52.17095429 85.57141999 49.33393446 73.20038558 37.00228882 57.5930481 C33.88130124 53.55123814 31.16876436 49.26677936 28.41796875 44.96875 C27.37539726 43.37866477 26.33049722 41.79010371 25.28320312 40.203125 C23.19908378 37.03697432 21.11576786 33.87029846 19.03320312 30.703125 C17.99481843 29.12498239 16.95640733 27.54685715 15.91796875 25.96875 C15.17194901 24.83373047 15.17194901 24.83373047 14.41085815 23.67578125 C11.96630542 19.96201212 9.50656891 16.25997827 7.01416016 12.578125 C6.54569168 11.88400513 6.07722321 11.18988525 5.59455872 10.47473145 C4.71208411 9.16952087 3.82579254 7.86688017 2.93510437 6.56726074 C0 2.2220496 0 2.2220496 0 0 Z " fill="black" transform="translate(841,557)"/>
</svg>
