<?xml version="1.0" encoding="UTF-8"?>
<svg version="1.1" xmlns="http://www.w3.org/2000/svg" viewBox="74.81 223.41 750.69 152.9" width="900" height="600">
<path d="M0 0 C1.74688039 -0.01655196 3.49369325 -0.04383229 5.24023438 -0.08203125 C7.76183109 -0.13688486 10.28184158 -0.15868561 12.80395508 -0.17333984 C13.96982903 -0.2073439 13.96982903 -0.2073439 15.15925598 -0.24203491 C19.06049682 -0.2268855 21.02916785 0.12997571 24.15429688 2.53100586 C26.26220485 5.28035787 27.87879206 7.87462034 29.40942383 10.97900391 C29.95751709 12.08074951 30.50561035 13.18249512 31.0703125 14.31762695 C31.64628174 15.50396729 32.22225098 16.69030762 32.81567383 17.91259766 C33.43670706 19.17560429 34.05821701 20.43837662 34.68017578 21.70092773 C40.1266798 32.79995445 45.34944508 44.00306477 50.50556946 55.23953247 C53.06023945 60.80412586 55.63566374 66.35898765 58.21411133 71.91259766 C58.6399501 72.8300325 59.06578888 73.74746735 59.50453186 74.69270325 C61.21539123 78.37856633 62.9263298 82.0643926 64.63754272 85.75009155 C65.83437382 88.32865951 67.03021844 90.90768283 68.22583008 93.48681641 C68.57950653 94.24828979 68.93318298 95.00976318 69.2975769 95.79431152 C70.30896252 97.9771599 71.31383391 100.16285305 72.31567383 102.35009766 C72.69295624 103.1689444 73.07023865 103.98779114 73.45895386 104.83145142 C73.82602448 105.63915985 74.19309509 106.44686829 74.57128906 107.27905273 C74.90563461 108.01118484 75.23998016 108.74331696 75.5844574 109.49763489 C76.31567383 111.35009766 76.31567383 111.35009766 76.31567383 113.35009766 C78.90877334 112.0535479 79.1726134 110.92134597 80.38989258 108.31103516 C80.80223145 107.43680908 81.21457031 106.56258301 81.6394043 105.66186523 C82.31447021 104.20816528 82.31447021 104.20816528 83.00317383 102.72509766 C83.99828989 100.61135585 84.99443854 98.49809996 85.99145508 96.38525391 C86.52722168 95.24717285 87.06298828 94.1090918 87.61499023 92.93652344 C89.3630329 89.25022616 91.13588709 85.57705579 92.92114258 81.90869141 C93.3815947 80.96249184 93.3815947 80.96249184 93.85134888 79.99717712 C94.47980573 78.70599826 95.10829516 77.41483526 95.73681641 76.12368774 C100.91836532 65.47064465 106.02123456 54.78571917 111.00317383 44.03759766 C111.78978394 42.34147339 111.78978394 42.34147339 112.59228516 40.61108398 C115.02282038 35.35553664 117.43692996 30.09319583 119.81651306 24.81440735 C120.63950092 22.9902221 121.46645008 21.16782567 122.29345703 19.34545898 C123.3232463 17.07408432 124.34564785 14.79934056 125.359375 12.52075195 C125.82061768 11.50537354 126.28186035 10.48999512 126.75708008 9.44384766 C127.15612549 8.55375 127.5551709 7.66365234 127.96630859 6.74658203 C129.52453064 3.97916615 130.75351025 2.25322489 133.31567383 0.35009766 C136.69140625 -0.11987305 136.69140625 -0.11987305 140.67114258 -0.07568359 C141.72450554 -0.07075142 141.72450554 -0.07075142 142.79914856 -0.0657196 C144.2776522 -0.05532506 145.75611587 -0.03541938 147.234375 -0.0065918 C149.50584129 0.03764961 151.77625108 0.054869 154.0480957 0.06689453 C165.13601093 0.17043476 165.13601093 0.17043476 166.31567383 1.35009766 C166.50317383 4.28759766 166.50317383 4.28759766 166.31567383 7.35009766 C163.98373807 9.68203342 162.66089608 9.8909204 159.50317383 10.66259766 C154.85795055 12.02135893 152.21713504 13.30563658 149.31567383 17.35009766 C146.15367984 24.13262471 146.03641354 30.24349834 146.50708008 37.59619141 C146.59258873 39.26179359 146.59258873 39.26179359 146.67982483 40.96104431 C146.84232012 44.08009793 147.02004148 47.19793107 147.20121002 50.31594086 C147.40278724 53.89820579 147.57633407 57.48184982 147.75268555 61.06542969 C148.14161699 68.90457758 148.56075868 76.74183703 148.99023438 84.57885742 C149.21302052 88.65061211 149.42671326 92.7227954 149.63861752 96.79512882 C149.80605447 99.98086918 149.98019338 103.16621835 150.15612984 106.35149956 C150.23796023 107.85390258 150.31731788 109.35644268 150.39399529 110.85911751 C150.684683 126.46401027 150.684683 126.46401027 158.31567383 139.35009766 C160.58101656 140.9289729 161.5288553 141.45645122 164.25732422 141.08764648 C169.10271451 139.35144389 171.57882358 133.78923941 173.80444336 129.44238281 C175.38431583 126.03778104 176.89113729 122.60874949 178.37817383 119.16259766 C178.94216296 117.87768383 179.50729119 116.59326946 180.07348633 115.30932617 C181.24614544 112.64746535 182.41393538 109.98355324 183.57788086 107.31787109 C186.28577053 101.12414702 189.05023515 94.95581402 191.81567383 88.78759766 C192.34990967 87.59481201 192.88414551 86.40202637 193.43457031 85.1730957 C198.76353972 73.30253383 204.22156732 61.49452815 209.75024414 49.71582031 C211.32613352 46.32760898 212.86661545 42.92497259 214.40161133 39.51806641 C215.37261878 37.39941789 216.34395679 35.28092082 217.31567383 33.16259766 C217.74831543 32.18178223 218.18095703 31.2009668 218.62670898 30.19042969 C219.03969238 29.30081543 219.45267578 28.41120117 219.87817383 27.49462891 C220.23008789 26.71450439 220.58200195 25.93437988 220.94458008 25.13061523 C222.31567383 23.35009766 222.31567383 23.35009766 224.96801758 22.59106445 C226.13010742 22.47178589 226.13010742 22.47178589 227.31567383 22.35009766 C230.27818939 28.11938131 232.90500268 33.9503382 235.37817383 39.94384766 C235.76233963 40.86823639 236.14650543 41.79262512 236.54231262 42.74502563 C237.37058348 44.73901983 238.19755388 46.73355462 239.02334595 48.72857666 C240.33486838 51.89646066 241.65033791 55.06268016 242.96679688 58.22851562 C247.14582905 68.28190486 251.31285096 78.34023021 255.47097778 88.40228271 C257.25785457 92.72383602 259.04857258 97.04379199 260.83984375 101.36352539 C262.0980633 104.40237477 263.35048585 107.4435697 264.6027832 110.48486328 C270.55783733 128.22002971 270.55783733 128.22002971 281.31567383 142.35009766 C284.86146068 142.51035165 284.86146068 142.51035165 288.31567383 141.35009766 C295.03187234 130.43964553 293.62820763 115.34841571 293.61645508 102.94775391 C293.62035307 101.21333211 293.62468996 99.47891125 293.62944031 97.74449158 C293.63684105 94.13830442 293.63665351 90.53221532 293.63134766 86.92602539 C293.62551861 82.31739913 293.64259603 77.70917028 293.66569233 73.10060978 C293.68044378 69.53087543 293.68130018 65.96123701 293.6781826 62.39147758 C293.6786937 60.69190106 293.68389159 58.99231887 293.69399452 57.29277229 C293.70638864 54.91977179 293.69955333 52.5475494 293.68798828 50.17456055 C293.69563202 49.48301376 293.70327576 48.79146698 293.71115112 48.07896423 C293.65754187 43.07971871 292.56160581 39.72541904 290.31567383 35.35009766 C285.99088129 31.56590418 279.78240128 30.7000251 274.31567383 29.35009766 C273.93348616 27.69395108 273.60172281 26.02552741 273.31567383 24.35009766 C274.99948589 22.6662856 277.11218689 23.16471101 279.42358398 23.11303711 C281.06262192 23.0734362 281.06262192 23.0734362 282.73477173 23.03303528 C283.92936005 23.01004868 285.12394836 22.98706207 286.35473633 22.96337891 C287.58292084 22.93785446 288.81110535 22.91233002 290.07650757 22.8860321 C292.69100836 22.83386209 295.30556549 22.78445539 297.92016602 22.73754883 C301.87526862 22.66631165 305.82974713 22.57283986 309.78442383 22.48095703 C348.98112102 21.68245541 348.98112102 21.68245541 362.31567383 32.35009766 C369.71921575 39.49834503 373.14514887 47.14481057 373.56567383 57.47509766 C373.41239092 66.6874003 370.78782883 74.70380395 364.31567383 81.35009766 C360.17041926 85.07269882 356.90782336 87.50691393 351.31567383 88.35009766 C352.00790039 89.35943359 352.70012695 90.36876953 353.41333008 91.40869141 C360.42497171 101.73229758 366.97531849 112.27661668 373.32568359 123.01977539 C373.93210693 124.04401611 374.53853027 125.06825684 375.16333008 126.12353516 C375.69966064 127.03538574 376.23599121 127.94723633 376.78857422 128.88671875 C378.18985315 131.14713513 379.68272966 133.25300203 381.31567383 135.35009766 C381.22286133 134.01978516 381.22286133 134.01978516 381.12817383 132.66259766 C381.33708689 128.9718002 382.13437979 127.28645501 384.31567383 124.35009766 C387.4543857 122.78074172 389.85423205 122.99808663 393.31567383 123.35009766 C396.74293493 125.82939292 398.12870708 127.20492634 398.81567383 131.41259766 C398.27816064 134.57048761 397.46546085 136.02116171 395.31567383 138.35009766 C396.30567383 138.68009766 397.29567383 139.01009766 398.31567383 139.35009766 C398.81567383 141.97509766 398.81567383 141.97509766 398.31567383 145.35009766 C393.40275913 150.33172445 388.59185512 152.49318672 381.62817383 152.66259766 C373.20166086 152.53093339 368.78398491 150.14867724 362.94067383 144.16259766 C355.40740517 135.33495294 350.1046769 124.8687938 344.81787109 114.6003418 C338.99401031 102.25273647 338.99401031 102.25273647 329.31567383 93.35009766 C326.76409728 93.27842416 324.24094412 93.25701323 321.69067383 93.28759766 C320.98426758 93.29210937 320.27786133 93.29662109 319.55004883 93.30126953 C317.80522108 93.31305891 316.06043683 93.33099441 314.31567383 93.35009766 C314.24108032 98.47295 314.18686366 103.59548069 314.15087891 108.71875 C314.13586529 110.45871494 314.11544806 112.1986425 314.08935547 113.93847656 C314.05264276 116.45077786 314.03587314 118.96257546 314.02270508 121.47509766 C314.00722122 122.24313721 313.99173737 123.01117676 313.9757843 123.80249023 C313.97410595 129.28479159 315.05099261 133.34081642 317.31567383 138.35009766 C320.9568746 141.66028018 325.38402058 142.07899782 330.10864258 142.82275391 C332.31567383 143.35009766 332.31567383 143.35009766 334.31567383 145.35009766 C334.31567383 146.67009766 334.31567383 147.99009766 334.31567383 149.35009766 C331.02820086 150.99383414 327.37981373 150.48819266 323.7668457 150.47949219 C322.43986412 150.48212067 322.43986412 150.48212067 321.08607483 150.48480225 C318.1521714 150.4892154 315.21832791 150.48628464 312.28442383 150.48291016 C310.25183094 150.48358335 308.21923812 150.4845535 306.18664551 150.48580933 C301.92284378 150.48728557 297.65906297 150.48513408 293.39526367 150.48046875 C287.92052292 150.47477151 282.44583118 150.47805091 276.97109222 150.48404121 C272.77276233 150.48764879 268.57444413 150.48650733 264.37611389 150.48391342 C262.35702 150.4832447 260.33792506 150.48407068 258.3188324 150.48639297 C255.50069351 150.4889227 252.68263484 150.48507433 249.86450195 150.47949219 C249.02391739 150.48151642 248.18333282 150.48354065 247.317276 150.48562622 C241.54420175 150.46436162 241.54420175 150.46436162 239.31567383 149.35009766 C239.25317383 147.10009766 239.25317383 147.10009766 240.31567383 144.35009766 C242.57816312 143.06903366 244.84868516 142.15032287 247.28442383 141.24462891 C249.49131176 140.53075888 249.49131176 140.53075888 250.31567383 138.35009766 C251.51944756 128.11802092 246.65062607 114.4016176 240.31567383 106.35009766 C234.20880306 104.31447407 227.11204218 105.04240135 220.70141602 105 C218.86437318 104.98342957 217.02739511 104.95612507 215.19067383 104.91796875 C212.53668925 104.86315405 209.88421096 104.84132229 207.22973633 104.82666016 C206.41187653 104.80399078 205.59401672 104.78132141 204.75137329 104.75796509 C200.48014139 104.77375904 198.83014773 104.94282358 195.36889648 107.68286133 C189.854282 114.84661439 185.58318947 125.1766031 186.31567383 134.35009766 C187.60985225 137.92812034 188.75732506 138.99115917 191.94067383 141.03759766 C196.00248327 142.61719022 200.04200159 143.54284846 204.31567383 144.35009766 C204.64567383 146.00009766 204.97567383 147.65009766 205.31567383 149.35009766 C202.05074132 150.98256391 198.44667703 150.49731751 194.85864258 150.49536133 C193.98374176 150.49871994 193.10884094 150.50207855 192.20742798 150.50553894 C189.30599562 150.51506339 186.40462086 150.51699269 183.50317383 150.51806641 C181.49300106 150.52127753 179.48282852 150.52464149 177.47265625 150.52815247 C173.25593524 150.53414719 169.03923474 150.53599197 164.82250977 150.53540039 C159.40826616 150.53529865 153.99415336 150.54896127 148.5799408 150.5661726 C144.42793163 150.57726701 140.27595436 150.5793204 136.12393188 150.57879066 C134.12716215 150.57997425 132.13039169 150.58441708 130.13363647 150.59212303 C127.34656485 150.60187306 124.5597809 150.59906493 121.77270508 150.59301758 C120.94147125 150.59863708 120.11023743 150.60425659 119.2538147 150.61004639 C113.54399034 150.57841417 113.54399034 150.57841417 111.31567383 148.35009766 C111.38598633 145.88525391 111.38598633 145.88525391 112.31567383 143.35009766 C114.49536133 141.90869141 114.49536133 141.90869141 117.19067383 140.78759766 C121.05558106 139.15937872 123.10219481 137.94464572 125.31567383 134.35009766 C125.75234118 132.00417221 125.75234118 132.00417221 125.67211914 129.45922852 C125.67507492 128.48471741 125.6780307 127.5102063 125.68107605 126.50616455 C125.66877457 125.45306091 125.65647308 124.39995728 125.64379883 123.31494141 C125.64233353 122.21599548 125.64086823 121.11704956 125.63935852 119.98480225 C125.63011183 116.41881494 125.59864694 112.85343814 125.56567383 109.28759766 C125.55312337 106.85571665 125.54132294 104.42383165 125.53027344 101.99194336 C125.56440787 74.10712691 125.56440787 74.10712691 123.31567383 46.35009766 C110.2997005 72.15689878 110.2997005 72.15689878 97.6940918 98.16503906 C92.7570922 108.5804176 87.68596624 118.93051473 82.62817383 129.28759766 C81.93729172 130.70258041 81.93729172 130.70258041 81.23245239 132.14614868 C78.59471625 137.548047 75.95572899 142.94933235 73.31567383 148.35009766 C71.66567383 148.35009766 70.01567383 148.35009766 68.31567383 148.35009766 C62.73039476 137.35500789 57.43195372 126.25780083 52.31567383 115.03759766 C51.58309133 113.43657348 50.8502573 111.83566439 50.1171875 110.23486328 C48.22540803 106.10203852 46.33692782 101.9677156 44.44940186 97.83294678 C42.59008931 93.76107733 40.72818512 89.69039345 38.86645508 85.61962891 C36.79963263 81.10017754 34.73310457 76.5805944 32.66918945 72.05981445 C28.90422672 63.81412885 25.12179849 55.57689129 21.31567383 47.35009766 C20.27429067 63.39345289 20.09648563 79.42945148 20.07543945 95.50073242 C20.06986666 99.11169484 20.04557746 102.72229677 20.0174675 106.33314419 C19.99885984 109.14444568 19.99363745 111.95565758 19.99210358 114.76701546 C19.98764342 116.74181113 19.96904187 118.71655873 19.95013428 120.69126892 C19.95313538 121.88764481 19.95613647 123.08402069 19.95922852 124.31665039 C19.95558289 125.36441147 19.95193726 126.41217255 19.94818115 127.49168396 C20.49419022 131.73862517 22.36703171 134.34025282 25.25317383 137.41259766 C29.18261954 139.89857352 33.20684054 140.99204752 37.67114258 142.22509766 C40.31567383 143.35009766 40.31567383 143.35009766 41.67895508 145.47509766 C41.88907227 146.09384766 42.09918945 146.71259766 42.31567383 147.35009766 C37.46235835 151.27105377 32.54681591 150.75173866 26.61645508 150.67822266 C25.58505905 150.67634949 24.55366302 150.67447632 23.49101257 150.67254639 C21.31656651 150.66583675 19.1421323 150.65194397 16.96777344 150.63134766 C13.62985081 150.60011335 10.29240018 150.59036724 6.9543457 150.58447266 C4.8417097 150.5753056 2.72907852 150.56493078 0.61645508 150.55322266 C-0.38560471 150.54897278 -1.38766449 150.5447229 -2.42008972 150.54034424 C-3.34477554 150.53073669 -4.26946136 150.52112915 -5.22216797 150.51123047 C-6.03759567 150.50440247 -6.85302338 150.49757446 -7.69316101 150.49053955 C-9.68432617 150.35009766 -9.68432617 150.35009766 -11.68432617 149.35009766 C-11.68432617 147.70009766 -11.68432617 146.05009766 -11.68432617 144.35009766 C-10.86448242 144.04716797 -10.04463867 143.74423828 -9.19995117 143.43212891 C-7.5834668 142.80371094 -7.5834668 142.80371094 -5.93432617 142.16259766 C-4.86698242 141.75654297 -3.79963867 141.35048828 -2.69995117 140.93212891 C2.17277735 138.37583998 3.85080748 135.82781851 5.49536133 130.60009766 C6.86167201 123.27306894 7.08622906 115.78044901 7.44067383 108.35009766 C7.48203461 107.51437225 7.52339539 106.67864685 7.56600952 105.81759644 C8.31883328 90.13471481 8.55292895 74.44735117 8.61322021 58.74780273 C8.62314686 56.20188221 8.6376338 53.65597516 8.65679932 51.11010742 C8.6806017 47.50372138 8.6830937 43.89795413 8.67895508 40.29150391 C8.68807419 39.21800186 8.6971933 38.14449982 8.70658875 37.03846741 C8.66056202 29.4442835 7.45758913 23.2055452 3.75317383 16.53759766 C-1.83796293 11.51991082 -9.53695883 10.03947539 -16.68432617 8.35009766 C-17.68432617 7.35009766 -17.68432617 7.35009766 -17.74682617 4.28759766 C-17.72620117 3.31822266 -17.70557617 2.34884766 -17.68432617 1.35009766 C-12.82746272 -1.07833407 -5.40103443 0.03752479 0 0 Z M313.31567383 36.35009766 C312.58566093 39.73529417 312.68668635 43.06372424 312.75708008 46.51416016 C312.75941147 47.50257904 312.76174286 48.49099792 312.7641449 49.5093689 C312.77387846 51.59568937 312.79565652 53.68198354 312.82861328 55.76806641 C312.87809945 58.97028473 312.89009805 62.1709687 312.89575195 65.37353516 C312.90983473 67.39959326 312.92603797 69.42563796 312.94458008 71.45166016 C312.94994278 72.41310944 312.95530548 73.37455872 312.96083069 74.36514282 C312.97681808 75.25301483 312.99280548 76.14088684 313.00927734 77.05566406 C313.01991714 77.83857819 313.03055695 78.62149231 313.04151917 79.4281311 C313.15344378 81.58797964 313.15344378 81.58797964 315.31567383 83.35009766 C325.1272005 84.9042651 338.75683238 86.34128667 347.31567383 80.35009766 C352.83258689 74.52668942 354.38129428 68.22455245 354.31567383 60.35009766 C353.15697102 51.62574708 350.30178129 43.56196483 343.42895508 37.75634766 C335.18762822 32.18657076 320.81036874 28.11318569 313.31567383 36.35009766 Z M218.31567383 54.35009766 C213.79042334 63.17865175 209.43867109 72.07592974 205.31567383 81.10009766 C204.91807861 81.95700195 204.5204834 82.81390625 204.11083984 83.69677734 C203.74531006 84.5053418 203.37978027 85.31390625 203.00317383 86.14697266 C202.67704102 86.86208008 202.3509082 87.5771875 202.01489258 88.31396484 C201.09914838 90.6218146 201.09914838 90.6218146 201.31567383 94.35009766 C212.86567383 94.35009766 224.41567383 94.35009766 236.31567383 94.35009766 C235.4736801 89.29813531 234.24845348 85.41175254 232.19067383 80.83447266 C231.88371582 80.13743225 231.57675781 79.44039185 231.26049805 78.722229 C230.28528829 76.51195601 229.30059737 74.30605655 228.31567383 72.10009766 C227.65359714 70.60297513 226.99213252 69.10558176 226.33129883 67.60791016 C223.42765322 60.93020987 223.42765322 60.93020987 220.31567383 54.35009766 C219.65567383 54.35009766 218.99567383 54.35009766 218.31567383 54.35009766 Z M387.31567383 125.35009766 C387.31567383 125.68009766 387.31567383 126.01009766 387.31567383 126.35009766 C388.96567383 126.35009766 390.61567383 126.35009766 392.31567383 126.35009766 C392.31567383 126.02009766 392.31567383 125.69009766 392.31567383 125.35009766 C390.66567383 125.35009766 389.01567383 125.35009766 387.31567383 125.35009766 Z M392.31567383 126.35009766 C392.0655151 129.76652524 392.0655151 129.76652524 392.31567383 133.35009766 C393.80067383 134.34009766 393.80067383 134.34009766 395.31567383 135.35009766 C396.00060756 132.49231732 396.00060756 132.49231732 396.31567383 129.35009766 C395.65567383 128.36009766 394.99567383 127.37009766 394.31567383 126.35009766 C393.65567383 126.35009766 392.99567383 126.35009766 392.31567383 126.35009766 Z M384.31567383 128.35009766 C383.31350318 131.93337519 383.31350318 131.93337519 384.31567383 135.35009766 C384.97567383 135.35009766 385.63567383 135.35009766 386.31567383 135.35009766 C386.31567383 133.04009766 386.31567383 130.73009766 386.31567383 128.35009766 C385.65567383 128.35009766 384.99567383 128.35009766 384.31567383 128.35009766 Z M389.31567383 128.35009766 C390.31567383 130.35009766 390.31567383 130.35009766 390.31567383 130.35009766 Z M389.31567383 133.35009766 C389.31567383 134.01009766 389.31567383 134.67009766 389.31567383 135.35009766 C388.32567383 136.01009766 387.33567383 136.67009766 386.31567383 137.35009766 C388.16292435 138.04169167 388.16292435 138.04169167 390.31567383 138.35009766 C391.30567383 137.69009766 392.29567383 137.03009766 393.31567383 136.35009766 C391.99567383 135.36009766 390.67567383 134.37009766 389.31567383 133.35009766 Z M385.31567383 139.35009766 C385.97567383 140.01009766 386.63567383 140.67009766 387.31567383 141.35009766 C390.41494202 141.028108 390.41494202 141.028108 393.31567383 140.35009766 C393.31567383 140.02009766 393.31567383 139.69009766 393.31567383 139.35009766 C390.67567383 139.35009766 388.03567383 139.35009766 385.31567383 139.35009766 Z " fill="#000000" transform="translate(426.684326171875,223.64990234375)"/>
<path d="M0 0 C1.91796875 0.15405273 1.91796875 0.15405273 4 1 C5.23828125 2.92211914 5.23828125 2.92211914 6.3125 5.53515625 C6.73789063 6.54763428 7.16328125 7.5601123 7.6015625 8.60327148 C8.06304687 9.74481689 8.52453125 10.8863623 9 12.0625 C9.77917632 13.93464592 10.55836816 15.80678541 11.33789062 17.67878723 C12.22807297 19.8243537 13.11070422 21.97291612 13.9921875 24.12207031 C16.24171017 29.59920586 18.52700716 35.06123509 20.8125 40.5234375 C27.15997741 55.70440042 33.50326009 70.88731695 39.7421875 86.11328125 C40.28774559 87.44214476 40.83331788 88.77100244 41.37890625 90.09985352 C42.3310336 92.42283916 43.27937422 94.74738315 44.22265625 97.07397461 C46.37021067 102.31442038 48.61481349 107.50732986 51.0078125 112.640625 C51.46043457 113.62063477 51.91305664 114.60064453 52.37939453 115.61035156 C54.29865182 118.44037421 55.76314127 119.06932624 59 120 C64.92004934 115.51996266 65.84637881 110.10562441 67 103 C67.23719461 100.32196825 67.42976964 97.67107981 67.5625 94.98828125 C67.60300476 94.18472702 67.64350952 93.38117279 67.6852417 92.55326843 C68.21092823 80.83358685 68.22391764 69.10073968 68.24023438 57.37133789 C68.24578903 53.96129124 68.27004104 50.5516298 68.29820633 47.14170551 C68.32135693 43.84057203 68.32327647 40.53949158 68.328125 37.23828125 C68.3466452 35.42098259 68.3466452 35.42098259 68.36553955 33.56697083 C68.38892229 23.3229716 68.38892229 23.3229716 63.65411377 14.48579407 C59.37483775 10.67756637 55.38867623 9.10282986 49.8125 8.5 C46 8 46 8 44 6 C44.375 3.375 44.375 3.375 45 1 C49.90660024 0.67497043 54.80677379 0.44121193 59.72167969 0.28588867 C61.38685307 0.22108905 63.0513036 0.13279348 64.71386719 0.01928711 C79.2327801 -0.94601968 79.2327801 -0.94601968 84.68481445 3.75170898 C87.32154508 6.42086877 89.61553703 9.28821334 91.79878235 12.33555603 C93.64146799 14.8888377 95.6702853 17.27044616 97.6875 19.6875 C98.40292969 20.57824219 99.11835938 21.46898437 99.85546875 22.38671875 C101.99874956 24.99847623 104.2238033 27.50365302 106.5 30 C110.34191939 34.22013944 113.96115221 38.58027184 117.55078125 43.015625 C120.31810802 46.38761487 123.15150415 49.69662321 126 53 C130.31712816 58.01022642 134.54716841 63.07899701 138.71484375 68.21484375 C141.77413047 71.94351286 144.9056274 75.60884511 148.03515625 79.27856445 C151.37851928 83.21734529 154.56928078 87.2493053 157.66015625 91.390625 C158.92627535 93.13032784 158.92627535 93.13032784 161 94 C160.93853986 85.17601273 160.86125704 76.35234207 160.76428509 67.52867317 C160.71973353 63.43059415 160.68044486 59.33261105 160.65356445 55.234375 C160.62737839 51.27249213 160.5868706 47.31098151 160.53681374 43.3493309 C160.52024769 41.84487445 160.50866998 40.34035377 160.50238609 38.83581924 C160.61135943 24.64493411 160.61135943 24.64493411 154.75 12.125 C149.54481984 8.37460096 142.17333461 7.40588663 136 6 C136.875 1.125 136.875 1.125 138 0 C139.53588256 -0.06381711 141.07477151 -0.05710245 142.61157227 -0.02172852 C143.59251358 -0.00163223 144.5734549 0.01846405 145.5841217 0.03916931 C146.6507756 0.06620438 147.7174295 0.09323944 148.81640625 0.12109375 C149.9025975 0.14470474 150.98878876 0.16831573 152.1078949 0.19264221 C155.59288909 0.26949741 159.07767316 0.35342726 162.5625 0.4375 C164.91860935 0.49069882 167.2747291 0.54343934 169.63085938 0.59570312 C175.42070424 0.72514194 181.2103918 0.86039662 187 1 C187 2.65 187 4.3 187 6 C185.3962669 6.64690922 183.79199694 7.29248764 182.1875 7.9375 C181.29417969 8.29714844 180.40085937 8.65679687 179.48046875 9.02734375 C177.6729091 9.73613486 175.84192591 10.3860247 174 11 C171.69564573 16.78997735 171.58466404 22.56951374 171.41015625 28.7421875 C171.37334244 29.84956268 171.33652863 30.95693787 171.29859924 32.09786987 C170.77202649 49.47949233 170.64876046 66.87308345 170.46777344 84.26092529 C170.41666795 89.09585444 170.36145685 93.93073675 170.30664062 98.765625 C170.2005177 108.17704293 170.09877734 117.5885023 170 127 C163.33544922 128.20410156 163.33544922 128.20410156 160.31640625 126.3671875 C158.03612873 124.03692076 155.95660316 121.6848649 153.9375 119.125 C150.37173652 114.67521196 146.72748211 110.31510038 143 106 C139.37524169 101.79756368 135.80430808 97.56448538 132.3125 93.25 C128.76254679 88.87492253 125.04436179 84.69450808 121.25 80.53125 C118.13067124 77.02200514 115.20250867 73.36837877 112.25 69.71875 C109.35288632 66.21807097 106.29929566 62.87660232 103.23828125 59.51953125 C100.97152842 56.96795083 98.82459913 54.34828468 96.6875 51.6875 C93.11832984 47.27963791 89.40009139 43.04824414 85.5625 38.875 C85.04196045 38.30612061 84.5214209 37.73724121 83.98510742 37.15112305 C81.30348858 34.18321537 81.30348858 34.18321537 78 32 C78.08472467 40.8239214 78.17972972 49.64765695 78.28752708 58.47132683 C78.33727656 62.56939241 78.38360676 66.66743485 78.421875 70.765625 C78.45899968 74.72743342 78.5054296 78.68903746 78.55806351 82.6506691 C78.57646419 84.15513617 78.59162381 85.65964681 78.60334396 87.16418076 C78.27709068 103.12201141 78.27709068 103.12201141 85 117 C88.67599642 118.78365739 92.22459628 119.47257014 96.25 120.0625 C101.89556509 120.89556509 101.89556509 120.89556509 103 122 C103.125 124.5 103.125 124.5 103 127 C101.24126858 128.75873142 98.92188407 128.13243468 96.57815552 128.14663696 C95.80100189 128.14618378 95.02384827 128.14573059 94.22314453 128.14526367 C93.40851746 128.14862228 92.59389038 128.1519809 91.75457764 128.15544128 C89.0473073 128.16498143 86.34009862 128.16689601 83.6328125 128.16796875 C81.75812758 128.17117951 79.88344292 128.17454344 78.00875854 128.17805481 C74.07272765 128.18405396 70.13671874 128.18589394 66.20068359 128.18530273 C61.1508317 128.18520114 56.1011205 128.19884745 51.05130196 128.21607494 C47.17718862 128.2271809 43.30310941 128.22922237 39.42898178 128.22869301 C37.5670104 128.22987548 35.70503821 128.23431211 33.84308243 128.24202538 C31.24050235 128.2517958 28.63822929 128.24895881 26.03564453 128.24291992 C25.26253937 128.24853943 24.4894342 128.25415894 23.69290161 128.25994873 C19.9165249 128.23762218 18.22276303 128.14850868 15 126 C15.22265625 124.11328125 15.22265625 124.11328125 16 122 C18.23505309 120.85841711 20.48065462 120.173854 22.87109375 119.41796875 C25.43138555 117.71267348 26.22948987 116.12909347 26.9074707 113.14233398 C27.10102701 108.66091806 25.38448833 104.59444365 23.875 100.4375 C23.4109375 99.05788086 23.4109375 99.05788086 22.9375 97.65039062 C20.19130542 89.04171426 20.19130542 89.04171426 14 83 C8.34720147 82.71455987 2.69325965 82.68621466 -2.96606445 82.64990234 C-4.85844219 82.63334668 -6.7507575 82.60606165 -8.64282227 82.56787109 C-11.37288814 82.51305528 -14.1014889 82.49122182 -16.83203125 82.4765625 C-18.0963372 82.44255844 -18.0963372 82.44255844 -19.38618469 82.40786743 C-23.71713097 82.42341328 -25.4504372 82.56768632 -28.96264648 85.33056641 C-34.14719475 92.12359825 -38.66582156 102.27233896 -38 111 C-37.48437334 114.44821969 -37.48437334 114.44821969 -35 117 C-31.43535571 118.7036076 -27.76866547 119.83878655 -24 121 C-22.32708644 121.65083212 -20.65821987 122.31259249 -19 123 C-19 124.32 -19 125.64 -19 127 C-21.30014211 128.15007105 -22.60115768 128.12670485 -25.15844727 128.12939453 C-26.01596085 128.13254669 -26.87347443 128.13569885 -27.75697327 128.13894653 C-28.68408615 128.1369223 -29.61119904 128.13489807 -30.56640625 128.1328125 C-31.99024879 128.13424759 -31.99024879 128.13424759 -33.44285583 128.13571167 C-35.451081 128.1363928 -37.45930835 128.13454319 -39.4675293 128.13037109 C-42.55327255 128.12501601 -45.63887063 128.1303214 -48.72460938 128.13671875 C-50.67187532 128.13605807 -52.61914118 128.13477713 -54.56640625 128.1328125 C-55.49554337 128.13483673 -56.42468048 128.13686096 -57.38197327 128.13894653 C-58.23633469 128.13579437 -59.09069611 128.13264221 -59.97094727 128.12939453 C-60.72658463 128.12859894 -61.48222198 128.12780334 -62.26075745 128.12698364 C-64 128 -64 128 -65 127 C-65.04063832 125.33382885 -65.042721 123.66611905 -65 122 C-63.7315625 121.505 -63.7315625 121.505 -62.4375 121 C-53.69410052 115.91293121 -50.08409968 107.64019682 -46.34741211 98.60931396 C-45.17288055 95.77238542 -43.96372414 92.95060916 -42.75671387 90.12738037 C-42.12398663 88.64683137 -41.49289898 87.16558067 -40.86340332 85.68365479 C-37.53390825 77.85706032 -34.03317911 70.11133884 -30.5 62.375 C-30.035439 61.35652481 -30.035439 61.35652481 -29.56149292 60.31747437 C-27.38198296 55.54145727 -25.19266165 50.76999077 -23 46 C-22.68766418 45.31969727 -22.37532837 44.63939453 -22.05352783 43.93847656 C-3.46993493 3.46993493 -3.46993493 3.46993493 0 0 Z M-6 32 C-10.81957655 41.99788709 -15.63521754 52.00192598 -20.1875 62.125 C-20.49051025 62.78048828 -20.79352051 63.43597656 -21.10571289 64.11132812 C-22.85786687 67.93634405 -22.85786687 67.93634405 -22 72 C-10.78 72 0.44 72 12 72 C11.18762981 67.12577884 10.29899779 63.91968234 8.3828125 59.5 C8.12498993 58.90123047 7.86716736 58.30246094 7.60153198 57.68554688 C7.05825643 56.42704223 6.51182866 55.16989409 5.96240234 53.9140625 C5.12849804 52.00799552 4.30363391 50.09822605 3.48046875 48.1875 C1.11489981 42.7212465 -1.29770986 37.31060497 -4 32 C-4.66 32 -5.32 32 -6 32 Z " fill="#000000" transform="translate(229,246)"/>
<path d="M0 0 C1.0725 0.53625 2.145 1.0725 3.25 1.625 C5.2374605 0.84887491 6.73670227 0.13829773 8.25 -1.375 C10.75 -1.5 10.75 -1.5 13.25 -1.375 C14.93832195 0.31332195 14.43895166 2.4622233 14.49609375 4.77734375 C14.52791748 5.85628906 14.55974121 6.93523437 14.5925293 8.046875 C14.63953979 9.78710938 14.63953979 9.78710938 14.6875 11.5625 C14.96313336 20.57106542 15.46052785 29.44478015 16.76538086 38.36694336 C17.00277624 40.11097465 17.13702224 41.86851552 17.25 43.625 C15.25 45.625 15.25 45.625 12.625 45.75 C11.84125 45.70875 11.0575 45.6675 10.25 45.625 C9.98372803 44.97539307 9.71745605 44.32578613 9.44311523 43.65649414 C8.20554077 40.66069575 6.94671503 37.67426329 5.6875 34.6875 C5.06004883 33.15512695 5.06004883 33.15512695 4.41992188 31.59179688 C-0.05756459 21.05455429 -6.18773829 11.51693714 -16.94140625 6.62890625 C-25.16681119 3.63915037 -33.41020399 2.51013643 -41.75 5.625 C-47.37702004 8.38867329 -51.70651502 11.52210943 -54.1640625 17.41796875 C-55.62555111 22.92290919 -55.228076 27.86209476 -53.75 33.3125 C-46.80975249 44.80728494 -33.1858481 48.94181452 -21.36328125 53.88671875 C-5.01345418 60.72833157 9.15700541 66.78370093 17.02734375 83.63671875 C21.53717493 94.65914958 21.26914873 105.44003806 17.25 116.625 C10.46448925 130.41668851 0.16030442 137.22474544 -13.94921875 142.4375 C-31.85864908 147.50421507 -53.52824407 142.45094189 -69.51171875 134.19921875 C-73.13747052 130.02928783 -72.97761072 125.23930297 -73.4375 119.875 C-73.64513978 117.75475283 -73.85729114 115.63494205 -74.07421875 113.515625 C-74.17677979 112.5037915 -74.27934082 111.49195801 -74.38500977 110.44946289 C-74.70761839 107.95296848 -75.17324097 105.62781551 -75.8203125 103.19921875 C-76.64873878 100.01430258 -76.99355564 97.45401521 -76.9375 94.1875 C-76.93105469 93.34316406 -76.92460938 92.49882812 -76.91796875 91.62890625 C-76.75 89.625 -76.75 89.625 -75.75 88.625 C-73.75041636 88.58419217 -71.74954746 88.58245644 -69.75 88.625 C-69.51925781 89.23085938 -69.28851563 89.83671875 -69.05078125 90.4609375 C-62.39966783 107.5487783 -53.54530748 122.07714432 -36.75 130.625 C-29.21256987 133.63997205 -21.12392126 133.78499407 -13.5 131 C-6.28042203 127.71108115 -1.34545581 123.62504242 1.59375 116.125 C3.10822364 110.3555766 3.03948606 104.86880248 1.0625 99.25 C-8.27350625 85.7288875 -27.46731456 79.72570192 -41.984375 73.296875 C-54.99250492 67.47698253 -65.62980522 61.1707458 -71.75 47.625 C-75.22866801 37.61116442 -74.24667176 27.50804586 -70.75 17.625 C-64.58676126 5.24092216 -53.61663929 -1.12389893 -41 -5.75 C-27.6044978 -8.40695911 -12.02594896 -6.5474611 0 0 Z " fill="#000000" transform="translate(151.75,230.375)"/>
</svg>
