<?xml version="1.0" encoding="UTF-8"?>
<svg version="1.1" xmlns="http://www.w3.org/2000/svg" width="512" height="512">
<path d="M0 0 C7.26152204 4.35202331 13.06143458 10.96989596 15.875 18.99609375 C18.07687278 29.79903208 17.43786521 40.18676957 12.5 50.0625 C10.42516111 55.24959722 9.87994585 60.29948461 9.375 65.8125 C9.24544922 67.07707031 9.24544922 67.07707031 9.11328125 68.3671875 C8.86631097 70.93097419 8.67052514 73.49254821 8.5 76.0625 C8.44166992 76.83891846 8.38333984 77.61533691 8.32324219 78.4152832 C7.95563155 87.4263853 10.72534166 95.93927209 13.01171875 104.56835938 C15.41226416 114.14604567 17.83748046 124.88634328 14.22460938 134.43237305 C12.5 137.0625 12.5 137.0625 10.3125 137.9375 C9.714375 137.97875 9.11625 138.02 8.5 138.0625 C7.20094231 144.90513007 6.34612492 151.61762484 9.5 158.0625 C15.53057919 163.75120392 23.5891086 167.04867368 31.05502319 170.4932251 C36.84439432 173.16506855 42.25184388 176.30563805 47.6875 179.625 C49.47410607 180.69203934 51.26187275 181.75713774 53.05078125 182.8203125 C54.38423584 183.61550293 54.38423584 183.61550293 55.74462891 184.42675781 C60.60520307 187.31226613 65.49075528 190.1548089 70.375 193 C71.35919922 193.57492188 72.34339844 194.14984375 73.35742188 194.7421875 C78.61714311 197.81235703 83.8882744 200.86072156 89.17578125 203.8828125 C90.26584473 204.50937744 91.3559082 205.13594238 92.47900391 205.78149414 C94.56478283 206.97992031 96.65412738 208.1721694 98.74755859 209.35717773 C109.844316 215.75113201 109.844316 215.75113201 112.5 221.0625 C113.01838766 226.26337292 113.16595399 230.67936478 110.875 235.4375 C104.39768874 242.59663349 98.48976772 245.99470931 88.88598633 246.61816406 C80.7572155 246.88998449 75.4144627 245.21185485 68.46484375 240.69140625 C63.95607216 238.21425506 59.37288099 237.43233203 54.375 238.8125 C51.02552184 239.80758769 48.16417428 240.72125594 45.5 243.0625 C44.60407917 246.66169423 44.60407917 246.66169423 44.5 250.0625 C51.85058445 255.19191378 59.5707923 259.61052203 67.375 264 C95.4042912 279.77537359 95.4042912 279.77537359 97.5 286.0625 C98.12636647 291.36094422 97.91938753 295.82327433 94.8984375 300.4296875 C89.77609074 306.41052813 83.69878126 309.54678013 75.90625 310.50390625 C65.37971124 310.83022895 58.59334344 308.56136 49.5 303.0625 C47.91919245 302.13982733 46.33707252 301.21940084 44.75390625 300.30078125 C40.07803712 297.57121743 35.42791392 294.80007187 30.78076172 292.02197266 C25.17628856 288.67463663 19.56419518 285.34049113 13.94192505 282.02313232 C12.65663194 281.2632232 11.37265246 280.50108743 10.09005737 279.7366333 C8.28186628 278.65896926 6.46956186 277.58855024 4.65625 276.51953125 C3.61275391 275.90053955 2.56925781 275.28154785 1.49414062 274.64379883 C-5.13360292 271.14348124 -10.24337321 270.53606431 -17.5 272.0625 C-20.40630368 273.4855984 -20.40630368 273.4855984 -22.5 275.0625 C-23.16 275.0625 -23.82 275.0625 -24.5 275.0625 C-24.83 278.0325 -25.16 281.0025 -25.5 284.0625 C-18.95872558 288.5548673 -12.25191828 292.59264464 -5.34350586 296.49414062 C-2.87457619 297.888519 -0.40988482 299.29031644 2.05508423 300.69168091 C3.33074145 301.41686836 4.60660089 302.14170021 5.88265991 302.86618042 C12.10611316 306.40107157 18.30454473 309.97879355 24.5 313.5625 C33.52510804 318.77926978 42.56926911 323.96166922 51.625 329.125 C61.57003136 334.79569902 71.48573003 340.51446855 81.35620117 346.31420898 C85.56612115 348.78536622 89.77830703 351.23689966 94.06640625 353.5703125 C94.73236816 353.93576172 95.39833008 354.30121094 96.08447266 354.67773438 C97.77828706 355.60074048 99.48053623 356.50822444 101.18359375 357.4140625 C103.5 359.0625 103.5 359.0625 104.34765625 361.2734375 C104.39792969 361.86382812 104.44820313 362.45421875 104.5 363.0625 C105.16 363.0625 105.82 363.0625 106.5 363.0625 C109.62346624 368.13813265 110.23307077 372.26076846 109.5 378.0625 C107.43683291 384.50989715 102.29277174 389.06036771 96.3984375 392.171875 C87.5184395 395.59471059 78.88751088 394.99768315 70.25561523 391.3581543 C65.1604081 388.96245444 60.34379606 386.11251196 55.5 383.25 C53.77706644 382.2438068 52.0541266 381.23762416 50.33081055 380.23208618 C48.55528147 379.19500242 46.78143927 378.15507922 45.0078125 377.11474609 C39.52244208 373.90087483 34.00965587 370.7344852 28.5 367.5625 C26.33320854 366.31271633 24.16654217 365.06271577 22 363.8125 C20.9275 363.19375 19.855 362.575 18.75 361.9375 C-43 326.3125 -43 326.3125 -46.25561523 324.43408203 C-48.4033582 323.19511766 -50.55130455 321.95650576 -52.69946289 320.71826172 C-57.79179437 317.78235895 -62.88191695 314.84280245 -67.9649353 311.89080811 C-70.37434008 310.49181947 -72.7849009 309.09482971 -75.19555664 307.69799805 C-76.90298982 306.70751929 -78.60873972 305.7141406 -80.31445312 304.72070312 C-81.34376953 304.12451172 -82.37308594 303.52832031 -83.43359375 302.9140625 C-84.34165771 302.38635254 -85.24972168 301.85864258 -86.18530273 301.31494141 C-90.4250991 299.02086321 -93.72183215 298.74395548 -98.5 299.0625 C-103.03457582 300.59964435 -106.62047186 302.14634172 -109.5 306.0625 C-110.25 308.5625 -110.25 308.5625 -109.5 311.0625 C-106.33558976 313.880317 -103.0230175 316.02753211 -99.31640625 318.05859375 C-98.31641602 318.61095703 -97.31642578 319.16332031 -96.28613281 319.73242188 C-94.69043457 320.60737305 -94.69043457 320.60737305 -93.0625 321.5 C-84.42606426 326.29830135 -75.79900721 331.10971667 -67.25 336.0625 C-66.34064697 336.5773999 -65.43129395 337.0922998 -64.49438477 337.62280273 C-58.84949324 340.91909367 -54.49564182 344.07121636 -51.5 350.0625 C-50.96854586 354.90657382 -50.93137097 358.87975163 -53.0625 363.3125 C-60.11016251 371.26370898 -66.26734442 375.031241 -77 375.75 C-86.1402578 375.48912583 -92.82529606 371.54415983 -100.5 367.0625 C-102.31249666 366.0221296 -104.12499687 364.98176538 -105.9375 363.94140625 C-109.99943576 361.59497789 -114.04648916 359.22476022 -118.0859375 356.83984375 C-124.531298 353.03516737 -131.01215988 349.29414739 -137.5 345.5625 C-145.84831523 340.75456002 -154.18243573 335.9234409 -162.5 331.0625 C-170.77777087 326.22573564 -179.06941929 321.41385931 -187.375 316.625 C-188.97577393 315.70195068 -188.97577393 315.70195068 -190.60888672 314.76025391 C-195.68601752 311.83386801 -200.7645373 308.90991397 -205.84506226 305.98942566 C-207.6250134 304.96600745 -209.40460669 303.94196987 -211.18408203 302.91772461 C-213.41349337 301.63471373 -215.64359376 300.35289912 -217.87451172 299.07250977 C-222.29850576 296.52567077 -226.67800326 293.96835636 -230.94921875 291.171875 C-233.74638805 289.40163344 -235.80668957 288.47499512 -239.1875 288.4375 C-243.10113372 288.36595277 -245.56950602 287.77422447 -248.5 285.0625 C-249.13303262 281.81962347 -248.96884518 278.66305937 -248.8125 275.375 C-248.78994141 274.48232422 -248.76738281 273.58964844 -248.74414062 272.66992188 C-248.68520574 270.46575728 -248.60300818 268.26497328 -248.5 266.0625 C-249.11633301 265.86479004 -249.73266602 265.66708008 -250.36767578 265.46337891 C-251.1770459 265.19960449 -251.98641602 264.93583008 -252.8203125 264.6640625 C-254.02324951 264.27468506 -254.02324951 264.27468506 -255.25048828 263.87744141 C-259.04441272 262.50299819 -261.47176068 260.90667012 -263.46484375 257.33203125 C-267.38976088 247.69156659 -265.80436603 236.69037709 -264.5 226.625 C-262.18726345 208.50342425 -262.90744274 191.09615428 -273.23828125 175.42578125 C-279.93409333 165.26422793 -282.16562555 156.65034453 -280.03515625 144.38671875 C-277.58784399 135.07534727 -272.84302049 128.18290239 -264.76953125 122.9296875 C-259.09983362 119.69179566 -253.25330886 116.8254897 -247.37890625 113.98046875 C-242.38851359 111.54040733 -237.47682916 108.96303696 -232.56640625 106.3671875 C-223.55922504 101.60574766 -214.50635758 96.93915593 -205.43261719 92.30603027 C-200.96160616 90.02293811 -196.49263037 87.73586735 -192.0234375 85.44921875 C-191.12776062 84.99104767 -190.23208374 84.53287659 -189.30926514 84.06082153 C-181.03212512 79.8256915 -172.76407257 75.5730623 -164.5 71.3125 C-163.50223541 70.79814896 -163.50223541 70.79814896 -162.48431396 70.27340698 C-159.15475427 68.5569168 -155.82537476 66.84007752 -152.49609375 65.12304688 C-146.35533237 61.95626964 -140.21285829 58.79281666 -134.07055664 55.62902832 C-130.63030509 53.85698034 -127.19015767 52.08473022 -123.75 50.3125 C-122.3750005 49.60416569 -121.0000005 48.89583236 -119.625 48.1875 C-118.944375 47.836875 -118.26375 47.48625 -117.5625 47.125 C-115.5 46.0625 -113.4375 45 -111.375 43.9375 C-110.69441528 43.58689514 -110.01383057 43.23629028 -109.31262207 42.87506104 C-107.93721718 42.16652035 -106.56181028 41.45798357 -105.18640137 40.74945068 C-101.75507978 38.9818217 -98.32379279 37.21412561 -94.89257812 35.44628906 C-88.63153373 32.22054751 -82.37021428 28.99534486 -76.1076355 25.77258301 C-73.27071277 24.31265279 -70.43394636 22.85241906 -67.597229 21.39208984 C-66.20775014 20.67682829 -64.81822436 19.96165786 -63.4286499 19.24658203 C-56.26894663 15.56175722 -49.11421204 11.86801927 -41.9765625 8.140625 C-40.23439453 7.23135254 -40.23439453 7.23135254 -38.45703125 6.30371094 C-36.2944826 5.17363349 -34.13296113 4.0415874 -31.97265625 2.90722656 C-31.02519531 2.4119043 -30.07773437 1.91658203 -29.1015625 1.40625 C-28.27994629 0.97505859 -27.45833008 0.54386719 -26.61181641 0.09960938 C-19.06940435 -3.6044561 -7.65818244 -3.47664757 0 0 Z M-34.9375 19.1875 C-35.78248047 19.6103125 -36.62746094 20.033125 -37.49804688 20.46875 C-43.5305822 23.50476051 -49.50857463 26.64003148 -55.48046875 29.79296875 C-64.5483539 34.57969929 -73.66289439 39.27082005 -82.79534912 43.93295288 C-87.28161731 46.22342817 -91.76582287 48.51793429 -96.25 50.8125 C-97.13710663 51.26638596 -98.02421326 51.72027191 -98.9382019 52.18791199 C-106.42768638 56.02166441 -113.90465948 59.87910176 -121.375 63.75 C-131.82399676 69.16412997 -142.28330713 74.55767822 -152.75 79.9375 C-155.72135881 81.46483473 -158.69271576 82.99217305 -161.6640625 84.51953125 C-162.39979492 84.89770996 -163.13552734 85.27588867 -163.89355469 85.66552734 C-172.99988572 90.34683824 -182.10195557 95.03641776 -191.20361328 99.72680664 C-192.56282463 100.42724782 -193.92203687 101.12768727 -195.28125 101.828125 C-195.95356659 102.17459579 -196.62588318 102.52106659 -197.318573 102.8780365 C-202.95919246 105.78455382 -208.60129859 108.68817712 -214.24415588 111.59034729 C-217.75425802 113.39602231 -221.26314773 115.20397485 -224.76928711 117.01733398 C-226.11568548 117.71345082 -227.46212051 118.40949675 -228.80859375 119.10546875 C-229.46117661 119.44279526 -230.11375946 119.78012177 -230.78611755 120.12767029 C-234.99936545 122.30098561 -239.23032145 124.43480157 -243.47265625 126.55078125 C-245.06086182 127.35261841 -245.06086182 127.35261841 -246.68115234 128.1706543 C-248.60609705 129.14188066 -250.53696051 130.10151714 -252.47509766 131.04614258 C-259.04085412 134.38395393 -263.65954944 138.21428519 -266.875 144.9375 C-268.89848242 155.05491211 -266.61253798 161.95761365 -261.0625 170.4375 C-249.27043103 188.5600481 -249.04035622 209.24798642 -251.77905273 229.98828125 C-253.66134284 241.4969294 -253.66134284 241.4969294 -250.5 252.0625 C-249.84 252.0625 -249.18 252.0625 -248.5 252.0625 C-248.40912109 250.56396484 -248.40912109 250.56396484 -248.31640625 249.03515625 C-248.23261719 247.74480469 -248.14882812 246.45445312 -248.0625 245.125 C-247.98128906 243.83722656 -247.90007812 242.54945313 -247.81640625 241.22265625 C-247.5 238.0625 -247.5 238.0625 -246.5 237.0625 C-244.54577134 236.91082852 -242.58490271 236.84070004 -240.625 236.8125 C-239.02011719 236.77382813 -239.02011719 236.77382813 -237.3828125 236.734375 C-234.5 237.0625 -234.5 237.0625 -232.66015625 238.22265625 C-231.07236192 240.74067352 -230.9863823 242.79400093 -230.8125 245.75 C-230.71388672 247.24080078 -230.71388672 247.24080078 -230.61328125 248.76171875 C-230.57589844 249.52097656 -230.53851563 250.28023437 -230.5 251.0625 C-229.84 250.7325 -229.18 250.4025 -228.5 250.0625 C-227.93148459 241.83481867 -228.89609992 234.53467708 -230.5 226.5 C-234.37675862 206.1895588 -235.58932494 180.42978453 -227.91015625 160.75390625 C-225.92541012 155.55837969 -225.71397709 151.42056873 -227.5 146.0625 C-227.53954234 143.72950175 -227.54401732 141.39541811 -227.5 139.0625 C-225.52 139.0625 -223.54 139.0625 -221.5 139.0625 C-216.85428667 149.12821222 -217.76852369 157.63082592 -221.4765625 167.84765625 C-228.07944561 188.58877381 -224.99905328 212.60225258 -220.95751953 233.47265625 C-220.27751284 237.32191504 -219.87860057 241.17287734 -219.5 245.0625 C-215.32153695 243.76526853 -211.54991554 242.18435882 -207.67578125 240.15625 C-206.02461304 239.29592163 -206.02461304 239.29592163 -204.34008789 238.41821289 C-203.17598389 237.80582764 -202.01187988 237.19344238 -200.8125 236.5625 C-199.58799239 235.92209436 -198.36329963 235.28204261 -197.13842773 234.64233398 C-194.70090169 233.36822897 -192.26480163 232.09146395 -189.83007812 230.81201172 C-187.05006286 229.35148464 -184.26796687 227.89509835 -181.484375 226.44140625 C-174.72461357 222.90422754 -167.98656212 219.3286587 -161.26953125 215.7109375 C-146.28639447 207.6437592 -131.22209529 199.75807158 -116.08261108 191.98834229 C-115.40695099 191.64156433 -114.73129089 191.29478638 -114.03515625 190.9375 C-113.37230621 190.59732849 -112.70945618 190.25715698 -112.02651978 189.90667725 C-106.05884243 186.84140526 -100.11646227 183.7296693 -94.18652344 180.59204102 C-90.13888613 178.45053735 -86.08437138 176.32355428 -82.01953125 174.21484375 C-72.01631225 169.02376012 -62.07815309 163.74800834 -52.22045898 158.28588867 C-45.42174363 154.56237082 -38.53816516 151.02500355 -31.625 147.51953125 C-30.65560486 147.02729065 -29.68620972 146.53505005 -28.68743896 146.02789307 C-23.74663833 143.52073492 -18.80107494 141.02363254 -13.84863281 138.53955078 C-12.00833047 137.60866146 -10.16815566 136.67751998 -8.328125 135.74609375 C-7.46767578 135.31843216 -6.60722656 134.89077057 -5.72070312 134.45014954 C-4.53492676 133.84725349 -4.53492676 133.84725349 -3.32519531 133.23217773 C-2.63210266 132.88420639 -1.93901001 132.53623505 -1.22491455 132.17771912 C0.81474396 131.02107552 0.81474396 131.02107552 2.5 128.0625 C3.6409687 120.29682262 1.50494188 112.77112123 -0.4375 105.3125 C-0.99001404 103.1306464 -1.54085099 100.94836728 -2.08984375 98.765625 C-2.33597412 97.81333008 -2.58210449 96.86103516 -2.83569336 95.87988281 C-5.70074887 83.72893072 -4.37613263 71.39093779 -3.5 59.0625 C-7.95680395 60.43233653 -11.95521627 62.19390911 -16.09375 64.3359375 C-16.71282227 64.65525238 -17.33189453 64.97456726 -17.96972656 65.30355835 C-19.98224246 66.34359871 -21.9912079 67.39028778 -24 68.4375 C-25.41465569 69.17101002 -26.82936986 69.90440727 -28.24414062 70.63769531 C-35.88081955 74.60493755 -43.46973815 78.64615119 -51 82.8125 C-62.88015135 89.3851401 -74.98665439 95.51855676 -87.08203125 101.68261719 C-97.63558684 107.06326462 -108.14126377 112.52683887 -118.60823059 118.07418823 C-119.2325145 118.40033112 -119.8567984 118.726474 -120.5 119.0625 C-121.5400544 119.63207932 -121.5400544 119.63207932 -122.60112 120.21316528 C-124.97215037 121.27368433 -126.10242525 120.9187767 -128.5 120.0625 C-129.1875 118.25 -129.1875 118.25 -129.5 116.0625 C-127.22191949 113.16166294 -124.32202806 111.77521051 -121.07421875 110.12890625 C-119.43308105 109.28948486 -119.43308105 109.28948486 -117.75878906 108.43310547 C-117.17778442 108.13901794 -116.59677979 107.84493042 -115.99816895 107.54193115 C-112.8972371 105.97160488 -109.80616535 104.38210886 -106.71484375 102.79296875 C-105.77972458 102.31286346 -105.77972458 102.31286346 -104.82571411 101.82305908 C-99.57992327 99.12195658 -94.40855067 96.30052877 -89.25 93.4375 C-78.95276738 87.7450331 -68.47982775 82.40798668 -58 77.0625 C-45.571355 70.72254668 -33.20317214 64.32026167 -21.0078125 57.5390625 C-18.03175731 55.886264 -15.0340545 54.30169919 -11.9921875 52.7734375 C-11.29158203 52.41733398 -10.59097656 52.06123047 -9.86914062 51.69433594 C-8.0514851 50.77660682 -6.22537889 49.87566399 -4.3984375 48.9765625 C-0.15186185 46.17222009 1.90620522 42.84388434 3.5 38.0625 C4.14300669 30.35696078 4.34298366 23.40951586 -0.5 17.0625 C-11.82931766 5.21821336 -22.59178943 12.92872219 -34.9375 19.1875 Z M-5.9609375 143.3359375 C-6.89744141 143.82578125 -7.83394531 144.315625 -8.79882812 144.8203125 C-10.3215332 145.62082031 -10.3215332 145.62082031 -11.875 146.4375 C-12.91849609 146.9840625 -13.96199219 147.530625 -15.03710938 148.09375 C-22.12975687 151.81079866 -29.21660107 155.53898658 -36.29907227 159.27539062 C-40.53223207 161.507139 -44.77172787 163.72592328 -49.01953125 165.9296875 C-58.23469747 170.71279759 -67.41285576 175.54003564 -76.5 180.5625 C-87.73700875 186.76186578 -99.17411964 192.56106738 -110.60540771 198.3913269 C-120.00951737 203.18988181 -129.39324589 207.99983892 -138.625 213.125 C-148.36700324 218.53254188 -158.26953836 223.6127484 -168.1875 228.6875 C-169.00074738 229.10371613 -169.81399475 229.51993225 -170.65188599 229.94876099 C-173.82556453 231.57289026 -176.99932883 233.19685175 -180.17326355 234.82048035 C-193.21053391 241.49294644 -206.13811898 248.33573836 -218.92016602 255.48632812 C-220.10050415 256.1427832 -220.10050415 256.1427832 -221.3046875 256.8125 C-221.99546387 257.19921875 -222.68624023 257.5859375 -223.39794922 257.984375 C-225.69373386 259.16186455 -228.10440261 260.10426104 -230.5 261.0625 C-230.5 265.6825 -230.5 270.3025 -230.5 275.0625 C-226.3075716 273.66502387 -222.99117985 272.41279262 -219.16796875 270.40234375 C-218.13929688 269.86480469 -217.110625 269.32726562 -216.05078125 268.7734375 C-214.38595703 267.89558594 -214.38595703 267.89558594 -212.6875 267 C-210.88434615 266.05584861 -209.08031998 265.11337752 -207.27627563 264.17092896 C-206.00336697 263.50580607 -204.73072817 262.8401665 -203.45834351 262.17404175 C-196.68764182 258.63088596 -189.89296373 255.13471517 -183.09683228 251.64065552 C-172.38768507 246.13419404 -161.68734314 240.6111738 -151 235.0625 C-140.34792036 229.53237902 -129.68185235 224.02990159 -119.01074219 218.53662109 C-109.33508788 213.55564972 -99.66442579 208.56522241 -90 203.5625 C-80.37149623 198.57855949 -70.73730281 193.60582807 -61.09802246 188.64276123 C-54.89810724 185.45045601 -48.6988699 182.25683452 -42.5 179.0625 C-41.48957642 178.54181946 -41.48957642 178.54181946 -40.45874023 178.01062012 C-36.50510533 175.9729702 -32.55224155 173.93383545 -28.6003418 171.89282227 C-26.82575303 170.97661091 -25.05058461 170.06152254 -23.27539062 169.14648438 C-15.63767789 165.19965928 -8.06031001 161.15506451 -0.5 157.0625 C-0.5 151.7825 -0.5 146.5025 -0.5 141.0625 C-2.4523837 141.0625 -4.27968638 142.45438867 -5.9609375 143.3359375 Z M-5.1796875 168.9453125 C-5.97036621 169.35109024 -6.76104492 169.75686798 -7.57568359 170.17494202 C-10.17650436 171.51043143 -12.77577624 172.84890539 -15.375 174.1875 C-17.17458033 175.11250591 -18.9742226 176.03739133 -20.77392578 176.9621582 C-31.7147476 182.58676936 -42.64401188 188.2334175 -53.56054688 193.9050293 C-62.32192607 198.45640374 -71.09668798 202.98140541 -79.875 207.5 C-90.25551118 212.84356628 -100.63165095 218.19537143 -111 223.5625 C-121.36834929 228.9296287 -131.74453733 234.28133919 -142.125 239.625 C-152.09132739 244.75554007 -162.05139006 249.89766435 -172 255.0625 C-182.42840473 260.47604445 -192.8676883 265.86819265 -203.3125 271.25 C-204.03131348 271.6205249 -204.75012695 271.9910498 -205.49072266 272.37280273 C-207.54177717 273.42994275 -209.59310438 274.48655152 -211.64453125 275.54296875 C-212.24961014 275.85485641 -212.85468903 276.16674408 -213.47810364 276.48808289 C-217.13926816 278.37233346 -220.81384422 280.22764623 -224.5 282.0625 C-223.19204145 285.98637566 -221.7626032 286.3359936 -218.19140625 288.328125 C-217.06524902 288.96306885 -215.9390918 289.5980127 -214.77880859 290.25219727 C-213.54005672 290.93899669 -212.3012867 291.6257634 -211.0625 292.3125 C-209.78668728 293.02882588 -208.51146657 293.74620709 -207.23681641 294.46459961 C-204.6093667 295.94493388 -201.97988874 297.42156736 -199.34912109 298.89599609 C-193.66255976 302.08944409 -188.01899221 305.35708344 -182.375 308.625 C-180.2253749 309.8673856 -178.07563517 311.10957289 -175.92578125 312.3515625 C-174.86568848 312.96418945 -173.8055957 313.57681641 -172.71337891 314.20800781 C-169.49213087 316.0670414 -166.26799185 317.92096163 -163.04296875 319.7734375 C-152.02440904 326.10703193 -141.04569607 332.49894403 -130.125 339 C-120.52712379 344.71091213 -110.88288904 350.33166076 -101.1875 355.875 C-100.58891174 356.21788055 -99.99032349 356.56076111 -99.37359619 356.91403198 C-86.78497425 364.78730087 -86.78497425 364.78730087 -72.5 366.0625 C-67.92733589 364.53566866 -63.18720117 362.15171917 -60.5 358.0625 C-59.9359409 354.57884999 -59.9359409 354.57884999 -61.5 351.0625 C-67.64883621 345.81613837 -75.45404111 342.19296938 -82.5 338.3125 C-84.71419349 337.08059792 -86.92773271 335.84751917 -89.140625 334.61328125 C-90.21892578 334.01209473 -91.29722656 333.4109082 -92.40820312 332.79150391 C-96.70509206 330.38858481 -100.9886478 327.96538734 -105.25 325.5 C-105.92160156 325.1194043 -106.59320313 324.73880859 -107.28515625 324.34667969 C-111.78186601 321.72359899 -116.11803202 318.82643595 -118.5 314.0625 C-119.2569489 308.3710108 -119.36052371 303.46087558 -116 298.625 C-111.32121357 293.21446024 -105.0252777 290.42285902 -97.94921875 289.859375 C-96.58216797 289.83617187 -96.58216797 289.83617187 -95.1875 289.8125 C-94.28386719 289.78671875 -93.38023437 289.7609375 -92.44921875 289.734375 C-84.21814669 290.6501499 -76.71343448 296.15249561 -69.625 300.125 C-68.4011454 300.80798277 -67.17726824 301.49092511 -65.95336914 302.17382812 C-58.22953813 306.49202846 -50.56763126 310.90457044 -42.9609375 315.42578125 C-37.35754155 318.75125802 -31.70842533 321.99744253 -26.0625 325.25 C-24.95511475 325.88808594 -23.84772949 326.52617187 -22.70678711 327.18359375 C-20.43630921 328.49156691 -18.165719 329.79934513 -15.89501953 331.10693359 C-10.4283002 334.25582054 -4.96425113 337.40933264 0.5 340.5625 C2.66665311 341.8125235 4.83331979 343.06252347 7 344.3125 C11.33333333 346.8125 15.66666667 349.3125 20 351.8125 C21.07378906 352.4319751 22.14757812 353.0514502 23.25390625 353.68969727 C25.4076172 354.93226019 27.56126367 356.17493489 29.71484375 357.41772461 C34.73684262 360.31564623 39.75942807 363.21253349 44.78442383 366.10525513 C46.55045522 367.12197198 48.31627431 368.13905658 50.08203125 369.15625 C52.28734155 370.42650873 54.49304216 371.69609018 56.69921875 372.96484375 C62.32446027 376.20602004 67.91074089 379.49576649 73.44140625 382.89624023 C78.272777 385.63336761 83.09298194 385.63924859 88.5 385.0625 C93.72577071 383.42443899 97.68710619 380.86786027 100.5 376.0625 C101.25021244 373.60617668 101.25021244 373.60617668 100.5 371.0625 C96.29948546 364.67516661 90.37550974 361.84790939 83.75 358.3125 C81.47189049 357.06780677 79.19454716 355.82171021 76.91796875 354.57421875 C75.81114746 353.9714209 74.70432617 353.36862305 73.56396484 352.74755859 C69.68442131 350.61396421 65.86490904 348.39242113 62.0625 346.125 C55.09320753 341.98781601 48.08493213 337.9213348 41.0625 333.875 C39.95672607 333.23771973 38.85095215 332.60043945 37.71166992 331.94384766 C34.3080747 329.9828862 30.90408111 328.02261785 27.5 326.0625 C18.82956789 321.06900404 10.16233775 316.07002525 1.5 311.0625 C0.40187988 310.42828125 -0.69624023 309.7940625 -1.82763672 309.140625 C-5.07452579 307.26373333 -8.31886828 305.38251426 -11.5625 303.5 C-13.0158374 302.66069946 -13.0158374 302.66069946 -14.49853516 301.80444336 C-32.75315923 291.18656626 -32.75315923 291.18656626 -34.5 286.0625 C-35.2486369 280.43812534 -35.1227551 275.39702155 -31.8828125 270.59375 C-26.68547368 264.83850476 -20.0248792 262.78953505 -12.5 262.0625 C-4.21987625 261.98257908 1.62954965 264.08630286 8.6875 268.25 C10.09092651 269.04651978 10.09092651 269.04651978 11.52270508 269.85913086 C14.52772463 271.57269177 17.51449588 273.31519241 20.5 275.0625 C22.53087912 276.23762036 24.56213014 277.41209824 26.59375 278.5859375 C34.40961385 283.11815069 42.20370594 287.68577882 49.95703125 292.32421875 C50.81079346 292.83009521 51.66455566 293.33597168 52.54418945 293.85717773 C54.1220111 294.79220058 55.69521251 295.73508898 57.26245117 296.68774414 C63.04871532 300.10309628 69.25543652 303.16132305 76.125 301.4375 C81.49427438 300.00012948 85.38211521 297.73932719 88.5 293.0625 C89.08350505 290.60540625 89.08350505 290.60540625 88.5 288.0625 C85.23021819 285.13200752 81.72783085 282.9097712 77.921875 280.7421875 C76.31542114 279.82264282 76.31542114 279.82264282 74.67651367 278.88452148 C73.54576416 278.24200439 72.41501465 277.5994873 71.25 276.9375 C70.07945692 276.26636359 68.9092932 275.59456513 67.73950195 274.92211914 C62.56574515 271.94960617 57.38286369 268.994082 52.18359375 266.06640625 C50.68477625 265.21114704 49.18606848 264.35569548 47.6875 263.5 C47.02008789 263.13181152 46.35267578 262.76362305 45.66503906 262.38427734 C41.18102193 259.80778028 38.3827453 257.28693423 35.5 253.0625 C34.43018382 248.63849544 34.6500931 244.1833686 36.3515625 239.9375 C39.92208884 234.3023836 45.37999878 232.10250041 51.5 230.0625 C61.30046791 229.28380221 69.07206021 229.39810055 77.5 235.0625 C81.39883325 237.66172217 84.82089558 238.38833702 89.5234375 237.81640625 C95.4371011 236.53624536 100.06845267 234.20982099 103.5 229.0625 C104.08350505 226.60540625 104.08350505 226.60540625 103.5 224.0625 C100.22720851 221.12542647 96.72916545 218.91944109 92.90625 216.76953125 C91.80829102 216.14804199 90.71033203 215.52655273 89.57910156 214.88623047 C88.99713013 214.55927185 88.41515869 214.23231323 87.81555176 213.89544678 C84.66825091 212.12647875 81.52975102 210.34201581 78.390625 208.55859375 C77.73946716 208.1890155 77.08830933 207.81943726 76.41741943 207.43865967 C69.49124268 203.50129104 62.61746132 199.47615123 55.75 195.4375 C54.53769194 194.72507571 53.325371 194.01267331 52.11303711 193.30029297 C50.31949624 192.24621525 48.52603075 191.19201019 46.73277283 190.13745117 C34.20529731 182.77134632 21.66129626 175.43110322 9.0625 168.1875 C7.99128906 167.57132813 6.92007813 166.95515625 5.81640625 166.3203125 C1.587524 164.02402231 -1.21984247 166.90341276 -5.1796875 168.9453125 Z M-240.5 245.0625 C-240.5 256.2825 -240.5 267.5025 -240.5 279.0625 C-240.17 279.0625 -239.84 279.0625 -239.5 279.0625 C-239.5 267.8425 -239.5 256.6225 -239.5 245.0625 C-239.83 245.0625 -240.16 245.0625 -240.5 245.0625 Z " fill="#221E1F" transform="translate(344.5,61.9375)"/>
<path d="M0 0 C0.66 0.66 1.32 1.32 2 2 C1.9230957 4.43481445 1.9230957 4.43481445 1 7 C-1.06958008 8.63745117 -1.06958008 8.63745117 -3.76953125 10.04296875 C-4.74083984 10.55923828 -5.71214844 11.07550781 -6.71289062 11.60742188 C-7.73576172 12.12884766 -8.75863281 12.65027344 -9.8125 13.1875 C-11.3294043 13.98704102 -11.3294043 13.98704102 -12.87695312 14.80273438 C-15.57552383 16.22068792 -18.28251037 17.61871516 -21 19 C-21.70213623 19.37938721 -22.40427246 19.75877441 -23.12768555 20.1496582 C-25.8321452 21.37793216 -28.07377076 21.25445472 -31 21 C-33 19 -33 19 -33.125 16.6875 C-30.51633666 10.45569314 -20.96759763 7.28034245 -15.1875 4.25 C-14.43791016 3.85167969 -13.68832031 3.45335937 -12.91601562 3.04296875 C-4.27060959 -1.5153776 -4.27060959 -1.5153776 0 0 Z " fill="#221E1F" transform="translate(200,187)"/>
</svg>
