<?xml version="1.0" encoding="UTF-8"?>
<svg version="1.1" xmlns="http://www.w3.org/2000/svg" viewBox="5 5.97 290.34 188.03" width="300" height="200">
<path d="M0 0 C-1.57313172 4.72843614 -4.20641235 8.3433843 -7.125 12.3125 C-7.82689453 13.28026367 -7.82689453 13.28026367 -8.54296875 14.26757812 C-9.6905929 15.84848894 -10.84465477 17.42472301 -12 19 C-15.87782737 17.77334032 -19.47664643 16.35320565 -23.125 14.5625 C-34.94021152 9.18036861 -48.35600191 6.46940572 -61.125 10.1875 C-66.06486734 12.17458949 -68.8208934 15.29232837 -71.8125 19.625 C-73.51735051 24.47036461 -73.68151578 28.91892126 -73 34 C-70.82588519 38.42875238 -68.19354121 41.41249585 -64 44 C-56.35631597 46.6000107 -48.52885611 47.76630863 -40.5625 48.875 C-27.86951641 50.78913206 -17.95634849 53.54816639 -8 62 C-7.39929688 62.49242188 -6.79859375 62.98484375 -6.1796875 63.4921875 C-4.77545957 64.64822631 -3.38586725 65.82201284 -2 67 C-1.59910156 66.443125 -1.19820313 65.88625 -0.78515625 65.3125 C4.77096554 57.85394196 10.88610223 51.64058013 19 47 C18.31164062 46.01773438 18.31164062 46.01773438 17.609375 45.015625 C11.01513053 35.20737903 6.27737056 25.05840609 8 13 C10.87438375 2.03041302 16.33618581 -6.41552016 26.16796875 -12.296875 C35.9517366 -17.0762023 46.00628956 -16.7215663 56.19140625 -13.25390625 C65.55064077 -9.13291258 71.31432907 -1.30117814 75 8 C77.5936558 16.16336537 76.69661252 25.56115278 73.4453125 33.37109375 C68.46591177 42.42821995 60.84130223 48.00920884 52 53 C52.54527344 53.59425781 53.09054688 54.18851562 53.65234375 54.80078125 C58.46581529 60.09148587 63.08823298 65.48933084 67.58984375 71.046875 C70.33850625 74.41476616 73.13023286 77.74343867 75.9375 81.0625 C76.64688721 81.90325073 76.64688721 81.90325073 77.37060547 82.76098633 C79.19102236 84.90971306 81.00769615 87.00769615 83 89 C84.2574793 87.02526916 85.5058639 85.04561764 86.75 83.0625 C87.44609375 81.96035156 88.1421875 80.85820313 88.859375 79.72265625 C91.20676264 75.6404292 93.08748856 71.30315075 95 67 C101.27 69.31 107.54 71.62 114 74 C112.30579338 84.16523973 106.87715907 92.4839808 100.28515625 100.29296875 C98.79951283 101.9101802 98.79951283 101.9101802 99 104 C112.9879242 111.6766699 128.30448045 115.05668232 144.203125 111.85546875 C150.1459751 110.03775343 155.14097392 107.24176674 159.125 102.4375 C160.83311455 95.72704999 161.28241485 88.81144794 158.375 82.4375 C153.87148357 77.81546998 149.64542187 75.56508631 143.3125 74.4375 C142.35778809 74.26045532 142.35778809 74.26045532 141.38378906 74.07983398 C137.66143788 73.40543679 133.92673886 72.83479766 130.18359375 72.2890625 C113.98712593 69.92096082 100.62628081 66.42114535 89.72265625 53.328125 C82.75099304 43.90610398 81.02051461 31.23865699 82.5 19.75 C84.83988342 8.90412526 90.18991961 -0.20749527 99 -7 C114.63373179 -16.57797797 132.31241692 -17.71172246 150 -14 C160.889253 -11.23589074 170.30995043 -6.53913472 180 -1 C179.05757304 3.59259205 176.70615394 6.84501729 174.125 10.6875 C173.67769531 11.37650391 173.23039062 12.06550781 172.76953125 12.77539062 C172.33253906 13.43087891 171.89554687 14.08636719 171.4453125 14.76171875 C171.04844238 15.35944092 170.65157227 15.95716309 170.24267578 16.57299805 C169 18 169 18 166 19 C163.609375 17.92578125 163.609375 17.92578125 160.75 16.3125 C148.62503357 10.0530408 135.08881065 6.75460221 121.4921875 9.5078125 C115.50062139 11.48981346 111.26997228 14.79871472 108.125 20.25 C106.40678096 25.9773968 106.15819524 30.65180776 108.1875 36.3125 C112.31386514 42.43090348 118.13462389 45.22167899 125.20214844 46.64477539 C129.70740784 47.38552665 134.21938279 48.06909934 138.73730469 48.72680664 C156.11757265 51.28740772 168.12486388 55.81398911 179 70 C185.38535626 80.03143246 186.33469793 91.3973671 184.53515625 102.99609375 C181.91682017 113.91873835 176.17300266 122.50789069 167 129 C149.95060239 138.96494472 128.24911568 139.42610853 109.37890625 134.97265625 C98.84834687 131.94131604 89.4839998 127.38616683 80 122 C79.16082031 122.65355469 79.16082031 122.65355469 78.3046875 123.3203125 C64.10166693 133.86982296 49.52433034 138.17934505 32 137 C19.89057042 135.02042531 9.66007044 129.38572049 1.5625 120.25 C0 118 0 118 0 116 C-0.66 116 -1.32 116 -2 116 C-2.165 116.680625 -2.33 117.36125 -2.5 118.0625 C-7.17006418 127.20804235 -17.82948384 131.96104683 -27.14453125 135.0390625 C-50.47071797 140.96053813 -74.82910438 136.23478377 -95.54296875 124.55859375 C-99.03506968 122.34341367 -101.97919689 119.81941624 -105 117 C-103.49853841 111.95394871 -100.43322694 108.89020251 -96.875 105.1875 C-96.31167969 104.59001953 -95.74835938 103.99253906 -95.16796875 103.37695312 C-93.7850002 101.91194406 -92.39335215 100.45513688 -91 99 C-87.56378914 100.26977319 -84.71934472 101.77152461 -81.6875 103.8125 C-68.37899372 111.86868778 -51.69357007 115.06084013 -36.44140625 111.7421875 C-33.30825865 110.78971063 -30.50796039 109.50340997 -27.65625 107.90234375 C-26 107 -26 107 -23 106 C-21.83046584 103.57616923 -21.83046584 103.57616923 -21 101 C-20.67 100.34 -20.34 99.68 -20 99 C-19.49761365 92.54626762 -19.05558315 86.44057496 -23 81 C-30.50018999 73.04525304 -44.09994571 72.95365991 -54.27929688 71.62695312 C-68.40625098 69.63501092 -82.02342386 64.7076043 -91 53 C-98.27998288 40.27451268 -99.51626187 28.21536962 -95.96484375 14.140625 C-92.95153236 4.33211344 -86.79520078 -3.43137636 -78.03125 -8.828125 C-54.05231553 -21.30201515 -21.06006882 -17.07141942 0 0 Z M29 10.1875 C27.02738412 15.73548215 27.16762112 20.84043994 29.6875 26.1875 C30.42576703 27.47752449 31.19678032 28.74938434 32 30 C32.38542969 30.61617187 32.77085937 31.23234375 33.16796875 31.8671875 C34.46710408 33.81283776 34.46710408 33.81283776 37 36 C42.36414718 36.35760981 46.86536283 33.16489285 51 30 C55.45381963 25.08937836 56.36736413 22.05208441 56.2734375 15.54296875 C55.86317602 11.72753699 54.62662245 9.76132103 52 7 C43.63877555 2.3548753 35.56905899 3.00259173 29 10.1875 Z M19.1875 71.3125 C14.3856427 76.37060491 11.47470382 82.83807038 10.90234375 89.83203125 C11.24080057 97.34577276 13.73591284 104.56564587 19 110 C26.06945369 116.20853661 33.04577498 117.47494397 42.33203125 117.30859375 C51.55093701 116.53298826 60.78893328 113.15213744 67 106 C67 101.20578525 66.27242709 100.7681423 63.0625 97.4375 C59.78594753 93.9411476 56.63787113 90.41408924 53.625 86.6875 C49.77623045 81.93393199 45.85324665 77.25116252 41.89306641 72.59057617 C38.18052587 68.22113791 38.18052587 68.22113791 36.59570312 66.27978516 C35.41694497 64.83677885 34.21084934 63.41618568 33 62 C28.55335353 62 22.31054246 68.4130159 19.1875 71.3125 Z " fill="black" transform="translate(110,22)"/>
<path d="M0 0 C1.32 0 2.64 0 4 0 C4.66 2.64 5.32 5.28 6 8 C6.99 5.36 7.98 2.72 9 0 C10.32 0.33 11.64 0.66 13 1 C13.66 3.31 14.32 5.62 15 8 C15.99 5.36 16.98 2.72 18 0 C18.99 0 19.98 0 21 0 C20.46048934 6.68993219 19.11293829 12.63460728 17 19 C16.01 19 15.02 19 14 19 C13.01 15.7 12.02 12.4 11 9 C10.01 11.97 9.02 14.94 8 18 C6.68 18 5.36 18 4 18 C2.68 12.06 1.36 6.12 0 0 Z " fill="black" transform="translate(168,175)"/>
<path d="M0 0 C8.30078125 -0.390625 8.30078125 -0.390625 11 0 C12.87109375 1.859375 12.87109375 1.859375 14 4 C13.7501634 6.49836603 13.14924181 8.57940944 12.3125 10.9375 C11.85475058 13.95864618 12.91727512 16.19765325 14 19 C12.1875 18.875 12.1875 18.875 10 18 C8.96708324 16.01679982 7.9662501 14.01652194 7 12 C6.01 11.67 5.02 11.34 4 11 C4 13.64 4 16.28 4 19 C2.68 18.67 1.36 18.34 0 18 C0 12.06 0 6.12 0 0 Z M4 3 C4 4.65 4 6.3 4 8 C5.65 8 7.3 8 9 8 C9.33 6.35 9.66 4.7 10 3 C8.02 3 6.04 3 4 3 Z " fill="black" transform="translate(247,175)"/>
<path d="M0 0 C3.96 0 7.92 0 12 0 C12 0.99 12 1.98 12 3 C9.03 3 6.06 3 3 3 C3 4.32 3 5.64 3 7 C5.31 7 7.62 7 10 7 C10.33 8.32 10.66 9.64 11 11 C8.36 11 5.72 11 3 11 C3 12.32 3 13.64 3 15 C5.97 15 8.94 15 12 15 C12 16.32 12 17.64 12 19 C8.04 19 4.08 19 0 19 C0 12.73 0 6.46 0 0 Z " fill="black" transform="translate(200,175)"/>
<path d="M0 0 C3.96 0 7.92 0 12 0 C12 0.99 12 1.98 12 3 C9.03 3 6.06 3 3 3 C3 4.65 3 6.3 3 8 C6.465 7.505 6.465 7.505 10 7 C10.33 8.32 10.66 9.64 11 11 C8.36 11 5.72 11 3 11 C3 12.32 3 13.64 3 15 C5.97 15 8.94 15 12 15 C12 16.32 12 17.64 12 19 C8.04 19 4.08 19 0 19 C0 12.73 0 6.46 0 0 Z " fill="black" transform="translate(147,175)"/>
<path d="M0 0 C1.89355469 0.27954102 1.89355469 0.27954102 4 1 C5.29118801 3.67418068 6.30405235 6.14550654 7.25 8.9375 C7.518125 9.67935547 7.78625 10.42121094 8.0625 11.18554688 C10 16.63723693 10 16.63723693 10 19 C8.68 19 7.36 19 6 19 C5.67 18.01 5.34 17.02 5 16 C2.69 15.67 0.38 15.34 -2 15 C-2.33 16.32 -2.66 17.64 -3 19 C-3.99 19 -4.98 19 -6 19 C-4.70024676 12.28460827 -2.70071112 6.27980887 0 0 Z M1 6 C0.67 7.65 0.34 9.3 0 11 C1.32 10.67 2.64 10.34 4 10 C3.34 8.68 2.68 7.36 2 6 C1.67 6 1.34 6 1 6 Z " fill="black" transform="translate(44,175)"/>
<path d="M0 0 C0.99 0 1.98 0 3 0 C4.00605593 2.60197202 5.00502525 5.20629362 6 7.8125 C6.28617188 8.55048828 6.57234375 9.28847656 6.8671875 10.04882812 C7.13789063 10.76103516 7.40859375 11.47324219 7.6875 12.20703125 C8.06455078 13.18893433 8.06455078 13.18893433 8.44921875 14.19067383 C9 16 9 16 9 19 C7.68 18.67 6.36 18.34 5 18 C5 17.01 5 16.02 5 15 C1.56769552 15.26393501 1.56769552 15.26393501 -2 16 C-2.66 16.99 -3.32 17.98 -4 19 C-4.99 19 -5.98 19 -7 19 C-5.17778624 12.38757278 -2.94776396 6.19479329 0 0 Z M1 6 C0.34 7.65 -0.32 9.3 -1 11 C0.32 11 1.64 11 3 11 C2.67 9.35 2.34 7.7 2 6 C1.67 6 1.34 6 1 6 Z " fill="black" transform="translate(228,175)"/>
<path d="M0 0 C3.5 0.4375 3.5 0.4375 5.4375 1.75 C6.5 3.4375 6.5 3.4375 6.5 6.4375 C5.943125 6.293125 5.38625 6.14875 4.8125 6 C2.38615805 5.40980872 -0.04906345 4.914071 -2.5 4.4375 C-2.61320856 9.52053686 -2.61320856 9.52053686 -1.5 14.4375 C1.14 14.1075 3.78 13.7775 6.5 13.4375 C6.1875 15.3125 6.1875 15.3125 5.5 17.4375 C2.5 19.4375 2.5 19.4375 -0.5 19.25 C-3.66176016 18.39368996 -4.58641411 18.00013841 -6.5 15.4375 C-6.8984375 12.87890625 -6.8984375 12.87890625 -6.875 10 C-6.88273437 9.05253906 -6.89046875 8.10507813 -6.8984375 7.12890625 C-6.19399286 2.37045178 -4.78825647 0.59853206 0 0 Z " fill="black" transform="translate(69.5,174.5625)"/>
<path d="M0 0 C1.32 0 2.64 0 4 0 C4.99 3.3 5.98 6.6 7 10 C8.32 6.7 9.64 3.4 11 0 C11.99 0 12.98 0 14 0 C13.42934122 6.41991126 11.32655091 12.01589463 9 18 C7.68 18 6.36 18 5 18 C4.16320723 15.37605694 3.33043058 12.75095616 2.5 10.125 C2.26152344 9.37863281 2.02304688 8.63226563 1.77734375 7.86328125 C0 2.2265625 0 2.2265625 0 0 Z " fill="black" transform="translate(122,175)"/>
<path d="M0 0 C4.29 0 8.58 0 13 0 C13 0.99 13 1.98 13 3 C11.35 3 9.7 3 8 3 C8 8.28 8 13.56 8 19 C7.01 19 6.02 19 5 19 C5 13.72 5 8.44 5 3 C3.35 3 1.7 3 0 3 C0 2.01 0 1.02 0 0 Z " fill="black" transform="translate(85,175)"/>
<path d="M0 0 C1.32 0 2.64 0 4 0 C4 5.94 4 11.88 4 18 C2.68 18.33 1.36 18.66 0 19 C0 12.73 0 6.46 0 0 Z " fill="black" transform="translate(108,175)"/>
<path d="M0 0 C1.32 0 2.64 0 4 0 C4.696553 1.95513161 5.38199565 3.91422476 6.0625 5.875 C6.44535156 6.96554688 6.82820312 8.05609375 7.22265625 9.1796875 C8 12 8 12 7 14 C6.34 13.67 5.68 13.34 5 13 C4.67 13.66 4.34 14.32 4 15 C3.3299166 12.87607494 2.66403203 10.75082476 2 8.625 C1.62875 7.44164062 1.2575 6.25828125 0.875 5.0390625 C0 2 0 2 0 0 Z " fill="black" transform="translate(122,175)"/>
<path d="M0 0 C1.32 0.33 2.64 0.66 4 1 C4.33 3.31 4.66 5.62 5 8 C4.01 8.33 3.02 8.66 2 9 C1.01 10.485 1.01 10.485 0 12 C-0.66 11.67 -1.32 11.34 -2 11 C-1 3.57142857 -1 3.57142857 0 0 Z " fill="black" transform="translate(177,175)"/>
<path d="M0 0 C0.99 0 1.98 0 3 0 C2.25 6.625 2.25 6.625 0 10 C-0.99 10 -1.98 10 -3 10 C-2.01 6.7 -1.02 3.4 0 0 Z " fill="black" transform="translate(133,175)"/>
<path d="M0 0 C1.98 0.495 1.98 0.495 4 1 C4.33 2.65 4.66 4.3 5 6 C2.03 5.505 2.03 5.505 -1 5 C-0.67 3.35 -0.34 1.7 0 0 Z " fill="black" transform="translate(44,175)"/>
<path d="M0 0 C0.99 0 1.98 0 3 0 C2.67 2.97 2.34 5.94 2 9 C1.01 8.01 0.02 7.02 -1 6 C-0.6875 2.8125 -0.6875 2.8125 0 0 Z " fill="black" transform="translate(186,175)"/>
</svg>
